playfair-display_black.sfdir
StartChar: exclam
Encoding: 33 33 677
Width: 627
Flags: W
LayerCount: 2
Back
Fore
SplineSet
419 1569.5 m 128,-1,1
 469 1537 469 1537 499 1478 c 128,-1,2
 529 1419 529 1419 529 1343 c 0,3,4
 529 1264 529 1264 508.5 1176.5 c 128,-1,5
 488 1089 488 1089 446 950 c 0,6,7
 395 779 395 779 366.5 657 c 128,-1,8
 338 535 338 535 331 401 c 1,9,-1
 294 401 l 1,10,11
 287 536 287 536 258.5 658 c 128,-1,12
 230 780 230 780 179 949 c 0,13,14
 136 1093 136 1093 115.5 1179 c 128,-1,15
 95 1265 95 1265 95 1343 c 256,16,17
 95 1421 95 1421 122.5 1479.5 c 128,-1,18
 150 1538 150 1538 199.5 1570 c 128,-1,19
 249 1602 249 1602 312 1602 c 0,20,0
 369 1602 369 1602 419 1569.5 c 128,-1,1
463.5 279 m 128,-1,22
 516 234 516 234 516 147 c 0,23,24
 516 61 516 61 463.5 16 c 128,-1,25
 411 -29 411 -29 313 -29 c 0,26,27
 214 -29 214 -29 162 15.5 c 128,-1,28
 110 60 110 60 110 147 c 256,29,30
 110 234 110 234 162 279 c 128,-1,31
 214 324 214 324 313 324 c 0,32,21
 411 324 411 324 463.5 279 c 128,-1,22
EndSplineSet
Substitution2: "'smcp' Lowercase to Small Capitals lookup 24 subtable" exclam.smcp
Substitution2: "'c2sc' Capitals to Small Capitals lookup 23 subtable" exclam.smcp
Substitution2: "'aalt' Access All Alternates lookup 0 subtable" exclam.smcp
EndChar
StartChar: numbersign
Encoding: 35 35 679
Width: 1247
Flags: W
LayerCount: 2
Back
Fore
SplineSet
802 547 m 1,0,-1
 1103 547 l 1,1,-1
 1095 506 l 1,2,-1
 794 506 l 1,3,-1
 736 207 l 1,4,-1
 695 207 l 1,5,-1
 753 506 l 1,6,-1
 411 506 l 1,7,-1
 353 207 l 1,8,-1
 312 207 l 1,9,-1
 370 506 l 1,10,-1
 69 506 l 1,11,-1
 77 547 l 1,12,-1
 378 547 l 1,13,-1
 444 889 l 1,14,-1
 144 889 l 1,15,-1
 151 930 l 1,16,-1
 452 930 l 1,17,-1
 511 1233 l 1,18,-1
 552 1233 l 1,19,-1
 493 930 l 1,20,-1
 835 930 l 1,21,-1
 894 1233 l 1,22,-1
 935 1233 l 1,23,-1
 876 930 l 1,24,-1
 1177 930 l 1,25,-1
 1170 889 l 1,26,-1
 868 889 l 1,27,-1
 802 547 l 1,0,-1
485 889 m 1,28,-1
 419 547 l 1,29,-1
 761 547 l 1,30,-1
 827 889 l 1,31,-1
 485 889 l 1,28,-1
EndSplineSet
EndChar
StartChar: dollar
Encoding: 36 36 719
Width: 1245
Flags: W
LayerCount: 2
Back
Fore
SplineSet
1066 113 m 128,-1,1
 955 13 955 13 773 -17 c 1,2,-1
 773 -270 l 1,3,-1
 732 -270 l 1,4,-1
 732 -23 l 1,5,6
 678 -29 678 -29 620 -29 c 0,7,8
 596 -29 596 -29 556 -27 c 1,9,-1
 556 -270 l 1,10,-1
 515 -270 l 1,11,-1
 515 -23 l 1,12,13
 413 -11 413 -11 310 35 c 2,14,-1
 286 45 l 2,15,16
 278 48 278 48 255.5 57.5 c 128,-1,17
 233 67 233 67 216.5 71.5 c 128,-1,18
 200 76 200 76 187 76 c 0,19,20
 169 76 169 76 159 55 c 128,-1,21
 149 34 149 34 142 -14 c 1,22,-1
 95 -14 l 1,23,24
 103 125 103 125 103 580 c 1,25,-1
 151 580 l 1,26,27
 168 380 168 380 209 264 c 128,-1,28
 250 148 250 148 323.5 93 c 128,-1,29
 397 38 397 38 515 25 c 1,30,-1
 515 578 l 1,31,-1
 470 610 l 1,32,33
 351 689 351 689 275.5 753.5 c 128,-1,34
 200 818 200 818 152.5 902 c 128,-1,35
 105 986 105 986 105 1092 c 0,36,37
 105 1205 105 1205 159.5 1286 c 128,-1,38
 214 1367 214 1367 306.5 1413 c 128,-1,39
 399 1459 399 1459 515 1473 c 1,40,-1
 515 1720 l 1,41,-1
 556 1720 l 1,42,-1
 556 1477 l 1,43,44
 594 1479 594 1479 613 1479 c 0,45,46
 676 1479 676 1479 732 1471 c 1,47,-1
 732 1720 l 1,48,-1
 773 1720 l 1,49,-1
 773 1464 l 1,50,51
 858 1446 858 1446 945 1397 c 0,52,53
 974 1381 974 1381 988 1374.5 c 128,-1,54
 1002 1368 1002 1368 1015 1368 c 0,55,56
 1034 1368 1034 1368 1044 1389.5 c 128,-1,57
 1054 1411 1054 1411 1060 1458 c 1,58,-1
 1107 1458 l 1,59,60
 1097 1311 1097 1311 1097 958 c 1,61,-1
 1050 958 l 1,62,63
 1021 1158 1021 1158 959 1270 c 128,-1,64
 897 1382 897 1382 773 1416 c 1,65,-1
 773 887 l 1,66,-1
 845 840 l 2,67,68
 953 769 953 769 1023 707 c 128,-1,69
 1093 645 1093 645 1135 564 c 128,-1,70
 1177 483 1177 483 1177 377 c 0,71,0
 1177 213 1177 213 1066 113 c 128,-1,1
556 1420 m 1,73,-1
 556 1045 l 1,74,75
 631 984 631 984 732 915 c 1,76,-1
 732 1424 l 1,77,78
 696 1430 696 1430 656 1430 c 0,79,72
 596 1430 596 1430 556 1420 c 1,73,-1
419.5 1211 m 128,-1,81
 424 1188 424 1188 446 1155.5 c 128,-1,82
 468 1123 468 1123 515 1080 c 1,83,-1
 515 1408 l 1,84,85
 415 1369 415 1369 415 1268 c 0,86,80
 415 1234 415 1234 419.5 1211 c 128,-1,81
732 29 m 1,88,-1
 732 419 l 1,89,90
 661 474 661 474 556 549 c 1,91,-1
 556 22 l 1,92,93
 594 20 594 20 617 20 c 0,94,87
 684 20 684 20 732 29 c 1,88,-1
900 190 m 0,96,97
 900 224 900 224 893.5 247 c 128,-1,98
 887 270 887 270 859.5 303 c 128,-1,99
 832 336 832 336 773 385 c 1,100,-1
 773 38 l 1,101,95
 900 76 900 76 900 190 c 0,96,97
EndSplineSet
Substitution2: "'smcp' Lowercase to Small Capitals lookup 24 subtable" dollar.smcp
Substitution2: "'c2sc' Capitals to Small Capitals lookup 23 subtable" dollar.smcp
Substitution2: "'aalt' Access All Alternates lookup 0 subtable" dollar.smcp
EndChar
StartChar: percent
Encoding: 37 37 739
Width: 1473
Flags: W
LayerCount: 2
Back
Fore
SplineSet
163 -113 m 1,0,-1
 124 -86 l 1,1,-1
 1322 1688 l 1,2,-1
 1361 1661 l 1,3,-1
 163 -113 l 1,0,-1
600 1519 m 128,-1,5
 679 1479 679 1479 723 1404 c 128,-1,6
 767 1329 767 1329 767 1225 c 0,7,8
 767 1123 767 1123 721.5 1045 c 128,-1,9
 676 967 676 967 596.5 924 c 128,-1,10
 517 881 517 881 417 881 c 0,11,12
 313 881 313 881 233.5 920.5 c 128,-1,13
 154 960 154 960 109.5 1035.5 c 128,-1,14
 65 1111 65 1111 65 1214 c 0,15,16
 65 1315 65 1315 111 1393.5 c 128,-1,17
 157 1472 157 1472 237 1515.5 c 128,-1,18
 317 1559 317 1559 417 1559 c 0,19,4
 521 1559 521 1559 600 1519 c 128,-1,5
296 1217 m 0,21,22
 296 1070 296 1070 329 994 c 128,-1,23
 362 918 362 918 421 918 c 0,24,25
 536 918 536 918 536 1221 c 0,26,27
 536 1369 536 1369 504 1445.5 c 128,-1,28
 472 1522 472 1522 413 1522 c 0,29,20
 296 1522 296 1522 296 1217 c 0,21,22
1239 609 m 128,-1,31
 1318 569 1318 569 1362 494 c 128,-1,32
 1406 419 1406 419 1406 315 c 0,33,34
 1406 214 1406 214 1360.5 135.5 c 128,-1,35
 1315 57 1315 57 1235 14 c 128,-1,36
 1155 -29 1155 -29 1056 -29 c 0,37,38
 952 -29 952 -29 872.5 11 c 128,-1,39
 793 51 793 51 748.5 126 c 128,-1,40
 704 201 704 201 704 305 c 0,41,42
 704 406 704 406 750 484 c 128,-1,43
 796 562 796 562 876 605.5 c 128,-1,44
 956 649 956 649 1056 649 c 0,45,30
 1160 649 1160 649 1239 609 c 128,-1,31
935 307 m 0,47,48
 935 161 935 161 968 84.5 c 128,-1,49
 1001 8 1001 8 1060 8 c 0,50,51
 1175 8 1175 8 1175 311 c 0,52,53
 1175 459 1175 459 1143 535.5 c 128,-1,54
 1111 612 1111 612 1052 612 c 0,55,46
 935 612 935 612 935 307 c 0,47,48
EndSplineSet
EndChar
StartChar: ampersand
Encoding: 38 38 760
Width: 1921
Flags: W
LayerCount: 2
Back
Fore
SplineSet
1796.5 937 m 128,-1,1
 1698 846 1698 846 1503 797 c 1,2,3
 1566 754 1566 754 1603.5 670 c 128,-1,4
 1641 586 1641 586 1641 481 c 0,5,6
 1641 328 1641 328 1543.5 212.5 c 128,-1,7
 1446 97 1446 97 1273 34 c 128,-1,8
 1100 -29 1100 -29 880 -29 c 0,9,10
 623 -29 623 -29 440.5 32.5 c 128,-1,11
 258 94 258 94 162.5 209 c 128,-1,12
 67 324 67 324 67 481 c 0,13,14
 67 623 67 623 144.5 720 c 128,-1,15
 222 817 222 817 321 867.5 c 128,-1,16
 420 918 420 918 507 938 c 1,17,18
 394 979 394 979 326.5 1037.5 c 128,-1,19
 259 1096 259 1096 259 1192 c 256,20,21
 259 1288 259 1288 327.5 1349 c 128,-1,22
 396 1410 396 1410 498.5 1437 c 128,-1,23
 601 1464 601 1464 708 1464 c 0,24,25
 783 1464 783 1464 830 1457.5 c 128,-1,26
 877 1451 877 1451 921 1436 c 0,27,28
 984 1414 984 1414 1030 1369.5 c 128,-1,29
 1076 1325 1076 1325 1076 1253 c 0,30,31
 1076 1207 1076 1207 1051 1172 c 128,-1,32
 1026 1137 1026 1137 983.5 1117.5 c 128,-1,33
 941 1098 941 1098 890 1098 c 0,34,35
 812 1098 812 1098 763 1134.5 c 128,-1,36
 714 1171 714 1171 714 1241 c 0,37,38
 714 1299 714 1299 754 1347 c 128,-1,39
 794 1395 794 1395 859 1411 c 1,40,41
 813 1427 813 1427 738 1427 c 256,42,43
 663 1427 663 1427 602.5 1395.5 c 128,-1,44
 542 1364 542 1364 506 1300 c 128,-1,45
 470 1236 470 1236 470 1143 c 0,46,47
 470 1036 470 1036 534 950 c 1,48,49
 600 969 600 969 640 969 c 0,50,51
 676 969 676 969 694 952.5 c 128,-1,52
 712 936 712 936 712 909 c 0,53,54
 712 889 712 889 695 876.5 c 128,-1,55
 678 864 678 864 654 864 c 0,56,57
 602 864 602 864 536 922 c 1,58,59
 446 857 446 857 398.5 781 c 128,-1,60
 351 705 351 705 351 594 c 0,61,62
 351 402 351 402 510 313.5 c 128,-1,63
 669 225 669 225 980 225 c 0,64,65
 1120 225 1120 225 1254 264 c 128,-1,66
 1388 303 1388 303 1475 381 c 128,-1,67
 1562 459 1562 459 1562 569 c 0,68,69
 1562 633 1562 633 1546 689 c 128,-1,70
 1530 745 1530 745 1470 789 c 1,71,72
 1390 772 1390 772 1332 764 c 0,73,74
 1241 750 1241 750 1185 739 c 0,75,76
 1031 711 1031 711 939 684.5 c 128,-1,77
 847 658 847 658 800 620.5 c 128,-1,78
 753 583 753 583 753 528 c 0,79,80
 753 480 753 480 788 442 c 128,-1,81
 823 404 823 404 879 383 c 128,-1,82
 935 362 935 362 996 362 c 0,83,84
 1010 362 1010 362 1052 367 c 1,85,86
 994 388 994 388 968.5 429 c 128,-1,87
 943 470 943 470 943 520 c 0,88,89
 943 593 943 593 998.5 633.5 c 128,-1,90
 1054 674 1054 674 1142 674 c 0,91,92
 1232 674 1232 674 1282 631.5 c 128,-1,93
 1332 589 1332 589 1332 516 c 0,94,95
 1332 418 1332 418 1247.5 371 c 128,-1,96
 1163 324 1163 324 1011 324 c 0,97,98
 912 324 912 324 835.5 355.5 c 128,-1,99
 759 387 759 387 716 449.5 c 128,-1,100
 673 512 673 512 673 602 c 0,101,102
 673 788 673 788 820.5 888.5 c 128,-1,103
 968 989 968 989 1246 1030 c 0,104,105
 1272 1033 1272 1033 1333 1044 c 0,106,107
 1379 1053 1379 1053 1424 1059 c 0,108,109
 1556 1081 1556 1081 1640.5 1105.5 c 128,-1,110
 1725 1130 1725 1130 1772.5 1168.5 c 128,-1,111
 1820 1207 1820 1207 1820 1266 c 0,112,113
 1820 1317 1820 1317 1786.5 1356 c 128,-1,114
 1753 1395 1753 1395 1700.5 1416.5 c 128,-1,115
 1648 1438 1648 1438 1592 1438 c 0,116,117
 1569 1438 1569 1438 1537 1434 c 1,118,119
 1598 1412 1598 1412 1631 1369 c 128,-1,120
 1664 1326 1664 1326 1664 1280 c 0,121,122
 1664 1207 1664 1207 1610.5 1167.5 c 128,-1,123
 1557 1128 1557 1128 1469 1128 c 0,124,125
 1379 1128 1379 1128 1327 1171 c 128,-1,126
 1275 1214 1275 1214 1275 1286 c 0,127,128
 1275 1374 1275 1374 1344 1426.5 c 128,-1,129
 1413 1479 1413 1479 1551 1479 c 0,130,131
 1655 1479 1655 1479 1732.5 1444 c 128,-1,132
 1810 1409 1810 1409 1852.5 1342 c 128,-1,133
 1895 1275 1895 1275 1895 1182 c 0,134,0
 1895 1028 1895 1028 1796.5 937 c 128,-1,1
EndSplineSet
Substitution2: "'smcp' Lowercase to Small Capitals lookup 24 subtable" ampersand.smcp
Substitution2: "'c2sc' Capitals to Small Capitals lookup 23 subtable" ampersand.smcp
Substitution2: "'aalt' Access All Alternates lookup 0 subtable" ampersand.smcp
EndChar
StartChar: quotesingle
Encoding: 39 39 685
Width: 455
Flags: W
LayerCount: 2
Back
Fore
SplineSet
345.5 1450 m 128,-1,1
 392 1405 392 1405 392 1331 c 0,2,3
 392 1285 392 1285 377.5 1248 c 128,-1,4
 363 1211 363 1211 329 1146 c 0,5,6
 273 1044 273 1044 241 958 c 1,7,-1
 212 958 l 1,8,9
 183 1033 183 1033 128 1132 c 0,10,11
 92 1199 92 1199 76 1240 c 128,-1,12
 60 1281 60 1281 60 1329 c 0,13,14
 60 1378 60 1378 81.5 1416 c 128,-1,15
 103 1454 103 1454 141 1474.5 c 128,-1,16
 179 1495 179 1495 226 1495 c 0,17,0
 299 1495 299 1495 345.5 1450 c 128,-1,1
EndSplineSet
EndChar
StartChar: parenright
Encoding: 41 41 643
Width: 684
Flags: W
LayerCount: 2
Back
Fore
SplineSet
485 1226.5 m 128,-1,1
 624 980 624 980 624 639 c 256,2,3
 624 298 624 298 485 51.5 c 128,-1,4
 346 -195 346 -195 71 -373 c 1,5,-1
 40 -348 l 1,6,7
 157 -114 157 -114 212 119.5 c 128,-1,8
 267 353 267 353 267 639 c 0,9,10
 267 924 267 924 211 1161.5 c 128,-1,11
 155 1399 155 1399 40 1626 c 1,12,-1
 71 1651 l 1,13,0
 346 1473 346 1473 485 1226.5 c 128,-1,1
EndSplineSet
Substitution2: "'case' Case-Sensitive Forms lookup 25 subtable" parenright.case
Substitution2: "'smcp' Lowercase to Small Capitals lookup 24 subtable" parenright.smcp
Substitution2: "'c2sc' Capitals to Small Capitals lookup 23 subtable" parenright.smcp
AlternateSubs2: "'aalt' Access All Alternates lookup 1 subtable" parenright.smcp parenright.case
EndChar
StartChar: asterisk
Encoding: 42 42 671
Width: 969
Flags: W
LayerCount: 2
Back
Fore
SplineSet
879 912 m 0,1,2
 879 879 879 879 859 846 c 0,3,4
 823 783 823 783 766 783 c 0,5,6
 736 783 736 783 706 801 c 0,7,8
 675 819 675 819 647.5 850.5 c 128,-1,9
 620 882 620 882 568 950 c 0,10,11
 528 1005 528 1005 493 1048 c 1,12,-1
 538 939 l 2,13,14
 571 862 571 862 586 819 c 128,-1,15
 601 776 601 776 601 739 c 0,16,17
 601 682 601 682 567.5 655.5 c 128,-1,18
 534 629 534 629 486 629 c 0,19,20
 436 629 436 629 403 655.5 c 128,-1,21
 370 682 370 682 370 739 c 0,22,23
 370 776 370 776 384.5 818 c 128,-1,24
 399 860 399 860 432 937 c 0,25,26
 442 962 442 962 453.5 989 c 128,-1,27
 465 1016 465 1016 477 1045 c 0,28,29
 484 1054 484 1054 405 953 c 0,30,31
 356 886 356 886 326 851.5 c 128,-1,32
 296 817 296 817 265 799 c 256,33,34
 234 781 234 781 205 781 c 0,35,36
 175 781 175 781 151 799 c 128,-1,37
 127 817 127 817 112 844 c 0,38,39
 91 878 91 878 91 912 c 0,40,41
 91 966 91 966 149 999 c 0,42,43
 180 1017 180 1017 222 1025.5 c 128,-1,44
 264 1034 264 1034 347 1043 c 0,45,46
 493 1063 493 1063 469 1059 c 1,47,48
 411 1067 411 1067 354 1074 c 0,49,50
 267 1085 267 1085 223 1093.5 c 128,-1,51
 179 1102 179 1102 149 1120 c 0,52,53
 90 1153 90 1153 90 1210 c 0,54,55
 90 1243 90 1243 110 1276 c 0,56,57
 144 1339 144 1339 203 1339 c 0,58,59
 233 1339 233 1339 263 1321 c 0,60,61
 295 1303 295 1303 324.5 1269.5 c 128,-1,62
 354 1236 354 1236 402 1170 c 0,63,64
 463 1089 463 1089 475 1075 c 1,65,-1
 430 1184 l 2,66,67
 397 1262 397 1262 382.5 1304 c 128,-1,68
 368 1346 368 1346 368 1382 c 0,69,70
 368 1439 368 1439 402 1466 c 128,-1,71
 436 1493 436 1493 484 1493 c 0,72,73
 533 1493 533 1493 566 1466 c 128,-1,74
 599 1439 599 1439 599 1382 c 0,75,76
 599 1347 599 1347 585.5 1307.5 c 128,-1,77
 572 1268 572 1268 540 1192 c 0,78,79
 511 1126 511 1126 493 1078 c 1,80,81
 512 1102 512 1102 565 1172 c 0,82,83
 615 1238 615 1238 644.5 1271.5 c 128,-1,84
 674 1305 674 1305 704 1323 c 0,85,86
 736 1341 736 1341 763 1341 c 0,87,88
 822 1341 822 1341 857 1278 c 0,89,90
 878 1244 878 1244 878 1210 c 0,91,92
 878 1155 878 1155 820 1122 c 0,93,94
 789 1104 789 1104 747.5 1095.5 c 128,-1,95
 706 1087 706 1087 624 1078 c 0,96,97
 479 1058 479 1058 505 1062 c 1,98,99
 570 1052 570 1052 618 1047 c 0,100,101
 703 1036 703 1036 746.5 1027.5 c 128,-1,102
 790 1019 790 1019 820 1001 c 0,103,0
 879 968 879 968 879 912 c 0,1,2
485 1061 m 1,104,-1
 483 1061 l 1,105,-1
 484 1060 l 1,106,-1
 485 1061 l 1,104,-1
EndSplineSet
EndChar
StartChar: plus
Encoding: 43 43 741
Width: 1157
Flags: W
LayerCount: 2
Back
Fore
SplineSet
1091 758 m 1,0,-1
 1091 696 l 1,1,-1
 615 696 l 1,2,-1
 615 215 l 1,3,-1
 542 215 l 1,4,-1
 542 696 l 1,5,-1
 65 696 l 1,6,-1
 65 758 l 1,7,-1
 542 758 l 1,8,-1
 542 1241 l 1,9,-1
 615 1241 l 1,10,-1
 615 758 l 1,11,-1
 1091 758 l 1,0,-1
EndSplineSet
EndChar
StartChar: comma
Encoding: 44 44 675
Width: 569
Flags: W
LayerCount: 2
Back
Fore
SplineSet
371 304.5 m 128,-1,1
 413 285 413 285 437 248 c 0,2,3
 460 218 460 218 474 166 c 128,-1,4
 488 114 488 114 488 53 c 0,5,6
 488 -54 488 -54 433 -144 c 128,-1,7
 378 -234 378 -234 271 -283 c 1,8,-1
 253 -246 l 1,9,10
 307 -221 307 -221 349 -175 c 128,-1,11
 391 -129 391 -129 407 -78 c 0,12,13
 418 -42 418 -42 418 -10 c 0,14,15
 418 10 418 10 413 35 c 1,16,17
 358 -29 358 -29 263 -29 c 0,18,19
 181 -29 181 -29 132 17.5 c 128,-1,20
 83 64 83 64 83 147 c 0,21,22
 83 227 83 227 136 275.5 c 128,-1,23
 189 324 189 324 275 324 c 0,24,0
 329 324 329 324 371 304.5 c 128,-1,1
EndSplineSet
EndChar
StartChar: hyphen
Encoding: 45 45 652
Width: 961
Flags: W
LayerCount: 2
Back
Fore
SplineSet
110 455 m 1,0,-1
 110 657 l 1,1,-1
 849 657 l 1,2,-1
 849 455 l 1,3,-1
 110 455 l 1,0,-1
EndSplineSet
Substitution2: "'case' Case-Sensitive Forms lookup 25 subtable" hyphen.case
Substitution2: "'smcp' Lowercase to Small Capitals lookup 24 subtable" hyphen.smcp
Substitution2: "'c2sc' Capitals to Small Capitals lookup 23 subtable" hyphen.smcp
AlternateSubs2: "'aalt' Access All Alternates lookup 1 subtable" hyphen.smcp hyphen.case
EndChar
StartChar: period
Encoding: 46 46 680
Width: 578
Flags: W
LayerCount: 2
Back
Fore
SplineSet
438.5 279 m 128,-1,1
 491 234 491 234 491 147 c 0,2,3
 491 61 491 61 438.5 16 c 128,-1,4
 386 -29 386 -29 288 -29 c 0,5,6
 189 -29 189 -29 137 15.5 c 128,-1,7
 85 60 85 60 85 147 c 256,8,9
 85 234 85 234 137 279 c 128,-1,10
 189 324 189 324 288 324 c 0,11,0
 386 324 386 324 438.5 279 c 128,-1,1
EndSplineSet
EndChar
StartChar: slash
Encoding: 47 47 687
Width: 750
Flags: W
LayerCount: 2
Back
Fore
SplineSet
62 -29 m 1,0,-1
 620 1479 l 1,1,-1
 687 1479 l 1,2,-1
 130 -29 l 1,3,-1
 62 -29 l 1,0,-1
EndSplineSet
Substitution2: "'frac' Diagonal Fractions lookup 16 subtable" fraction
Substitution2: "'aalt' Access All Alternates lookup 0 subtable" fraction
EndChar
StartChar: zero
Encoding: 48 48 572
Width: 1382
Flags: W
LayerCount: 2
Back
Fore
SplineSet
1011 1024 m 128,-1,1
 1147 956 1147 956 1223 832.5 c 128,-1,2
 1299 709 1299 709 1299 549 c 0,3,4
 1299 386 1299 386 1221 254 c 128,-1,5
 1143 122 1143 122 1002 46.5 c 128,-1,6
 861 -29 861 -29 679 -29 c 0,7,8
 507 -29 507 -29 371 38.5 c 128,-1,9
 235 106 235 106 158 230 c 128,-1,10
 81 354 81 354 81 516 c 256,11,12
 81 678 81 678 158.5 809 c 128,-1,13
 236 940 236 940 377 1016 c 128,-1,14
 518 1092 518 1092 701 1092 c 0,15,0
 875 1092 875 1092 1011 1024 c 128,-1,1
569.5 991 m 128,-1,17
 520 927 520 927 492 806.5 c 128,-1,18
 464 686 464 686 464 522 c 0,19,20
 464 346 464 346 495 230.5 c 128,-1,21
 526 115 526 115 578.5 61.5 c 128,-1,22
 631 8 631 8 697 8 c 0,23,24
 761 8 761 8 811 72.5 c 128,-1,25
 861 137 861 137 889 258 c 128,-1,26
 917 379 917 379 917 543 c 0,27,28
 917 718 917 718 885.5 833 c 128,-1,29
 854 948 854 948 801.5 1001.5 c 128,-1,30
 749 1055 749 1055 683 1055 c 0,31,16
 619 1055 619 1055 569.5 991 c 128,-1,17
EndSplineSet
Substitution2: "'case' Case-Sensitive Forms lookup 25 subtable" zero.lf
Substitution2: "'lnum' Lining Figures lookup 20 subtable" zero.lf
Substitution2: "'frac' Diagonal Fractions lookup 17 subtable" zero.numr
Substitution2: "'dnom' Denominators lookup 15 subtable" zero.dnom
Substitution2: "'numr' Numerators lookup 14 subtable" zero.numr
Substitution2: "'sups' Superscript lookup 13 subtable" zero.sups
Substitution2: "'sinf' Scientific Inferiors lookup 12 subtable" zero.subs
Substitution2: "'subs' Subscript lookup 11 subtable" zero.subs
AlternateSubs2: "'aalt' Access All Alternates lookup 1 subtable" zero.subs zero.sups zero.numr zero.dnom zero.lf
EndChar
StartChar: one
Encoding: 49 49 573
Width: 803
Flags: W
LayerCount: 2
Back
Fore
SplineSet
628 101 m 128,-1,1
 639 69 639 69 664 56 c 128,-1,2
 689 43 689 43 732 43 c 1,3,-1
 732 0 l 1,4,5
 724 0 724 0 692 2 c 0,6,7
 509 8 509 8 450 8 c 0,8,9
 379 8 379 8 133 2 c 0,10,11
 87 0 87 0 73 0 c 1,12,-1
 73 43 l 1,13,14
 162 43 162 43 205.5 79.5 c 128,-1,15
 249 116 249 116 249 211 c 2,16,-1
 249 715 l 2,17,18
 249 813 249 813 233.5 859.5 c 128,-1,19
 218 906 218 906 182 921 c 128,-1,20
 146 936 146 936 73 936 c 1,21,-1
 73 981 l 1,22,23
 270 984 270 984 396 1007.5 c 128,-1,24
 522 1031 522 1031 617 1085 c 1,25,-1
 617 190 l 2,26,0
 617 133 617 133 628 101 c 128,-1,1
EndSplineSet
Substitution2: "'case' Case-Sensitive Forms lookup 25 subtable" one.lf
Substitution2: "'lnum' Lining Figures lookup 20 subtable" one.lf
Substitution2: "'frac' Diagonal Fractions lookup 17 subtable" one.numr
Substitution2: "'dnom' Denominators lookup 15 subtable" one.dnom
Substitution2: "'numr' Numerators lookup 14 subtable" one.numr
Substitution2: "'sups' Superscript lookup 13 subtable" onesuperior
Substitution2: "'sinf' Scientific Inferiors lookup 12 subtable" one.subs
Substitution2: "'subs' Subscript lookup 11 subtable" one.subs
AlternateSubs2: "'aalt' Access All Alternates lookup 1 subtable" one.subs onesuperior one.numr one.dnom one.lf
EndChar
StartChar: two
Encoding: 50 50 574
Width: 1133
Flags: W
LayerCount: 2
Back
Fore
SplineSet
798 1061 m 128,-1,1
 881 1030 881 1030 925.5 970.5 c 128,-1,2
 970 911 970 911 970 829 c 0,3,4
 970 746 970 746 919 678 c 128,-1,5
 868 610 868 610 796 559 c 128,-1,6
 724 508 724 508 605 439 c 0,7,8
 526 393 526 393 479 363 c 128,-1,9
 432 333 432 333 396 301 c 1,10,-1
 859 301 l 2,11,12
 915 301 915 301 942 308.5 c 128,-1,13
 969 316 969 316 979.5 333 c 128,-1,14
 990 350 990 350 996 385 c 1,15,-1
 1043 385 l 1,16,17
 1043 122 1043 122 1052 -10 c 1,18,19
 1006 0 1006 0 747 0 c 2,20,-1
 73 0 l 1,21,-1
 73 43 l 1,22,23
 104 74 104 74 163 126 c 0,24,25
 281 231 281 231 362.5 317 c 128,-1,26
 444 403 444 403 505 515 c 128,-1,27
 566 627 566 627 566 748 c 0,28,29
 566 852 566 852 521.5 900 c 128,-1,30
 477 948 477 948 384 948 c 0,31,32
 297 948 297 948 231.5 913.5 c 128,-1,33
 166 879 166 879 110 811 c 1,34,-1
 75 836 l 1,35,36
 155 956 155 956 280.5 1024 c 128,-1,37
 406 1092 406 1092 603 1092 c 0,38,0
 715 1092 715 1092 798 1061 c 128,-1,1
EndSplineSet
Substitution2: "'case' Case-Sensitive Forms lookup 25 subtable" two.lf
Substitution2: "'lnum' Lining Figures lookup 20 subtable" two.lf
Substitution2: "'frac' Diagonal Fractions lookup 17 subtable" two.numr
Substitution2: "'dnom' Denominators lookup 15 subtable" two.dnom
Substitution2: "'numr' Numerators lookup 14 subtable" two.numr
Substitution2: "'sups' Superscript lookup 13 subtable" twosuperior
Substitution2: "'sinf' Scientific Inferiors lookup 12 subtable" two.subs
Substitution2: "'subs' Subscript lookup 11 subtable" two.subs
AlternateSubs2: "'aalt' Access All Alternates lookup 1 subtable" two.subs twosuperior two.numr two.dnom two.lf
EndChar
StartChar: three
Encoding: 51 51 575
Width: 1049
Flags: W
LayerCount: 2
Back
Fore
SplineSet
729 1063.5 m 128,-1,1
 817 1035 817 1035 867 981 c 128,-1,2
 917 927 917 927 917 854 c 0,3,4
 917 777 917 777 861 708 c 128,-1,5
 805 639 805 639 694.5 588.5 c 128,-1,6
 584 538 584 538 427 516 c 1,7,8
 452 518 452 518 501 518 c 0,9,10
 648 518 648 518 758.5 480 c 128,-1,11
 869 442 869 442 929.5 371 c 128,-1,12
 990 300 990 300 990 203 c 0,13,14
 990 52 990 52 850.5 -64.5 c 128,-1,15
 711 -181 711 -181 492.5 -245 c 128,-1,16
 274 -309 274 -309 48 -309 c 1,17,-1
 48 -266 l 1,18,19
 177 -261 177 -261 307.5 -205.5 c 128,-1,20
 438 -150 438 -150 524.5 -45.5 c 128,-1,21
 611 59 611 59 611 201 c 0,22,23
 611 280 611 280 585.5 342.5 c 128,-1,24
 560 405 560 405 512 441.5 c 128,-1,25
 464 478 464 478 398 483 c 1,26,27
 356 465 356 465 333.5 457 c 128,-1,28
 311 449 311 449 286 449 c 0,29,30
 265 449 265 449 255 456 c 128,-1,31
 245 463 245 463 245 481 c 0,32,33
 245 505 245 505 265.5 516.5 c 128,-1,34
 286 528 286 528 318 528 c 1,35,36
 317 528 317 528 362 525 c 2,37,-1
 390 522 l 1,38,39
 548 626 548 626 548 782 c 0,40,41
 548 871 548 871 499.5 916 c 128,-1,42
 451 961 451 961 364 961 c 0,43,44
 285 961 285 961 216 923 c 128,-1,45
 147 885 147 885 99 815 c 1,46,-1
 62 836 l 1,47,48
 133 953 133 953 241 1022.5 c 128,-1,49
 349 1092 349 1092 529 1092 c 0,50,0
 641 1092 641 1092 729 1063.5 c 128,-1,1
EndSplineSet
Substitution2: "'case' Case-Sensitive Forms lookup 25 subtable" three.lf
Substitution2: "'lnum' Lining Figures lookup 20 subtable" three.lf
Substitution2: "'frac' Diagonal Fractions lookup 17 subtable" three.numr
Substitution2: "'dnom' Denominators lookup 15 subtable" three.dnom
Substitution2: "'numr' Numerators lookup 14 subtable" three.numr
Substitution2: "'sups' Superscript lookup 13 subtable" threesuperior
Substitution2: "'sinf' Scientific Inferiors lookup 12 subtable" three.subs
Substitution2: "'subs' Subscript lookup 11 subtable" three.subs
AlternateSubs2: "'aalt' Access All Alternates lookup 1 subtable" three.subs threesuperior three.numr three.dnom three.lf
EndChar
StartChar: four
Encoding: 52 52 576
Width: 1126
Flags: W
LayerCount: 2
Back
Fore
SplineSet
866 48 m 1,1,-1
 866 -289 l 1,2,-1
 580 -289 l 1,3,-1
 580 49 l 1,4,-1
 4 49 l 1,5,-1
 4 92 l 1,6,-1
 834 1092 l 1,7,-1
 866 1092 l 1,8,-1
 866 309 l 1,9,-1
 879 309 l 2,10,11
 935 309 935 309 962 316.5 c 128,-1,12
 989 324 989 324 1000 341 c 128,-1,13
 1011 358 1011 358 1016 393 c 1,14,-1
 1063 393 l 1,15,16
 1063 146 1063 146 1071 39 c 1,17,0
 1048 44 1048 44 866 48 c 1,1,-1
580 721 m 1,18,-1
 240 309 l 1,19,-1
 580 309 l 1,20,-1
 580 721 l 1,18,-1
EndSplineSet
Substitution2: "'case' Case-Sensitive Forms lookup 25 subtable" four.lf
Substitution2: "'lnum' Lining Figures lookup 20 subtable" four.lf
Substitution2: "'frac' Diagonal Fractions lookup 17 subtable" four.numr
Substitution2: "'dnom' Denominators lookup 15 subtable" four.dnom
Substitution2: "'numr' Numerators lookup 14 subtable" four.numr
Substitution2: "'sups' Superscript lookup 13 subtable" four.sups
Substitution2: "'sinf' Scientific Inferiors lookup 12 subtable" four.subs
Substitution2: "'subs' Subscript lookup 11 subtable" four.subs
AlternateSubs2: "'aalt' Access All Alternates lookup 1 subtable" four.subs four.sups four.numr four.dnom four.lf
EndChar
StartChar: five
Encoding: 53 53 577
Width: 1001
Flags: W
LayerCount: 2
Back
Fore
SplineSet
865 750 m 1,1,2
 821 760 821 760 581 760 c 2,3,-1
 200 760 l 1,4,-1
 161 440 l 1,5,6
 218 483 218 483 309 509 c 128,-1,7
 400 535 400 535 517 535 c 0,8,9
 657 535 657 535 752.5 491.5 c 128,-1,10
 848 448 848 448 894.5 374 c 128,-1,11
 941 300 941 300 941 207 c 0,12,13
 941 55 941 55 809.5 -61 c 128,-1,14
 678 -177 678 -177 469.5 -240 c 128,-1,15
 261 -303 261 -303 40 -303 c 1,16,-1
 40 -266 l 1,17,18
 173 -265 173 -265 293 -208.5 c 128,-1,19
 413 -152 413 -152 487.5 -46.5 c 128,-1,20
 562 59 562 59 562 199 c 0,21,22
 562 326 562 326 506.5 393.5 c 128,-1,23
 451 461 451 461 343 461 c 0,24,25
 283 461 283 461 237 442 c 128,-1,26
 191 423 191 423 146 385 c 1,27,-1
 114 408 l 1,28,-1
 196 1069 l 1,29,30
 236 1061 236 1061 306 1061 c 2,31,-1
 714 1061 l 2,32,33
 760 1061 760 1061 783 1075.5 c 128,-1,34
 806 1090 806 1090 810 1124 c 1,35,-1
 857 1124 l 1,36,0
 857 862 857 862 865 750 c 1,1,2
EndSplineSet
Substitution2: "'case' Case-Sensitive Forms lookup 25 subtable" five.lf
Substitution2: "'lnum' Lining Figures lookup 20 subtable" five.lf
Substitution2: "'frac' Diagonal Fractions lookup 17 subtable" five.numr
Substitution2: "'dnom' Denominators lookup 15 subtable" five.dnom
Substitution2: "'numr' Numerators lookup 14 subtable" five.numr
Substitution2: "'sups' Superscript lookup 13 subtable" five.sups
Substitution2: "'sinf' Scientific Inferiors lookup 12 subtable" five.subs
Substitution2: "'subs' Subscript lookup 11 subtable" five.subs
AlternateSubs2: "'aalt' Access All Alternates lookup 1 subtable" five.subs five.sups five.numr five.dnom five.lf
EndChar
StartChar: six
Encoding: 54 54 578
Width: 1210
Flags: W
LayerCount: 2
Back
Fore
SplineSet
949 850.5 m 128,-1,1
 1046 796 1046 796 1102 696 c 128,-1,2
 1158 596 1158 596 1158 463 c 0,3,4
 1158 309 1158 309 1083.5 198 c 128,-1,5
 1009 87 1009 87 883 29 c 128,-1,6
 757 -29 757 -29 607 -29 c 0,7,8
 445 -29 445 -29 327.5 40 c 128,-1,9
 210 109 210 109 147.5 240 c 128,-1,10
 85 371 85 371 85 555 c 0,11,12
 85 840 85 840 226.5 1038.5 c 128,-1,13
 368 1237 368 1237 573 1343.5 c 128,-1,14
 778 1450 778 1450 984 1481 c 1,15,-1
 992 1440 l 1,16,17
 855 1397 855 1397 757.5 1334 c 128,-1,18
 660 1271 660 1271 585 1140.5 c 128,-1,19
 510 1010 510 1010 483 791 c 1,20,21
 559 905 559 905 734 905 c 0,22,0
 852 905 852 905 949 850.5 c 128,-1,1
702 57 m 128,-1,24
 735 102 735 102 755 199 c 128,-1,25
 775 296 775 296 775 444 c 0,26,27
 775 652 775 652 736 749 c 128,-1,28
 697 846 697 846 632 846 c 0,29,30
 592 846 592 846 546.5 811.5 c 128,-1,31
 501 777 501 777 474 708 c 1,32,33
 468 629 468 629 468 535 c 0,34,35
 468 350 468 350 491.5 233 c 128,-1,36
 515 116 515 116 552 64 c 128,-1,37
 589 12 589 12 630 12 c 0,38,23
 669 12 669 12 702 57 c 128,-1,24
EndSplineSet
Substitution2: "'case' Case-Sensitive Forms lookup 25 subtable" six.lf
Substitution2: "'lnum' Lining Figures lookup 20 subtable" six.lf
Substitution2: "'frac' Diagonal Fractions lookup 17 subtable" six.numr
Substitution2: "'dnom' Denominators lookup 15 subtable" six.dnom
Substitution2: "'numr' Numerators lookup 14 subtable" six.numr
Substitution2: "'sups' Superscript lookup 13 subtable" six.sups
Substitution2: "'sinf' Scientific Inferiors lookup 12 subtable" six.subs
Substitution2: "'subs' Subscript lookup 11 subtable" six.subs
AlternateSubs2: "'aalt' Access All Alternates lookup 1 subtable" six.subs six.sups six.numr six.dnom six.lf
EndChar
StartChar: seven
Encoding: 55 55 579
Width: 999
Flags: W
LayerCount: 2
Back
Fore
SplineSet
912 841 m 0,1,2
 829 694 829 694 775 584 c 128,-1,3
 721 474 721 474 681.5 334 c 128,-1,4
 642 194 642 194 642 45 c 0,5,6
 644 24 644 24 648 -38 c 128,-1,7
 652 -100 652 -100 652 -123 c 0,8,9
 652 -170 652 -170 632 -211 c 128,-1,10
 612 -252 612 -252 570 -277.5 c 128,-1,11
 528 -303 528 -303 466 -303 c 0,12,13
 373 -303 373 -303 326.5 -244 c 128,-1,14
 280 -185 280 -185 280 -80 c 0,15,16
 280 29 280 29 340.5 148 c 128,-1,17
 401 267 401 267 484.5 372 c 128,-1,18
 568 477 568 477 699 623 c 0,19,20
 780 713 780 713 819 760 c 1,21,-1
 235 760 l 2,22,23
 179 760 179 760 151.5 752.5 c 128,-1,24
 124 745 124 745 113.5 728 c 128,-1,25
 103 711 103 711 97 676 c 1,26,-1
 50 676 l 1,27,28
 50 954 50 954 42 1071 c 1,29,30
 88 1061 88 1061 347 1061 c 2,31,-1
 1007 1061 l 1,32,-1
 1007 1018 l 1,33,0
 979 959 979 959 912 841 c 0,1,2
EndSplineSet
Substitution2: "'case' Case-Sensitive Forms lookup 25 subtable" seven.lf
Substitution2: "'lnum' Lining Figures lookup 20 subtable" seven.lf
Substitution2: "'frac' Diagonal Fractions lookup 17 subtable" seven.numr
Substitution2: "'dnom' Denominators lookup 15 subtable" seven.dnom
Substitution2: "'numr' Numerators lookup 14 subtable" seven.numr
Substitution2: "'sups' Superscript lookup 13 subtable" seven.sups
Substitution2: "'sinf' Scientific Inferiors lookup 12 subtable" seven.subs
Substitution2: "'subs' Subscript lookup 11 subtable" seven.subs
AlternateSubs2: "'aalt' Access All Alternates lookup 1 subtable" seven.subs seven.sups seven.numr seven.dnom seven.lf
EndChar
StartChar: eight
Encoding: 56 56 580
Width: 1204
Flags: W
LayerCount: 2
Back
Fore
SplineSet
796 858 m 2,0,1
 909 754 909 754 975 683 c 128,-1,2
 1041 612 1041 612 1087.5 527.5 c 128,-1,3
 1134 443 1134 443 1134 354 c 0,4,5
 1134 245 1134 245 1063.5 157.5 c 128,-1,6
 993 70 993 70 869 20.5 c 128,-1,7
 745 -29 745 -29 591 -29 c 0,8,9
 450 -29 450 -29 332.5 12.5 c 128,-1,10
 215 54 215 54 145 134 c 128,-1,11
 75 214 75 214 75 326 c 0,12,13
 75 560 75 560 411 697 c 1,14,15
 328 772 328 772 271 836.5 c 128,-1,16
 214 901 214 901 178 976.5 c 128,-1,17
 142 1052 142 1052 142 1137 c 0,18,19
 142 1252 142 1252 207.5 1329 c 128,-1,20
 273 1406 273 1406 380.5 1442.5 c 128,-1,21
 488 1479 488 1479 615 1479 c 0,22,23
 747 1479 747 1479 848 1441 c 128,-1,24
 949 1403 949 1403 1004.5 1337 c 128,-1,25
 1060 1271 1060 1271 1060 1188 c 0,26,27
 1060 1095 1060 1095 987.5 1025.5 c 128,-1,28
 915 956 915 956 763 888 c 1,29,-1
 796 858 l 2,0,1
515.5 1404.5 m 128,-1,31
 486 1367 486 1367 486 1305 c 0,32,33
 486 1210 486 1210 550 1119 c 128,-1,34
 614 1028 614 1028 733 916 c 1,35,36
 754 966 754 966 763.5 1041.5 c 128,-1,37
 773 1117 773 1117 773 1178 c 0,38,39
 773 1304 773 1304 728 1373 c 128,-1,40
 683 1442 683 1442 603 1442 c 0,41,30
 545 1442 545 1442 515.5 1404.5 c 128,-1,31
732.5 60.5 m 128,-1,43
 775 113 775 113 775 197 c 256,44,45
 775 281 775 281 733.5 356.5 c 128,-1,46
 692 432 692 432 631.5 493.5 c 128,-1,47
 571 555 571 555 468 646 c 0,48,49
 457 657 457 657 443 668 c 1,50,51
 378 564 378 564 378 367 c 0,52,53
 378 8 378 8 601 8 c 0,54,42
 690 8 690 8 732.5 60.5 c 128,-1,43
EndSplineSet
Substitution2: "'case' Case-Sensitive Forms lookup 25 subtable" eight.lf
Substitution2: "'lnum' Lining Figures lookup 20 subtable" eight.lf
Substitution2: "'frac' Diagonal Fractions lookup 17 subtable" eight.numr
Substitution2: "'dnom' Denominators lookup 15 subtable" eight.dnom
Substitution2: "'numr' Numerators lookup 14 subtable" eight.numr
Substitution2: "'sups' Superscript lookup 13 subtable" eight.sups
Substitution2: "'sinf' Scientific Inferiors lookup 12 subtable" eight.subs
Substitution2: "'subs' Subscript lookup 11 subtable" eight.subs
AlternateSubs2: "'aalt' Access All Alternates lookup 1 subtable" eight.subs eight.sups eight.numr eight.dnom eight.lf
EndChar
StartChar: nine
Encoding: 57 57 581
Width: 1192
Flags: W
LayerCount: 2
Back
Fore
SplineSet
876.5 1023 m 128,-1,1
 994 954 994 954 1056.5 823 c 128,-1,2
 1119 692 1119 692 1119 508 c 0,3,4
 1119 255 1119 255 981 77.5 c 128,-1,5
 843 -100 843 -100 641.5 -195.5 c 128,-1,6
 440 -291 440 -291 241 -315 c 1,7,-1
 232 -274 l 1,8,9
 357 -239 357 -239 449.5 -185.5 c 128,-1,10
 542 -132 542 -132 614 -23.5 c 128,-1,11
 686 85 686 85 716 265 c 1,12,13
 639 158 639 158 470 158 c 0,14,15
 352 158 352 158 255.5 212.5 c 128,-1,16
 159 267 159 267 102.5 367 c 128,-1,17
 46 467 46 467 46 600 c 0,18,19
 46 754 46 754 120.5 865 c 128,-1,20
 195 976 195 976 321 1034 c 128,-1,21
 447 1092 447 1092 597 1092 c 0,22,0
 759 1092 759 1092 876.5 1023 c 128,-1,1
655.5 249.5 m 128,-1,24
 700 282 700 282 727 347 c 1,25,26
 736 429 736 429 736 528 c 0,27,28
 736 713 736 713 712.5 830 c 128,-1,29
 689 947 689 947 652 999 c 128,-1,30
 615 1051 615 1051 574 1051 c 0,31,32
 535 1051 535 1051 502.5 1006 c 128,-1,33
 470 961 470 961 449.5 863.5 c 128,-1,34
 429 766 429 766 429 618 c 0,35,36
 429 411 429 411 468.5 314 c 128,-1,37
 508 217 508 217 572 217 c 0,38,23
 611 217 611 217 655.5 249.5 c 128,-1,24
EndSplineSet
Substitution2: "'case' Case-Sensitive Forms lookup 25 subtable" nine.lf
Substitution2: "'lnum' Lining Figures lookup 20 subtable" nine.lf
Substitution2: "'frac' Diagonal Fractions lookup 17 subtable" nine.numr
Substitution2: "'dnom' Denominators lookup 15 subtable" nine.dnom
Substitution2: "'numr' Numerators lookup 14 subtable" nine.numr
Substitution2: "'sups' Superscript lookup 13 subtable" nine.sups
Substitution2: "'sinf' Scientific Inferiors lookup 12 subtable" nine.subs
Substitution2: "'subs' Subscript lookup 11 subtable" nine.subs
AlternateSubs2: "'aalt' Access All Alternates lookup 1 subtable" nine.subs nine.sups nine.numr nine.dnom nine.lf
EndChar
StartChar: less
Encoding: 60 60 732
Width: 1225
Flags: W
LayerCount: 2
Back
Fore
SplineSet
249 727 m 1,0,-1
 1086 336 l 1,1,-1
 1052 262 l 1,2,-1
 54 727 l 1,3,-1
 1052 1192 l 1,4,-1
 1086 1118 l 1,5,-1
 249 727 l 1,0,-1
EndSplineSet
EndChar
StartChar: equal
Encoding: 61 61 727
Width: 1284
Flags: W
LayerCount: 2
Back
Fore
SplineSet
128 840 m 1,0,-1
 128 901 l 1,1,-1
 1154 901 l 1,2,-1
 1154 840 l 1,3,-1
 128 840 l 1,0,-1
128 553 m 1,4,-1
 128 614 l 1,5,-1
 1154 614 l 1,6,-1
 1154 553 l 1,7,-1
 128 553 l 1,4,-1
EndSplineSet
EndChar
StartChar: question
Encoding: 63 63 682
Width: 1106
Flags: W
LayerCount: 2
Back
Fore
SplineSet
791.5 1557.5 m 128,-1,1
 912 1513 912 1513 979 1429.5 c 128,-1,2
 1046 1346 1046 1346 1046 1233 c 0,3,4
 1046 1065 1046 1065 895 949 c 128,-1,5
 744 833 744 833 482 778 c 1,6,-1
 482 479 l 1,7,-1
 441 479 l 1,8,-1
 441 797 l 1,9,10
 538 845 538 845 590 905.5 c 128,-1,11
 642 966 642 966 660.5 1035 c 128,-1,12
 679 1104 679 1104 679 1194 c 0,13,14
 679 1380 679 1380 618 1470.5 c 128,-1,15
 557 1561 557 1561 452 1561 c 0,16,17
 394 1561 394 1561 351.5 1550 c 128,-1,18
 309 1539 309 1539 290 1522 c 1,19,20
 357 1497 357 1497 390 1453.5 c 128,-1,21
 423 1410 423 1410 423 1341 c 0,22,23
 423 1293 423 1293 398.5 1254 c 128,-1,24
 374 1215 374 1215 329 1192 c 128,-1,25
 284 1169 284 1169 226 1169 c 0,26,27
 177 1169 177 1169 138.5 1191.5 c 128,-1,28
 100 1214 100 1214 79 1252 c 128,-1,29
 58 1290 58 1290 58 1333 c 0,30,31
 58 1403 58 1403 92.5 1449 c 128,-1,32
 127 1495 127 1495 189 1530 c 0,33,34
 318 1602 318 1602 513 1602 c 0,35,0
 671 1602 671 1602 791.5 1557.5 c 128,-1,1
616.5 279 m 128,-1,37
 669 234 669 234 669 147 c 0,38,39
 669 61 669 61 616.5 16 c 128,-1,40
 564 -29 564 -29 466 -29 c 0,41,42
 367 -29 367 -29 315 15.5 c 128,-1,43
 263 60 263 60 263 147 c 256,44,45
 263 234 263 234 315 279 c 128,-1,46
 367 324 367 324 466 324 c 0,47,36
 564 324 564 324 616.5 279 c 128,-1,37
EndSplineSet
Substitution2: "'smcp' Lowercase to Small Capitals lookup 24 subtable" question.smcp
Substitution2: "'c2sc' Capitals to Small Capitals lookup 23 subtable" question.smcp
Substitution2: "'aalt' Access All Alternates lookup 0 subtable" question.smcp
EndChar
StartChar: at
Encoding: 64 64 762
Width: 1819
Flags: W
LayerCount: 2
Back
Fore
SplineSet
968 200 m 0,1,2
 968 229 968 229 974 260 c 1,3,4
 877 53 877 53 693 53 c 0,5,6
 582 53 582 53 510.5 121 c 128,-1,7
 439 189 439 189 439 332 c 0,8,9
 439 472 439 472 506.5 624 c 128,-1,10
 574 776 574 776 687.5 877.5 c 128,-1,11
 801 979 801 979 931 979 c 0,12,13
 999 979 999 979 1040.5 942.5 c 128,-1,14
 1082 906 1082 906 1097 849 c 1,15,-1
 1117 950 l 1,16,17
 1310 950 1310 950 1426 979 c 1,18,-1
 1271 248 l 2,19,20
 1262 206 1262 206 1261 181 c 0,21,22
 1260 177 1260 177 1260 168 c 0,23,24
 1260 125 1260 125 1287 125 c 0,25,26
 1300 125 1300 125 1320 135 c 0,27,28
 1415 180 1415 180 1504.5 272 c 128,-1,29
 1594 364 1594 364 1653.5 501 c 128,-1,30
 1713 638 1713 638 1713 807 c 0,31,32
 1713 989 1713 989 1631 1106 c 128,-1,33
 1549 1223 1549 1223 1410.5 1277 c 128,-1,34
 1272 1331 1272 1331 1097 1331 c 0,35,36
 845 1331 845 1331 621 1188.5 c 128,-1,37
 397 1046 397 1046 261.5 807.5 c 128,-1,38
 126 569 126 569 126 297 c 0,39,40
 126 93 126 93 206.5 -39 c 128,-1,41
 287 -171 287 -171 429.5 -232 c 128,-1,42
 572 -293 572 -293 761 -293 c 0,43,44
 998 -293 998 -293 1183 -182 c 1,45,-1
 1197 -209 l 1,46,47
 1118 -265 1118 -265 1004.5 -297.5 c 128,-1,48
 891 -330 891 -330 759 -330 c 0,49,50
 557 -330 557 -330 406 -263.5 c 128,-1,51
 255 -197 255 -197 170 -57.5 c 128,-1,52
 85 82 85 82 85 293 c 0,53,54
 85 567 85 567 220.5 815.5 c 128,-1,55
 356 1064 356 1064 588.5 1216 c 128,-1,56
 821 1368 821 1368 1095 1368 c 0,57,58
 1286 1368 1286 1368 1434.5 1308.5 c 128,-1,59
 1583 1249 1583 1249 1668.5 1123 c 128,-1,60
 1754 997 1754 997 1754 805 c 0,61,62
 1754 587 1754 587 1659.5 415 c 128,-1,63
 1565 243 1565 243 1421.5 148 c 128,-1,64
 1278 53 1278 53 1140 53 c 0,65,0
 968 53 968 53 968 200 c 0,1,2
925.5 235 m 128,-1,67
 968 294 968 294 1009 416 c 1,68,-1
 1080 768 l 1,69,70
 1081 814 1081 814 1062.5 852.5 c 128,-1,71
 1044 891 1044 891 1009 891 c 0,72,73
 958 891 958 891 899 808 c 128,-1,74
 840 725 840 725 800.5 594 c 128,-1,75
 761 463 761 463 761 328 c 0,76,77
 761 242 761 242 778 209 c 128,-1,78
 795 176 795 176 830 176 c 0,79,66
 883 176 883 176 925.5 235 c 128,-1,67
EndSplineSet
Substitution2: "'case' Case-Sensitive Forms lookup 25 subtable" at.case
Substitution2: "'smcp' Lowercase to Small Capitals lookup 24 subtable" at.smcp
Substitution2: "'c2sc' Capitals to Small Capitals lookup 23 subtable" at.smcp
AlternateSubs2: "'aalt' Access All Alternates lookup 1 subtable" at.smcp at.case
EndChar
StartChar: A
Encoding: 65 65 2
Width: 1417
GlyphClass: 2
Flags: W
AnchorPoint: "Anchor-5" 0 0 basechar 0
AnchorPoint: "Anchor-4" 711 1450 basechar 0
AnchorPoint: "Anchor-3" 1397 0 basechar 0
LayerCount: 2
Back
Fore
SplineSet
1369 74.5 m 128,-1,1
 1401 43 1401 43 1432 41 c 1,2,-1
 1432 0 l 1,3,4
 1284 6 1284 6 1059 6 c 0,5,6
 825 6 825 6 715 0 c 1,7,-1
 715 41 l 1,8,9
 792 44 792 44 825.5 60 c 128,-1,10
 859 76 859 76 859 116 c 0,11,12
 859 147 859 147 834 213 c 2,13,-1
 712 549 l 1,14,-1
 299 549 l 1,15,-1
 264 457 l 2,16,17
 198 285 198 285 198 190 c 0,18,19
 198 106 198 106 244.5 75 c 128,-1,20
 291 44 291 44 383 41 c 1,21,-1
 383 0 l 1,22,23
 230 6 230 6 115 6 c 0,24,25
 18 6 18 6 -43 0 c 1,26,-1
 -43 41 l 1,27,28
 7 49 7 49 52.5 104 c 128,-1,29
 98 159 98 159 145 281 c 2,30,-1
 600 1450 l 1,31,32
 644 1446 644 1446 708 1446 c 256,33,34
 772 1446 772 1446 815 1450 c 1,35,-1
 1311 172 l 2,36,0
 1337 106 1337 106 1369 74.5 c 128,-1,1
512 1102 m 1,37,-1
 315 590 l 1,38,-1
 698 590 l 1,39,-1
 512 1102 l 1,37,-1
EndSplineSet
Substitution2: "Single Substitution lookup 29 subtable" ordfeminine
Substitution2: "'c2sc' Capitals to Small Capitals lookup 23 subtable" a.smcp
AlternateSubs2: "'aalt' Access All Alternates lookup 1 subtable" ordfeminine a.smcp
Position2: "'cpsp' Capital Spacing lookup 0 subtable" dx=20 dy=0 dh=20 dv=0
EndChar
StartChar: B
Encoding: 66 66 13
Width: 1442
GlyphClass: 2
Flags: W
LayerCount: 2
Back
Fore
SplineSet
1150.5 696.5 m 128,-1,1
 1281 643 1281 643 1340.5 564.5 c 128,-1,2
 1400 486 1400 486 1400 397 c 0,3,4
 1400 197 1400 197 1239.5 98.5 c 128,-1,5
 1079 0 1079 0 785 0 c 1,6,-1
 685 2 l 2,7,8
 547 6 547 6 413 6 c 0,9,10
 173 6 173 6 56 0 c 1,11,-1
 56 41 l 1,12,13
 122 44 122 44 151.5 57 c 128,-1,14
 181 70 181 70 191.5 105 c 128,-1,15
 202 140 202 140 202 217 c 2,16,-1
 202 1233 l 2,17,18
 202 1310 202 1310 191 1345 c 128,-1,19
 180 1380 180 1380 150.5 1393 c 128,-1,20
 121 1406 121 1406 56 1409 c 1,21,-1
 56 1450 l 1,22,23
 173 1444 173 1444 409 1444 c 0,24,25
 449 1444 449 1444 644 1447 c 2,26,-1
 738 1448 l 2,27,28
 920 1448 920 1448 1044.5 1407.5 c 128,-1,29
 1169 1367 1169 1367 1231 1294.5 c 128,-1,30
 1293 1222 1293 1222 1293 1126 c 0,31,32
 1293 1050 1293 1050 1240.5 974 c 128,-1,33
 1188 898 1188 898 1081 840.5 c 128,-1,34
 974 783 974 783 820 764 c 1,35,-1
 820 760 l 1,36,0
 1020 750 1020 750 1150.5 696.5 c 128,-1,1
657.5 1394.5 m 128,-1,38
 634 1380 634 1380 625.5 1343 c 128,-1,39
 617 1306 617 1306 617 1233 c 2,40,-1
 617 770 l 1,41,-1
 673 770 l 2,42,43
 784 770 784 770 827.5 860.5 c 128,-1,44
 871 951 871 951 871 1104 c 0,45,46
 871 1259 871 1259 838 1334 c 128,-1,47
 805 1409 805 1409 728 1409 c 0,48,37
 681 1409 681 1409 657.5 1394.5 c 128,-1,38
970 406 m 0,50,51
 970 567 970 567 892.5 651 c 128,-1,52
 815 735 815 735 646 735 c 2,53,-1
 617 735 l 1,54,-1
 617 217 l 2,55,56
 617 143 617 143 627.5 108 c 128,-1,57
 638 73 638 73 665.5 60 c 128,-1,58
 693 47 693 47 751 47 c 0,59,49
 970 47 970 47 970 406 c 0,50,51
EndSplineSet
Substitution2: "'c2sc' Capitals to Small Capitals lookup 23 subtable" b.smcp
Substitution2: "'aalt' Access All Alternates lookup 0 subtable" b.smcp
Position2: "'cpsp' Capital Spacing lookup 0 subtable" dx=20 dy=0 dh=20 dv=0
EndChar
StartChar: C
Encoding: 67 67 14
Width: 1468
GlyphClass: 2
Flags: W
AnchorPoint: "Anchor-5" 854 0 basechar 0
AnchorPoint: "Anchor-4" 797 1450 basechar 0
AnchorPoint: "Anchor-3" 0 0 basechar 0
LayerCount: 2
Back
Fore
SplineSet
1055.5 1444 m 128,-1,1
 1142 1409 1142 1409 1224 1346 c 0,2,3
 1247 1328 1247 1328 1264 1328 c 0,4,5
 1306 1328 1306 1328 1316 1450 c 1,6,-1
 1363 1450 l 1,7,8
 1355 1305 1355 1305 1355 938 c 1,9,-1
 1308 938 l 1,10,11
 1298 1047 1298 1047 1279.5 1120.5 c 128,-1,12
 1261 1194 1261 1194 1223 1252.5 c 128,-1,13
 1185 1311 1185 1311 1119 1354 c 0,14,15
 1025 1415 1025 1415 929 1415 c 0,16,17
 782 1415 782 1415 696.5 1311.5 c 128,-1,18
 611 1208 611 1208 577.5 1053 c 128,-1,19
 544 898 544 898 544 721 c 256,20,21
 544 544 544 544 577.5 389 c 128,-1,22
 611 234 611 234 696.5 130.5 c 128,-1,23
 782 27 782 27 929 27 c 0,24,25
 1025 27 1025 27 1119 88 c 0,26,27
 1185 129 1185 129 1223 189 c 128,-1,28
 1261 249 1261 249 1279.5 329.5 c 128,-1,29
 1298 410 1298 410 1308 532 c 1,30,-1
 1355 532 l 1,31,32
 1355 151 1355 151 1363 0 c 1,33,-1
 1316 0 l 1,34,35
 1311 64 1311 64 1299.5 92.5 c 128,-1,36
 1288 121 1288 121 1266 121 c 0,37,38
 1250 121 1250 121 1224 104 c 0,39,40
 1163 61 1163 61 1111.5 33.5 c 128,-1,41
 1060 6 1060 6 994 -11.5 c 128,-1,42
 928 -29 928 -29 845 -29 c 0,43,44
 613 -29 613 -29 439 59 c 128,-1,45
 265 147 265 147 169 314.5 c 128,-1,46
 73 482 73 482 73 713 c 0,47,48
 73 939 73 939 171.5 1113 c 128,-1,49
 270 1287 270 1287 445.5 1383 c 128,-1,50
 621 1479 621 1479 847 1479 c 0,51,0
 969 1479 969 1479 1055.5 1444 c 128,-1,1
EndSplineSet
Substitution2: "'c2sc' Capitals to Small Capitals lookup 23 subtable" c.smcp
Substitution2: "'aalt' Access All Alternates lookup 0 subtable" c.smcp
Position2: "'cpsp' Capital Spacing lookup 0 subtable" dx=20 dy=0 dh=20 dv=0
EndChar
StartChar: D
Encoding: 68 68 20
Width: 1661
GlyphClass: 2
Flags: W
AnchorPoint: "Anchor-5" 0 0 basechar 0
AnchorPoint: "Anchor-4" 739 1450 basechar 0
AnchorPoint: "Anchor-3" 0 0 basechar 0
LayerCount: 2
Back
Fore
SplineSet
1373.5 1269 m 128,-1,1
 1584 1088 1584 1088 1584 741 c 0,2,3
 1584 518 1584 518 1481 350.5 c 128,-1,4
 1378 183 1378 183 1183.5 91.5 c 128,-1,5
 989 0 989 0 720 0 c 0,6,7
 669 0 669 0 592 3 c 0,8,9
 409 6 409 6 413 6 c 1,10,11
 173 6 173 6 56 0 c 1,12,-1
 56 41 l 1,13,14
 122 44 122 44 151.5 57 c 128,-1,15
 181 70 181 70 191.5 105 c 128,-1,16
 202 140 202 140 202 217 c 2,17,-1
 202 1233 l 2,18,19
 202 1310 202 1310 191 1345 c 128,-1,20
 180 1380 180 1380 150.5 1393 c 128,-1,21
 121 1406 121 1406 56 1409 c 1,22,-1
 56 1450 l 1,23,24
 205 1443 205 1443 336 1443 c 2,25,-1
 409 1444 l 1,26,-1
 499 1446 l 2,27,28
 667 1450 667 1450 738 1450 c 0,29,0
 1163 1450 1163 1450 1373.5 1269 c 128,-1,1
673 1398.5 m 128,-1,31
 641 1384 641 1384 629 1347 c 128,-1,32
 617 1310 617 1310 617 1237 c 2,33,-1
 617 213 l 2,34,35
 617 139 617 139 629 102.5 c 128,-1,36
 641 66 641 66 673.5 51.5 c 128,-1,37
 706 37 706 37 771 37 c 0,38,39
 974 37 974 37 1064 212 c 128,-1,40
 1154 387 1154 387 1154 733 c 0,41,42
 1154 1080 1154 1080 1061 1246.5 c 128,-1,43
 968 1413 968 1413 769 1413 c 0,44,30
 705 1413 705 1413 673 1398.5 c 128,-1,31
EndSplineSet
Substitution2: "'c2sc' Capitals to Small Capitals lookup 23 subtable" d.smcp
Substitution2: "'aalt' Access All Alternates lookup 0 subtable" d.smcp
Position2: "'cpsp' Capital Spacing lookup 0 subtable" dx=20 dy=0 dh=20 dv=0
EndChar
StartChar: E
Encoding: 69 69 24
Width: 1331
GlyphClass: 2
Flags: W
AnchorPoint: "Anchor-5" 666 0 basechar 0
AnchorPoint: "Anchor-4" 655 1450 basechar 0
AnchorPoint: "Anchor-3" 1225 0 basechar 0
LayerCount: 2
Back
Fore
SplineSet
1242 0 m 1,1,2
 1103 6 1103 6 773 6 c 0,3,4
 294 6 294 6 56 0 c 1,5,-1
 56 41 l 1,6,7
 122 44 122 44 151.5 57 c 128,-1,8
 181 70 181 70 191.5 105 c 128,-1,9
 202 140 202 140 202 217 c 2,10,-1
 202 1233 l 2,11,12
 202 1310 202 1310 191 1345 c 128,-1,13
 180 1380 180 1380 150.5 1393 c 128,-1,14
 121 1406 121 1406 56 1409 c 1,15,-1
 56 1450 l 1,16,17
 294 1444 294 1444 773 1444 c 0,18,19
 1074 1444 1074 1444 1201 1450 c 1,20,21
 1187 1258 1187 1258 1187 1106 c 0,22,23
 1187 1011 1187 1011 1193 958 c 1,24,-1
 1146 958 l 1,25,26
 1110 1196 1110 1196 1009.5 1299.5 c 128,-1,27
 909 1403 909 1403 769 1403 c 2,28,-1
 742 1403 l 2,29,30
 686 1403 686 1403 661 1394 c 128,-1,31
 636 1385 636 1385 626.5 1358.5 c 128,-1,32
 617 1332 617 1332 617 1274 c 2,33,-1
 617 750 l 1,34,-1
 638 750 l 2,35,36
 711 750 711 750 769.5 791 c 128,-1,37
 828 832 828 832 866 894 c 128,-1,38
 904 956 904 956 917 1020 c 1,39,-1
 964 1020 l 1,40,41
 956 900 956 900 956 821 c 2,42,-1
 957 729 l 2,43,44
 957 641 957 641 970 438 c 1,45,-1
 923 438 l 1,46,47
 910 515 910 515 871.5 576.5 c 128,-1,48
 833 638 833 638 773 673.5 c 128,-1,49
 713 709 713 709 638 709 c 2,50,-1
 617 709 l 1,51,-1
 617 176 l 2,52,53
 617 117 617 117 626.5 91 c 128,-1,54
 636 65 636 65 661 56 c 128,-1,55
 686 47 686 47 742 47 c 2,56,-1
 810 47 l 2,57,58
 884 47 884 47 958.5 94 c 128,-1,59
 1033 141 1033 141 1094.5 249.5 c 128,-1,60
 1156 358 1156 358 1187 532 c 1,61,-1
 1234 532 l 1,62,63
 1228 459 1228 459 1228 344 c 0,64,0
 1228 135 1228 135 1242 0 c 1,1,2
EndSplineSet
Substitution2: "'c2sc' Capitals to Small Capitals lookup 23 subtable" e.smcp
Substitution2: "'aalt' Access All Alternates lookup 0 subtable" e.smcp
Position2: "'cpsp' Capital Spacing lookup 0 subtable" dx=20 dy=0 dh=20 dv=0
EndChar
StartChar: F
Encoding: 70 70 34
Width: 1245
GlyphClass: 2
Flags: W
LayerCount: 2
Back
Fore
SplineSet
1187 1106 m 0,1,2
 1187 1011 1187 1011 1193 958 c 1,3,-1
 1146 958 l 1,4,5
 1096 1195 1096 1195 995 1299 c 128,-1,6
 894 1403 894 1403 769 1403 c 2,7,-1
 742 1403 l 2,8,9
 686 1403 686 1403 661 1394 c 128,-1,10
 636 1385 636 1385 626.5 1358.5 c 128,-1,11
 617 1332 617 1332 617 1274 c 2,12,-1
 617 750 l 1,13,-1
 638 750 l 2,14,15
 711 750 711 750 769.5 791 c 128,-1,16
 828 832 828 832 866 894 c 128,-1,17
 904 956 904 956 917 1020 c 1,18,-1
 964 1020 l 1,19,20
 956 900 956 900 956 821 c 2,21,-1
 957 729 l 2,22,23
 957 641 957 641 970 438 c 1,24,-1
 923 438 l 1,25,26
 910 515 910 515 871.5 576.5 c 128,-1,27
 833 638 833 638 773 673.5 c 128,-1,28
 713 709 713 709 638 709 c 2,29,-1
 617 709 l 1,30,-1
 617 238 l 2,31,32
 617 152 617 152 634.5 112.5 c 128,-1,33
 652 73 652 73 698.5 60 c 128,-1,34
 745 47 745 47 845 47 c 1,35,-1
 845 0 l 1,36,37
 825 0 825 0 814 1 c 0,38,39
 579 6 579 6 423 6 c 0,40,41
 328 6 328 6 156 2 c 2,42,-1
 56 0 l 1,43,-1
 56 41 l 1,44,45
 122 44 122 44 151.5 57 c 128,-1,46
 181 70 181 70 191.5 105 c 128,-1,47
 202 140 202 140 202 217 c 2,48,-1
 202 1233 l 2,49,50
 202 1310 202 1310 191 1345 c 128,-1,51
 180 1380 180 1380 150.5 1393 c 128,-1,52
 121 1406 121 1406 56 1409 c 1,53,-1
 56 1450 l 1,54,55
 294 1444 294 1444 773 1444 c 0,56,57
 1074 1444 1074 1444 1201 1450 c 1,58,0
 1187 1258 1187 1258 1187 1106 c 0,1,2
EndSplineSet
Substitution2: "'c2sc' Capitals to Small Capitals lookup 23 subtable" f.smcp
Substitution2: "'aalt' Access All Alternates lookup 0 subtable" f.smcp
Position2: "'cpsp' Capital Spacing lookup 0 subtable" dx=20 dy=0 dh=20 dv=0
EndChar
StartChar: G
Encoding: 71 71 35
Width: 1548
GlyphClass: 2
Flags: W
AnchorPoint: "Anchor-5" 858 0 basechar 0
AnchorPoint: "Anchor-4" 825 1450 basechar 0
AnchorPoint: "Anchor-3" 0 0 basechar 0
LayerCount: 2
Back
Fore
SplineSet
1092.5 1444 m 128,-1,1
 1186 1409 1186 1409 1265 1346 c 0,2,3
 1285 1327 1285 1327 1306 1327 c 256,4,5
 1327 1327 1327 1327 1339 1356.5 c 128,-1,6
 1351 1386 1351 1386 1357 1450 c 1,7,-1
 1404 1450 l 1,8,9
 1396 1305 1396 1305 1396 938 c 1,10,-1
 1349 938 l 1,11,12
 1339 1045 1339 1045 1320 1119 c 128,-1,13
 1301 1193 1301 1193 1263 1251 c 128,-1,14
 1225 1309 1225 1309 1160 1354 c 0,15,16
 1118 1383 1118 1383 1061 1399 c 128,-1,17
 1004 1415 1004 1415 949 1415 c 0,18,19
 802 1415 802 1415 711 1311.5 c 128,-1,20
 620 1208 620 1208 582 1050.5 c 128,-1,21
 544 893 544 893 544 721 c 0,22,23
 544 364 544 364 631.5 188 c 128,-1,24
 719 12 719 12 873 12 c 0,25,26
 937 12 937 12 974 37 c 0,27,28
 1017 67 1017 67 1017 139 c 2,29,-1
 1017 344 l 2,30,31
 1017 447 1017 447 1001 494.5 c 128,-1,32
 985 542 985 542 943 560 c 128,-1,33
 901 578 901 578 810 582 c 1,34,-1
 810 623 l 1,35,36
 939 616 939 616 1201 616 c 0,37,38
 1419 616 1419 616 1517 623 c 1,39,-1
 1517 582 l 1,40,41
 1479 578 1479 578 1462.5 565.5 c 128,-1,42
 1446 553 1446 553 1439.5 518 c 128,-1,43
 1433 483 1433 483 1433 406 c 2,44,-1
 1433 0 l 1,45,-1
 1392 0 l 1,46,47
 1390 43 1390 43 1373.5 80 c 128,-1,48
 1357 117 1357 117 1328 117 c 0,49,50
 1285 117 1285 117 1189 70 c 0,51,52
 985 -29 985 -29 843 -29 c 0,53,54
 589 -29 589 -29 417 58.5 c 128,-1,55
 245 146 245 146 159 312 c 128,-1,56
 73 478 73 478 73 713 c 0,57,58
 73 939 73 939 174 1113 c 128,-1,59
 275 1287 275 1287 455.5 1383 c 128,-1,60
 636 1479 636 1479 867 1479 c 0,61,0
 999 1479 999 1479 1092.5 1444 c 128,-1,1
EndSplineSet
Substitution2: "'c2sc' Capitals to Small Capitals lookup 23 subtable" g.smcp
Substitution2: "'aalt' Access All Alternates lookup 0 subtable" g.smcp
Position2: "'cpsp' Capital Spacing lookup 0 subtable" dx=20 dy=0 dh=20 dv=0
EndChar
StartChar: H
Encoding: 72 72 41
Width: 1698
GlyphClass: 2
Flags: W
AnchorPoint: "Anchor-5" 0 0 basechar 0
AnchorPoint: "Anchor-4" 854 1450 basechar 0
AnchorPoint: "Anchor-3" 0 0 basechar 0
LayerCount: 2
Back
Fore
SplineSet
1544 1393 m 128,-1,1
 1515 1380 1515 1380 1504.5 1345 c 128,-1,2
 1494 1310 1494 1310 1494 1233 c 2,3,-1
 1494 217 l 2,4,5
 1494 140 1494 140 1505 105 c 128,-1,6
 1516 70 1516 70 1545 57 c 128,-1,7
 1574 44 1574 44 1639 41 c 1,8,-1
 1639 0 l 1,9,10
 1530 6 1530 6 1295 6 c 0,11,12
 1059 6 1059 6 933 0 c 1,13,-1
 933 41 l 1,14,15
 999 44 999 44 1028 57 c 128,-1,16
 1057 70 1057 70 1067.5 104.5 c 128,-1,17
 1078 139 1078 139 1078 217 c 2,18,-1
 1078 709 l 1,19,-1
 617 709 l 1,20,-1
 617 217 l 2,21,22
 617 140 617 140 628 105 c 128,-1,23
 639 70 639 70 668.5 57 c 128,-1,24
 698 44 698 44 763 41 c 1,25,-1
 763 0 l 1,26,27
 643 6 643 6 421 6 c 0,28,29
 173 6 173 6 56 0 c 1,30,-1
 56 41 l 1,31,32
 122 44 122 44 151.5 57 c 128,-1,33
 181 70 181 70 191.5 105 c 128,-1,34
 202 140 202 140 202 217 c 2,35,-1
 202 1233 l 2,36,37
 202 1310 202 1310 191 1345 c 128,-1,38
 180 1380 180 1380 150.5 1393 c 128,-1,39
 121 1406 121 1406 56 1409 c 1,40,-1
 56 1450 l 1,41,42
 173 1444 173 1444 421 1444 c 0,43,44
 643 1444 643 1444 763 1450 c 1,45,-1
 763 1409 l 1,46,47
 697 1406 697 1406 667.5 1393 c 128,-1,48
 638 1380 638 1380 627.5 1345 c 128,-1,49
 617 1310 617 1310 617 1233 c 2,50,-1
 617 750 l 1,51,-1
 1078 750 l 1,52,-1
 1078 1233 l 2,53,54
 1078 1310 1078 1310 1067.5 1345 c 128,-1,55
 1057 1380 1057 1380 1027.5 1393 c 128,-1,56
 998 1406 998 1406 933 1409 c 1,57,-1
 933 1450 l 1,58,59
 1059 1444 1059 1444 1295 1444 c 0,60,61
 1529 1444 1529 1444 1639 1450 c 1,62,-1
 1639 1409 l 1,63,0
 1573 1406 1573 1406 1544 1393 c 128,-1,1
EndSplineSet
Substitution2: "'c2sc' Capitals to Small Capitals lookup 23 subtable" h.smcp
Substitution2: "'aalt' Access All Alternates lookup 0 subtable" h.smcp
Position2: "'cpsp' Capital Spacing lookup 0 subtable" dx=20 dy=0 dh=20 dv=0
EndChar
StartChar: I
Encoding: 73 73 44
Width: 821
GlyphClass: 2
Flags: W
AnchorPoint: "Anchor-5" 422 0 basechar 0
AnchorPoint: "Anchor-4" 422 1450 basechar 0
AnchorPoint: "Anchor-3" 715 0 basechar 0
LayerCount: 2
Back
Fore
SplineSet
667.5 1393 m 128,-1,1
 638 1380 638 1380 627.5 1345 c 128,-1,2
 617 1310 617 1310 617 1233 c 2,3,-1
 617 217 l 2,4,5
 617 140 617 140 628 105 c 128,-1,6
 639 70 639 70 668.5 57 c 128,-1,7
 698 44 698 44 763 41 c 1,8,-1
 763 0 l 1,9,10
 643 6 643 6 421 6 c 0,11,12
 173 6 173 6 56 0 c 1,13,-1
 56 41 l 1,14,15
 122 44 122 44 151.5 57 c 128,-1,16
 181 70 181 70 191.5 105 c 128,-1,17
 202 140 202 140 202 217 c 2,18,-1
 202 1233 l 2,19,20
 202 1310 202 1310 191 1345 c 128,-1,21
 180 1380 180 1380 150.5 1393 c 128,-1,22
 121 1406 121 1406 56 1409 c 1,23,-1
 56 1450 l 1,24,25
 173 1444 173 1444 421 1444 c 0,26,27
 643 1444 643 1444 763 1450 c 1,28,-1
 763 1409 l 1,29,0
 697 1406 697 1406 667.5 1393 c 128,-1,1
EndSplineSet
Substitution2: "'c2sc' Capitals to Small Capitals lookup 23 subtable" i.smcp
Substitution2: "'aalt' Access All Alternates lookup 0 subtable" i.smcp
Position2: "'cpsp' Capital Spacing lookup 0 subtable" dx=20 dy=0 dh=20 dv=0
EndChar
StartChar: J
Encoding: 74 74 55
Width: 799
GlyphClass: 2
Flags: W
AnchorPoint: "Anchor-5" 0 0 basechar 0
AnchorPoint: "Anchor-4" 391 1450 basechar 0
AnchorPoint: "Anchor-3" 0 0 basechar 0
LayerCount: 2
Back
Fore
SplineSet
658.5 1393 m 128,-1,1
 629 1380 629 1380 618.5 1345 c 128,-1,2
 608 1310 608 1310 608 1233 c 2,3,-1
 608 483 l 1,4,-1
 609 315 l 2,5,6
 609 63 609 63 573 -51 c 0,7,8
 542 -147 542 -147 463.5 -222.5 c 128,-1,9
 385 -298 385 -298 265.5 -341.5 c 128,-1,10
 146 -385 146 -385 -2 -385 c 0,11,12
 -152 -385 -152 -385 -231 -346 c 0,13,14
 -334 -295 -334 -295 -334 -193 c 0,15,16
 -334 -121 -334 -121 -279 -78 c 128,-1,17
 -224 -35 -224 -35 -133 -35 c 0,18,19
 -47 -35 -47 -35 2 -73.5 c 128,-1,20
 51 -112 51 -112 51 -186 c 0,21,22
 51 -234 51 -234 21.5 -276 c 128,-1,23
 -8 -318 -8 -318 -68 -340 c 1,24,25
 -55 -342 -55 -342 -31 -342 c 0,26,27
 34 -342 34 -342 81 -305.5 c 128,-1,28
 128 -269 128 -269 150 -213 c 0,29,30
 171 -155 171 -155 180 -93 c 128,-1,31
 189 -31 189 -31 191 48.5 c 128,-1,32
 193 128 193 128 193 297 c 2,33,-1
 193 1233 l 2,34,35
 193 1310 193 1310 182 1345 c 128,-1,36
 171 1380 171 1380 141.5 1393 c 128,-1,37
 112 1406 112 1406 47 1409 c 1,38,-1
 47 1450 l 1,39,40
 158 1444 158 1444 391 1444 c 0,41,42
 628 1444 628 1444 754 1450 c 1,43,-1
 754 1409 l 1,44,0
 688 1406 688 1406 658.5 1393 c 128,-1,1
EndSplineSet
Substitution2: "'c2sc' Capitals to Small Capitals lookup 23 subtable" j.smcp
Substitution2: "'aalt' Access All Alternates lookup 0 subtable" j.smcp
Position2: "'cpsp' Capital Spacing lookup 0 subtable" dx=20 dy=0 dh=20 dv=0
EndChar
StartChar: K
Encoding: 75 75 57
Width: 1544
GlyphClass: 2
Flags: W
AnchorPoint: "Anchor-5" 885 0 basechar 0
AnchorPoint: "Anchor-4" 883 1450 basechar 0
AnchorPoint: "Anchor-3" 0 0 basechar 0
LayerCount: 2
Back
Fore
SplineSet
1506 92 m 128,-1,1
 1533 64 1533 64 1576 41 c 1,2,-1
 1576 0 l 1,3,4
 1403 6 1403 6 1207 6 c 0,5,6
 1056 6 1056 6 914 0 c 1,7,-1
 914 41 l 1,8,9
 979 44 979 44 1005.5 52.5 c 128,-1,10
 1032 61 1032 61 1032 80 c 0,11,12
 1032 96 1032 96 1011 133 c 2,13,-1
 714 635 l 2,14,15
 684 685 684 685 665 703.5 c 128,-1,16
 646 722 646 722 617 726 c 1,17,-1
 617 217 l 2,18,19
 617 140 617 140 628 105 c 128,-1,20
 639 70 639 70 668.5 57 c 128,-1,21
 698 44 698 44 763 41 c 1,22,-1
 763 0 l 1,23,24
 643 6 643 6 421 6 c 0,25,26
 173 6 173 6 56 0 c 1,27,-1
 56 41 l 1,28,29
 122 44 122 44 151.5 57 c 128,-1,30
 181 70 181 70 191.5 105 c 128,-1,31
 202 140 202 140 202 217 c 2,32,-1
 202 1233 l 2,33,34
 202 1310 202 1310 191 1345 c 128,-1,35
 180 1380 180 1380 150.5 1393 c 128,-1,36
 121 1406 121 1406 56 1409 c 1,37,-1
 56 1450 l 1,38,39
 173 1444 173 1444 421 1444 c 0,40,41
 643 1444 643 1444 763 1450 c 1,42,-1
 763 1409 l 1,43,44
 697 1406 697 1406 667.5 1393 c 128,-1,45
 638 1380 638 1380 627.5 1345 c 128,-1,46
 617 1310 617 1310 617 1233 c 2,47,-1
 617 771 l 1,48,49
 699 777 699 777 776.5 832 c 128,-1,50
 854 887 854 887 968 1014 c 2,51,-1
 1037 1092 l 2,52,53
 1128 1194 1128 1194 1128 1276 c 0,54,55
 1128 1336 1128 1336 1081 1372 c 128,-1,56
 1034 1408 1034 1408 960 1411 c 1,57,-1
 960 1450 l 1,58,59
 1131 1444 1131 1444 1306 1444 c 0,60,61
 1429 1444 1429 1444 1512 1450 c 1,62,-1
 1512 1411 l 1,63,64
 1334 1363 1334 1363 1177 1186 c 2,65,-1
 976 958 l 1,66,-1
 1451 166 l 2,67,0
 1479 120 1479 120 1506 92 c 128,-1,1
EndSplineSet
Substitution2: "'c2sc' Capitals to Small Capitals lookup 23 subtable" k.smcp
Substitution2: "'aalt' Access All Alternates lookup 0 subtable" k.smcp
Position2: "'cpsp' Capital Spacing lookup 0 subtable" dx=20 dy=0 dh=20 dv=0
EndChar
StartChar: L
Encoding: 76 76 59
Width: 1282
GlyphClass: 2
Flags: W
AnchorPoint: "Anchor-5" 754 0 basechar 0
AnchorPoint: "Anchor-4" 422 1450 basechar 0
AnchorPoint: "Anchor-3" 0 0 basechar 0
LayerCount: 2
Back
Fore
SplineSet
675.5 1393 m 128,-1,1
 642 1380 642 1380 629.5 1345 c 128,-1,2
 617 1310 617 1310 617 1233 c 2,3,-1
 617 176 l 2,4,5
 617 118 617 118 625 91.5 c 128,-1,6
 633 65 633 65 654 56 c 128,-1,7
 675 47 675 47 722 47 c 2,8,-1
 790 47 l 2,9,10
 861 47 861 47 945.5 119 c 128,-1,11
 1030 191 1030 191 1097 308.5 c 128,-1,12
 1164 426 1164 426 1187 553 c 1,13,-1
 1234 553 l 1,14,15
 1228 480 1228 480 1228 365 c 0,16,17
 1228 143 1228 143 1242 0 c 1,18,19
 1103 6 1103 6 773 6 c 0,20,21
 294 6 294 6 56 0 c 1,22,-1
 56 41 l 1,23,24
 122 44 122 44 151.5 57 c 128,-1,25
 181 70 181 70 191.5 105 c 128,-1,26
 202 140 202 140 202 217 c 2,27,-1
 202 1233 l 2,28,29
 202 1310 202 1310 191 1345 c 128,-1,30
 180 1380 180 1380 150.5 1393 c 128,-1,31
 121 1406 121 1406 56 1409 c 1,32,-1
 56 1450 l 1,33,34
 173 1444 173 1444 421 1444 c 0,35,36
 657 1444 657 1444 783 1450 c 1,37,-1
 783 1409 l 1,38,0
 709 1406 709 1406 675.5 1393 c 128,-1,1
EndSplineSet
Substitution2: "'c2sc' Capitals to Small Capitals lookup 23 subtable" l.smcp
Substitution2: "'aalt' Access All Alternates lookup 0 subtable" l.smcp
Position2: "'cpsp' Capital Spacing lookup 0 subtable" dx=20 dy=0 dh=20 dv=0
EndChar
StartChar: M
Encoding: 77 77 65
Width: 1976
GlyphClass: 2
Flags: W
LayerCount: 2
Back
Fore
SplineSet
1823 1393 m 128,-1,1
 1794 1380 1794 1380 1783.5 1345.5 c 128,-1,2
 1773 1311 1773 1311 1773 1233 c 2,3,-1
 1773 217 l 2,4,5
 1773 140 1773 140 1783.5 105 c 128,-1,6
 1794 70 1794 70 1823.5 57 c 128,-1,7
 1853 44 1853 44 1918 41 c 1,8,-1
 1918 0 l 1,9,10
 1792 6 1792 6 1555 6 c 0,11,12
 1308 6 1308 6 1191 0 c 1,13,-1
 1191 41 l 1,14,15
 1265 44 1265 44 1298.5 57 c 128,-1,16
 1332 70 1332 70 1344.5 105 c 128,-1,17
 1357 140 1357 140 1357 217 c 2,18,-1
 1357 1266 l 1,19,-1
 863 2 l 1,20,-1
 830 2 l 1,21,-1
 253 1317 l 1,22,-1
 253 401 l 2,23,24
 253 250 253 250 265 184 c 128,-1,25
 277 118 277 118 319 86.5 c 128,-1,26
 361 55 361 55 460 41 c 1,27,-1
 460 0 l 1,28,29
 378 6 378 6 230 6 c 0,30,31
 122 6 122 6 60 0 c 1,32,-1
 60 41 l 1,33,34
 124 55 124 55 154.5 85 c 128,-1,35
 185 115 185 115 195.5 176.5 c 128,-1,36
 206 238 206 238 206 360 c 2,37,-1
 206 1233 l 2,38,39
 206 1310 206 1310 195 1345 c 128,-1,40
 184 1380 184 1380 154.5 1393 c 128,-1,41
 125 1406 125 1406 60 1409 c 1,42,-1
 60 1450 l 1,43,44
 122 1444 122 1444 230 1444 c 0,45,46
 477 1444 477 1444 654 1450 c 1,47,-1
 1041 580 l 1,48,-1
 1377 1444 l 1,49,-1
 1555 1444 l 2,50,51
 1792 1444 1792 1444 1918 1450 c 1,52,-1
 1918 1409 l 1,53,0
 1852 1406 1852 1406 1823 1393 c 128,-1,1
EndSplineSet
Substitution2: "'c2sc' Capitals to Small Capitals lookup 23 subtable" m.smcp
Substitution2: "'aalt' Access All Alternates lookup 0 subtable" m.smcp
Position2: "'cpsp' Capital Spacing lookup 0 subtable" dx=20 dy=0 dh=20 dv=0
EndChar
StartChar: N
Encoding: 78 78 66
Width: 1499
GlyphClass: 2
Flags: W
AnchorPoint: "Anchor-5" 768 0 basechar 0
AnchorPoint: "Anchor-4" 782 1450 basechar 0
AnchorPoint: "Anchor-3" 0 0 basechar 0
LayerCount: 2
Back
Fore
SplineSet
1355 1365 m 128,-1,1
 1325 1335 1325 1335 1314.5 1273.5 c 128,-1,2
 1304 1212 1304 1212 1304 1090 c 2,3,-1
 1304 0 l 1,4,5
 1274 3 1274 3 1237 3 c 0,6,7
 1201 3 1201 3 1160 0 c 1,8,-1
 253 991 l 1,9,-1
 253 401 l 2,10,11
 253 250 253 250 265 184 c 128,-1,12
 277 118 277 118 319 86.5 c 128,-1,13
 361 55 361 55 460 41 c 1,14,-1
 460 0 l 1,15,16
 378 6 378 6 230 6 c 0,17,18
 122 6 122 6 60 0 c 1,19,-1
 60 41 l 1,20,21
 124 55 124 55 154.5 85 c 128,-1,22
 185 115 185 115 195.5 176.5 c 128,-1,23
 206 238 206 238 206 360 c 2,24,-1
 206 1233 l 2,25,26
 206 1310 206 1310 195 1345 c 128,-1,27
 184 1380 184 1380 154.5 1393 c 128,-1,28
 125 1406 125 1406 60 1409 c 1,29,-1
 60 1450 l 1,30,31
 122 1444 122 1444 230 1444 c 0,32,33
 343 1444 343 1444 419 1450 c 1,34,-1
 1256 565 l 1,35,-1
 1256 1049 l 2,36,37
 1256 1200 1256 1200 1244 1266 c 128,-1,38
 1232 1332 1232 1332 1190.5 1363.5 c 128,-1,39
 1149 1395 1149 1395 1050 1409 c 1,40,-1
 1050 1450 l 1,41,42
 1133 1444 1133 1444 1279 1444 c 0,43,44
 1388 1444 1388 1444 1449 1450 c 1,45,-1
 1449 1409 l 1,46,0
 1385 1395 1385 1395 1355 1365 c 128,-1,1
EndSplineSet
Substitution2: "'c2sc' Capitals to Small Capitals lookup 23 subtable" n.smcp
Substitution2: "'aalt' Access All Alternates lookup 0 subtable" n.smcp
Position2: "'cpsp' Capital Spacing lookup 0 subtable" dx=20 dy=0 dh=20 dv=0
EndChar
StartChar: O
Encoding: 79 79 72
Width: 1694
GlyphClass: 2
Flags: W
AnchorPoint: "Anchor-5" 850 0 basechar 0
AnchorPoint: "Anchor-4" 844 1450 basechar 0
AnchorPoint: "Anchor-3" 0 0 basechar 0
LayerCount: 2
Back
Fore
SplineSet
1253 1391 m 128,-1,1
 1427 1303 1427 1303 1523 1135.5 c 128,-1,2
 1619 968 1619 968 1619 737 c 0,3,4
 1619 511 1619 511 1520.5 337 c 128,-1,5
 1422 163 1422 163 1246 67 c 128,-1,6
 1070 -29 1070 -29 845 -29 c 0,7,8
 613 -29 613 -29 439 59 c 128,-1,9
 265 147 265 147 169 314.5 c 128,-1,10
 73 482 73 482 73 713 c 0,11,12
 73 939 73 939 171.5 1113 c 128,-1,13
 270 1287 270 1287 445.5 1383 c 128,-1,14
 621 1479 621 1479 847 1479 c 0,15,0
 1079 1479 1079 1479 1253 1391 c 128,-1,1
662 1350.5 m 128,-1,17
 586 1259 586 1259 544.5 1095.5 c 128,-1,18
 503 932 503 932 503 721 c 0,19,20
 503 509 503 509 550 346.5 c 128,-1,21
 597 184 597 184 677 96 c 128,-1,22
 757 8 757 8 853 8 c 0,23,24
 954 8 954 8 1030 99.5 c 128,-1,25
 1106 191 1106 191 1147.5 354.5 c 128,-1,26
 1189 518 1189 518 1189 729 c 0,27,28
 1189 941 1189 941 1142 1103.5 c 128,-1,29
 1095 1266 1095 1266 1015 1354 c 128,-1,30
 935 1442 935 1442 839 1442 c 0,31,16
 738 1442 738 1442 662 1350.5 c 128,-1,17
EndSplineSet
Substitution2: "Single Substitution lookup 29 subtable" ordmasculine
Substitution2: "'c2sc' Capitals to Small Capitals lookup 23 subtable" o.smcp
AlternateSubs2: "'aalt' Access All Alternates lookup 1 subtable" ordmasculine o.smcp
Position2: "'cpsp' Capital Spacing lookup 0 subtable" dx=20 dy=0 dh=20 dv=0
EndChar
StartChar: P
Encoding: 80 80 83
Width: 1389
GlyphClass: 2
Flags: W
AnchorPoint: "Anchor-5" 422 0 basechar 0
AnchorPoint: "Anchor-4" 727 1450 basechar 0
AnchorPoint: "Anchor-3" 0 0 basechar 0
LayerCount: 2
Back
Fore
SplineSet
617 238 m 2,0,1
 617 152 617 152 634.5 112.5 c 128,-1,2
 652 73 652 73 698.5 60 c 128,-1,3
 745 47 745 47 845 47 c 1,4,-1
 845 0 l 1,5,6
 825 0 825 0 814 1 c 0,7,8
 579 6 579 6 423 6 c 0,9,10
 328 6 328 6 156 2 c 2,11,-1
 56 0 l 1,12,-1
 56 41 l 1,13,14
 122 44 122 44 151.5 57 c 128,-1,15
 181 70 181 70 191.5 105 c 128,-1,16
 202 140 202 140 202 217 c 2,17,-1
 202 1233 l 2,18,19
 202 1310 202 1310 191 1345 c 128,-1,20
 180 1380 180 1380 150.5 1393 c 128,-1,21
 121 1406 121 1406 56 1409 c 1,22,-1
 56 1450 l 1,23,24
 173 1444 173 1444 409 1444 c 0,25,26
 449 1444 449 1444 644 1447 c 2,27,-1
 738 1448 l 2,28,29
 941 1448 941 1448 1079.5 1397.5 c 128,-1,30
 1218 1347 1218 1347 1286.5 1256 c 128,-1,31
 1355 1165 1355 1165 1355 1044 c 0,32,33
 1355 931 1355 931 1294 827.5 c 128,-1,34
 1233 724 1233 724 1085 655 c 128,-1,35
 937 586 937 586 693 586 c 2,36,-1
 617 586 l 1,37,-1
 617 238 l 2,0,1
657.5 1394.5 m 128,-1,39
 634 1380 634 1380 625.5 1343 c 128,-1,40
 617 1306 617 1306 617 1233 c 2,41,-1
 617 627 l 1,42,-1
 673 627 l 2,43,44
 817 627 817 627 871 733.5 c 128,-1,45
 925 840 925 840 925 1022 c 0,46,47
 925 1221 925 1221 879.5 1315 c 128,-1,48
 834 1409 834 1409 728 1409 c 0,49,38
 681 1409 681 1409 657.5 1394.5 c 128,-1,39
EndSplineSet
Substitution2: "'c2sc' Capitals to Small Capitals lookup 23 subtable" p.smcp
Substitution2: "'aalt' Access All Alternates lookup 0 subtable" p.smcp
Position2: "'cpsp' Capital Spacing lookup 0 subtable" dx=20 dy=0 dh=20 dv=0
EndChar
StartChar: Q
Encoding: 81 81 85
Width: 1694
GlyphClass: 2
Flags: W
AnchorPoint: "Anchor-5" 850 0 basechar 0
AnchorPoint: "Anchor-4" 840 1450 basechar 0
AnchorPoint: "Anchor-3" 0 0 basechar 0
LayerCount: 2
Back
Fore
SplineSet
1576.5 -168.5 m 128,-1,1
 1539 -265 1539 -265 1476 -313 c 0,2,3
 1430 -348 1430 -348 1362 -366.5 c 128,-1,4
 1294 -385 1294 -385 1220 -385 c 0,5,6
 1132 -385 1132 -385 1044 -364 c 128,-1,7
 956 -343 956 -343 875.5 -311.5 c 128,-1,8
 795 -280 795 -280 675 -226 c 0,9,10
 556 -174 556 -174 540 -168 c 0,11,12
 500 -154 500 -154 491 -154 c 1,13,14
 399 -205 399 -205 318 -205 c 0,15,16
 275 -205 275 -205 248.5 -189.5 c 128,-1,17
 222 -174 222 -174 222 -143 c 0,18,19
 222 -113 222 -113 250.5 -96.5 c 128,-1,20
 279 -80 279 -80 335 -80 c 0,21,22
 407 -80 407 -80 491 -117 c 1,23,24
 558 -100 558 -100 647 -61 c 0,25,26
 707 -35 707 -35 739 -24 c 1,27,28
 537 -4 537 -4 386.5 89 c 128,-1,29
 236 182 236 182 154.5 341 c 128,-1,30
 73 500 73 500 73 713 c 0,31,32
 73 939 73 939 171.5 1113 c 128,-1,33
 270 1287 270 1287 445.5 1383 c 128,-1,34
 621 1479 621 1479 847 1479 c 0,35,36
 1079 1479 1079 1479 1253 1391 c 128,-1,37
 1427 1303 1427 1303 1523 1135.5 c 128,-1,38
 1619 968 1619 968 1619 737 c 0,39,40
 1619 516 1619 516 1524.5 344 c 128,-1,41
 1430 172 1430 172 1260 74.5 c 128,-1,42
 1090 -23 1090 -23 872 -29 c 1,43,44
 825 -35 825 -35 787.5 -47 c 128,-1,45
 750 -59 750 -59 693 -81 c 0,46,47
 619 -111 619 -111 562 -127 c 1,48,-1
 616 -129 l 2,49,50
 868 -135 868 -135 937 -135 c 0,51,52
 1149 -135 1149 -135 1289 -106 c 0,53,54
 1404 -82 1404 -82 1469.5 -42.5 c 128,-1,55
 1535 -3 1535 -3 1586 74 c 1,56,-1
 1625 63 l 1,57,0
 1614 -72 1614 -72 1576.5 -168.5 c 128,-1,1
550 346.5 m 128,-1,59
 597 184 597 184 677 96 c 128,-1,60
 757 8 757 8 853 8 c 0,61,62
 954 8 954 8 1030 99.5 c 128,-1,63
 1106 191 1106 191 1147.5 354.5 c 128,-1,64
 1189 518 1189 518 1189 729 c 0,65,66
 1189 941 1189 941 1142 1103.5 c 128,-1,67
 1095 1266 1095 1266 1015 1354 c 128,-1,68
 935 1442 935 1442 839 1442 c 0,69,70
 738 1442 738 1442 662 1350.5 c 128,-1,71
 586 1259 586 1259 544.5 1095.5 c 128,-1,72
 503 932 503 932 503 721 c 0,73,58
 503 509 503 509 550 346.5 c 128,-1,59
EndSplineSet
Substitution2: "'c2sc' Capitals to Small Capitals lookup 23 subtable" q.smcp
Substitution2: "'aalt' Access All Alternates lookup 0 subtable" q.smcp
Position2: "'cpsp' Capital Spacing lookup 0 subtable" dx=20 dy=0 dh=20 dv=0
EndChar
StartChar: R
Encoding: 82 82 86
Width: 1477
GlyphClass: 2
Flags: W
AnchorPoint: "Anchor-5" 784 0 basechar 0
AnchorPoint: "Anchor-4" 700 1450 basechar 0
AnchorPoint: "Anchor-3" 0 0 basechar 0
LayerCount: 2
Back
Fore
SplineSet
1392 -4 m 128,-1,1
 1318 -29 1318 -29 1220 -29 c 0,2,3
 1079 -29 1079 -29 1000.5 21.5 c 128,-1,4
 922 72 922 72 904 193 c 2,5,-1
 873 397 l 2,6,7
 852 541 852 541 817 614.5 c 128,-1,8
 782 688 782 688 710 688 c 2,9,-1
 617 688 l 1,10,-1
 617 217 l 2,11,12
 617 140 617 140 628 105 c 128,-1,13
 639 70 639 70 668.5 57 c 128,-1,14
 698 44 698 44 763 41 c 1,15,-1
 763 0 l 1,16,17
 643 6 643 6 421 6 c 0,18,19
 173 6 173 6 56 0 c 1,20,-1
 56 41 l 1,21,22
 122 44 122 44 151.5 57 c 128,-1,23
 181 70 181 70 191.5 105 c 128,-1,24
 202 140 202 140 202 217 c 2,25,-1
 202 1233 l 2,26,27
 202 1310 202 1310 191 1345 c 128,-1,28
 180 1380 180 1380 150.5 1393 c 128,-1,29
 121 1406 121 1406 56 1409 c 1,30,-1
 56 1450 l 1,31,32
 173 1444 173 1444 409 1444 c 0,33,34
 449 1444 449 1444 644 1447 c 2,35,-1
 738 1448 l 2,36,37
 1050 1448 1050 1448 1202.5 1360.5 c 128,-1,38
 1355 1273 1355 1273 1355 1092 c 0,39,40
 1355 938 1355 938 1240 829.5 c 128,-1,41
 1125 721 1125 721 854 695 c 1,42,43
 1063 683 1063 683 1170.5 618.5 c 128,-1,44
 1278 554 1278 554 1302 428 c 2,45,-1
 1345 215 l 2,46,47
 1360 140 1360 140 1380.5 111 c 128,-1,48
 1401 82 1401 82 1437 82 c 0,49,50
 1474 82 1474 82 1500 109 c 1,51,-1
 1527 82 l 1,52,0
 1466 21 1466 21 1392 -4 c 128,-1,1
657.5 1394.5 m 128,-1,54
 634 1380 634 1380 625.5 1343 c 128,-1,55
 617 1306 617 1306 617 1233 c 2,56,-1
 617 729 l 1,57,-1
 673 729 l 2,58,59
 773 729 773 729 828.5 773 c 128,-1,60
 884 817 884 817 904.5 891 c 128,-1,61
 925 965 925 965 925 1069 c 0,62,63
 925 1237 925 1237 879 1323 c 128,-1,64
 833 1409 833 1409 728 1409 c 0,65,53
 681 1409 681 1409 657.5 1394.5 c 128,-1,54
EndSplineSet
Substitution2: "'c2sc' Capitals to Small Capitals lookup 23 subtable" r.smcp
Substitution2: "'aalt' Access All Alternates lookup 0 subtable" r.smcp
Position2: "'cpsp' Capital Spacing lookup 0 subtable" dx=20 dy=0 dh=20 dv=0
EndChar
StartChar: S
Encoding: 83 83 90
Width: 1255
GlyphClass: 2
Flags: W
AnchorPoint: "Anchor-5" 639 0 basechar 0
AnchorPoint: "Anchor-4" 641 1450 basechar 0
AnchorPoint: "Anchor-3" 0 0 basechar 0
LayerCount: 2
Back
Fore
SplineSet
808 1457 m 128,-1,1
 881 1435 881 1435 949 1397 c 0,2,3
 978 1381 978 1381 992 1374.5 c 128,-1,4
 1006 1368 1006 1368 1019 1368 c 0,5,6
 1038 1368 1038 1368 1048 1389.5 c 128,-1,7
 1058 1411 1058 1411 1064 1458 c 1,8,-1
 1111 1458 l 1,9,10
 1101 1311 1101 1311 1101 958 c 1,11,-1
 1054 958 l 1,12,13
 1046 1075 1046 1075 1000.5 1182 c 128,-1,14
 955 1289 955 1289 877 1356 c 128,-1,15
 799 1423 799 1423 697 1423 c 0,16,17
 604 1423 604 1423 546 1373 c 128,-1,18
 488 1323 488 1323 488 1233 c 0,19,20
 488 1164 488 1164 518.5 1113 c 128,-1,21
 549 1062 549 1062 608.5 1014 c 128,-1,22
 668 966 668 966 801 874 c 2,23,-1
 849 840 l 2,24,25
 962 761 962 761 1029 701.5 c 128,-1,26
 1096 642 1096 642 1138.5 562 c 128,-1,27
 1181 482 1181 482 1181 377 c 0,28,29
 1181 244 1181 244 1106 152.5 c 128,-1,30
 1031 61 1031 61 905 16 c 128,-1,31
 779 -29 779 -29 624 -29 c 0,32,33
 498 -29 498 -29 415.5 -8.5 c 128,-1,34
 333 12 333 12 261 47 c 1,35,36
 215 76 215 76 192 76 c 0,37,38
 173 76 173 76 163 55 c 128,-1,39
 153 34 153 34 146 -14 c 1,40,-1
 99 -14 l 1,41,42
 108 142 108 142 108 580 c 1,43,-1
 155 580 l 1,44,45
 168 337 168 337 256 185 c 128,-1,46
 344 33 344 33 527 33 c 0,47,48
 641 33 641 33 707 86 c 128,-1,49
 773 139 773 139 773 233 c 0,50,51
 773 314 773 314 736.5 378.5 c 128,-1,52
 700 443 700 443 638 496.5 c 128,-1,53
 576 550 576 550 474 618 c 0,54,55
 350 701 350 701 277.5 762 c 128,-1,56
 205 823 205 823 157.5 904.5 c 128,-1,57
 110 986 110 986 110 1092 c 0,58,59
 110 1220 110 1220 179.5 1307.5 c 128,-1,60
 249 1395 249 1395 364 1437 c 128,-1,61
 479 1479 479 1479 617 1479 c 0,62,0
 735 1479 735 1479 808 1457 c 128,-1,1
EndSplineSet
Substitution2: "'c2sc' Capitals to Small Capitals lookup 23 subtable" s.smcp
Substitution2: "'aalt' Access All Alternates lookup 0 subtable" s.smcp
Position2: "'cpsp' Capital Spacing lookup 0 subtable" dx=20 dy=0 dh=20 dv=0
EndChar
StartChar: T
Encoding: 84 84 97
Width: 1432
GlyphClass: 2
Flags: W
AnchorPoint: "Anchor-5" 709 0 basechar 0
AnchorPoint: "Anchor-4" 717 1450 basechar 0
AnchorPoint: "Anchor-3" 0 0 basechar 0
LayerCount: 2
Back
Fore
SplineSet
1369 1044 m 0,1,2
 1369 950 1369 950 1375 897 c 1,3,-1
 1328 897 l 1,4,5
 1261 1166 1261 1166 1154.5 1284.5 c 128,-1,6
 1048 1403 1048 1403 925 1403 c 2,7,-1
 923 1403 l 1,8,-1
 923 231 l 2,9,10
 923 145 923 145 940.5 106 c 128,-1,11
 958 67 958 67 1004 54 c 128,-1,12
 1050 41 1050 41 1150 41 c 1,13,-1
 1150 0 l 1,14,15
 1134 0 1134 0 1126 1 c 0,16,17
 876 6 876 6 701 6 c 0,18,19
 547 6 547 6 312 1 c 0,20,21
 300 0 300 0 280 0 c 1,22,-1
 280 41 l 1,23,24
 380 41 380 41 426 54 c 128,-1,25
 472 67 472 67 489.5 106 c 128,-1,26
 507 145 507 145 507 231 c 2,27,-1
 507 1403 l 1,28,-1
 505 1403 l 2,29,30
 380 1403 380 1403 274.5 1285.5 c 128,-1,31
 169 1168 169 1168 101 897 c 1,32,-1
 54 897 l 1,33,34
 60 950 60 950 60 1044 c 0,35,36
 60 1223 60 1223 46 1450 c 1,37,38
 241 1444 241 1444 716 1444 c 0,39,40
 1189 1444 1189 1444 1383 1450 c 1,41,0
 1369 1223 1369 1223 1369 1044 c 0,1,2
EndSplineSet
Substitution2: "'c2sc' Capitals to Small Capitals lookup 23 subtable" t.smcp
Substitution2: "'aalt' Access All Alternates lookup 0 subtable" t.smcp
Position2: "'cpsp' Capital Spacing lookup 0 subtable" dx=20 dy=0 dh=20 dv=0
EndChar
StartChar: U
Encoding: 85 85 102
Width: 1419
GlyphClass: 2
Flags: W
AnchorPoint: "Anchor-5" 811 0 basechar 0
AnchorPoint: "Anchor-4" 739 1450 basechar 0
AnchorPoint: "Anchor-3" 956 0 basechar 0
LayerCount: 2
Back
Fore
SplineSet
1299.5 1365 m 128,-1,1
 1269 1335 1269 1335 1258.5 1273.5 c 128,-1,2
 1248 1212 1248 1212 1248 1090 c 2,3,-1
 1248 596 l 2,4,5
 1248 299 1248 299 1164 162 c 0,6,7
 1050 -29 1050 -29 724 -29 c 0,8,9
 477 -29 477 -29 339 70 c 0,10,11
 271 119 271 119 234.5 191 c 128,-1,12
 198 263 198 263 184.5 358 c 128,-1,13
 171 453 171 453 171 590 c 2,14,-1
 171 1233 l 2,15,16
 171 1311 171 1311 160.5 1345.5 c 128,-1,17
 150 1380 150 1380 121 1393 c 128,-1,18
 92 1406 92 1406 26 1409 c 1,19,-1
 26 1450 l 1,20,21
 141 1444 141 1444 386 1444 c 0,22,23
 627 1444 627 1444 753 1450 c 1,24,-1
 753 1409 l 1,25,26
 679 1406 679 1406 645.5 1393 c 128,-1,27
 612 1380 612 1380 599.5 1345 c 128,-1,28
 587 1310 587 1310 587 1233 c 2,29,-1
 587 397 l 2,30,31
 587 264 587 264 615 186.5 c 128,-1,32
 643 109 643 109 699 76 c 128,-1,33
 755 43 755 43 843 43 c 0,34,35
 1038 43 1038 43 1119.5 180.5 c 128,-1,36
 1201 318 1201 318 1201 573 c 2,37,-1
 1201 1049 l 2,38,39
 1201 1200 1201 1200 1189 1266 c 128,-1,40
 1177 1332 1177 1332 1135 1363.5 c 128,-1,41
 1093 1395 1093 1395 994 1409 c 1,42,-1
 994 1450 l 1,43,44
 1078 1444 1078 1444 1224 1444 c 0,45,46
 1332 1444 1332 1444 1394 1450 c 1,47,-1
 1394 1409 l 1,48,0
 1330 1395 1330 1395 1299.5 1365 c 128,-1,1
EndSplineSet
Substitution2: "'c2sc' Capitals to Small Capitals lookup 23 subtable" u.smcp
Substitution2: "'aalt' Access All Alternates lookup 0 subtable" u.smcp
Position2: "'cpsp' Capital Spacing lookup 0 subtable" dx=20 dy=0 dh=20 dv=0
EndChar
StartChar: V
Encoding: 86 86 113
Width: 1419
GlyphClass: 2
Flags: W
LayerCount: 2
Back
Fore
SplineSet
1444 1450 m 1,1,-1
 1444 1409 l 1,2,3
 1389 1383 1389 1383 1335 1313 c 128,-1,4
 1281 1243 1281 1243 1239 1122 c 2,5,-1
 840 0 l 1,6,7
 774 4 774 4 731 4 c 0,8,9
 689 4 689 4 625 0 c 1,10,-1
 88 1278 l 2,11,12
 61 1344 61 1344 29 1375.5 c 128,-1,13
 -3 1407 -3 1407 -33 1409 c 1,14,-1
 -33 1450 l 1,15,16
 116 1444 116 1444 340 1444 c 0,17,18
 573 1444 573 1444 684 1450 c 1,19,-1
 684 1409 l 1,20,21
 608 1406 608 1406 574 1391 c 128,-1,22
 540 1376 540 1376 540 1334 c 0,23,24
 540 1299 540 1299 565 1237 c 2,25,-1
 920 364 l 1,26,-1
 1118 922 l 2,27,28
 1185 1113 1185 1113 1185 1226 c 0,29,30
 1185 1403 1185 1403 1018 1409 c 1,31,-1
 1018 1450 l 1,32,33
 1171 1444 1171 1444 1286 1444 c 0,34,0
 1383 1444 1383 1444 1444 1450 c 1,1,-1
EndSplineSet
Substitution2: "'c2sc' Capitals to Small Capitals lookup 23 subtable" v.smcp
Substitution2: "'aalt' Access All Alternates lookup 0 subtable" v.smcp
Position2: "'cpsp' Capital Spacing lookup 0 subtable" dx=20 dy=0 dh=20 dv=0
EndChar
StartChar: W
Encoding: 87 87 114
Width: 2068
GlyphClass: 2
Flags: W
AnchorPoint: "Anchor-5" 0 0 basechar 0
AnchorPoint: "Anchor-4" 1075 1450 basechar 0
AnchorPoint: "Anchor-3" 0 0 basechar 0
LayerCount: 2
Back
Fore
SplineSet
2085 1450 m 1,1,-1
 2085 1409 l 1,2,3
 1964 1350 1964 1350 1894 1122 c 2,4,-1
 1550 0 l 1,5,6
 1486 4 1486 4 1442 4 c 0,7,8
 1401 4 1401 4 1335 0 c 1,9,-1
 1069 813 l 1,10,-1
 780 0 l 1,11,12
 716 4 716 4 672 4 c 0,13,14
 631 4 631 4 565 0 c 1,15,-1
 90 1278 l 2,16,17
 66 1343 66 1343 33 1375 c 128,-1,18
 0 1407 0 1407 -31 1409 c 1,19,-1
 -31 1450 l 1,20,21
 118 1444 118 1444 332 1444 c 0,22,23
 519 1444 519 1444 604 1450 c 1,24,-1
 604 1409 l 1,25,26
 550 1398 550 1398 550 1327 c 0,27,28
 550 1281 550 1281 567 1237 c 2,29,-1
 865 402 l 1,30,-1
 1044 888 l 1,31,-1
 905 1313 l 2,32,33
 889 1363 889 1363 864 1384.5 c 128,-1,34
 839 1406 839 1406 801 1409 c 1,35,-1
 801 1450 l 1,36,37
 939 1444 939 1444 1155 1444 c 0,38,39
 1368 1444 1368 1444 1473 1450 c 1,40,-1
 1473 1409 l 1,41,42
 1398 1407 1398 1407 1365.5 1391 c 128,-1,43
 1333 1375 1333 1375 1333 1331 c 0,44,45
 1333 1297 1333 1297 1354 1237 c 2,46,-1
 1624 416 l 1,47,-1
 1782 922 l 2,48,49
 1836 1099 1836 1099 1836 1208 c 0,50,51
 1836 1311 1836 1311 1790.5 1358.5 c 128,-1,52
 1745 1406 1745 1406 1659 1409 c 1,53,-1
 1659 1450 l 1,54,55
 1812 1444 1812 1444 1927 1444 c 0,56,0
 2024 1444 2024 1444 2085 1450 c 1,1,-1
EndSplineSet
Substitution2: "'c2sc' Capitals to Small Capitals lookup 23 subtable" w.smcp
Substitution2: "'aalt' Access All Alternates lookup 0 subtable" w.smcp
Position2: "'cpsp' Capital Spacing lookup 0 subtable" dx=20 dy=0 dh=20 dv=0
EndChar
StartChar: X
Encoding: 88 88 119
Width: 1493
GlyphClass: 2
Flags: W
LayerCount: 2
Back
Fore
SplineSet
1465 82.5 m 128,-1,1
 1482 63 1482 63 1499.5 54 c 128,-1,2
 1517 45 1517 45 1544 43 c 1,3,-1
 1544 0 l 1,4,-1
 1498 1 l 2,5,6
 1321 8 1321 8 1194 8 c 0,7,8
 1061 8 1061 8 881 1 c 2,9,-1
 838 0 l 1,10,-1
 838 43 l 1,11,12
 904 43 904 43 934.5 50.5 c 128,-1,13
 965 58 965 58 965 78 c 0,14,15
 965 92 965 92 950 113 c 2,16,-1
 609 601 l 1,17,-1
 483 444 l 2,18,19
 378 315 378 315 378 204 c 0,20,21
 378 134 378 134 423.5 90.5 c 128,-1,22
 469 47 469 47 549 41 c 1,23,-1
 549 0 l 1,24,25
 432 6 432 6 195 6 c 0,26,27
 64 6 64 6 -4 0 c 1,28,-1
 -4 41 l 1,29,30
 156 108 156 108 336 332 c 2,31,-1
 582 640 l 1,32,-1
 115 1307 l 2,33,34
 84 1350 84 1350 67 1369.5 c 128,-1,35
 50 1389 50 1389 32.5 1398 c 128,-1,36
 15 1407 15 1407 -12 1409 c 1,37,-1
 -12 1452 l 1,38,39
 -1 1452 -1 1452 37 1450 c 0,40,41
 280 1444 280 1444 358 1444 c 0,42,43
 477 1444 477 1444 645 1451 c 2,44,-1
 688 1452 l 1,45,-1
 688 1409 l 1,46,47
 621 1409 621 1409 590.5 1401.5 c 128,-1,48
 560 1394 560 1394 560 1374 c 0,49,50
 560 1360 560 1360 575 1339 c 2,51,-1
 872 917 l 1,52,-1
 989 1061 l 1,53,54
 1092 1180 1092 1180 1092 1276 c 0,55,56
 1092 1333 1092 1333 1054.5 1368 c 128,-1,57
 1017 1403 1017 1403 948 1409 c 1,58,-1
 948 1450 l 1,59,60
 1065 1444 1065 1444 1221 1444 c 0,61,62
 1352 1444 1352 1444 1419 1450 c 1,63,-1
 1419 1409 l 1,64,65
 1353 1385 1353 1385 1280 1321 c 128,-1,66
 1207 1257 1207 1257 1143 1178 c 2,67,-1
 899 879 l 1,68,-1
 1417 145 l 2,69,0
 1448 102 1448 102 1465 82.5 c 128,-1,1
EndSplineSet
Substitution2: "'c2sc' Capitals to Small Capitals lookup 23 subtable" x.smcp
Substitution2: "'aalt' Access All Alternates lookup 0 subtable" x.smcp
Position2: "'cpsp' Capital Spacing lookup 0 subtable" dx=20 dy=0 dh=20 dv=0
EndChar
StartChar: Y
Encoding: 89 89 120
Width: 1319
GlyphClass: 2
Flags: W
AnchorPoint: "Anchor-5" 0 0 basechar 0
AnchorPoint: "Anchor-4" 713 1450 basechar 0
AnchorPoint: "Anchor-3" 0 0 basechar 0
LayerCount: 2
Back
Fore
SplineSet
1303 1452 m 1,1,-1
 1303 1411 l 1,2,3
 1197 1359 1197 1359 1085 1139 c 2,4,-1
 895 762 l 1,5,-1
 895 217 l 2,6,7
 895 140 895 140 906 105 c 128,-1,8
 917 70 917 70 946 57 c 128,-1,9
 975 44 975 44 1040 41 c 1,10,-1
 1040 0 l 1,11,12
 922 6 922 6 688 6 c 0,13,14
 445 6 445 6 334 0 c 1,15,-1
 334 41 l 1,16,17
 400 44 400 44 429 57 c 128,-1,18
 458 70 458 70 468.5 104.5 c 128,-1,19
 479 139 479 139 479 217 c 2,20,-1
 479 594 l 1,21,-1
 100 1294 l 2,22,23
 67 1354 67 1354 36.5 1381.5 c 128,-1,24
 6 1409 6 1409 -18 1409 c 1,25,-1
 -18 1452 l 1,26,27
 108 1440 108 1440 264 1440 c 0,28,29
 441 1440 441 1440 715 1452 c 1,30,-1
 715 1409 l 1,31,32
 632 1409 632 1409 591 1401 c 128,-1,33
 550 1393 550 1393 550 1362 c 0,34,35
 550 1349 550 1349 559 1331 c 2,36,-1
 851 769 l 1,37,-1
 944 954 l 2,38,39
 1041 1148 1041 1148 1041 1259 c 0,40,41
 1041 1404 1041 1404 877 1411 c 1,42,-1
 877 1452 l 1,43,44
 1030 1446 1030 1446 1145 1446 c 0,45,0
 1241 1446 1241 1446 1303 1452 c 1,1,-1
EndSplineSet
Substitution2: "'c2sc' Capitals to Small Capitals lookup 23 subtable" y.smcp
Substitution2: "'aalt' Access All Alternates lookup 0 subtable" y.smcp
Position2: "'cpsp' Capital Spacing lookup 0 subtable" dx=20 dy=0 dh=20 dv=0
EndChar
StartChar: Z
Encoding: 90 90 125
Width: 1243
GlyphClass: 2
Flags: W
AnchorPoint: "Anchor-5" 635 0 basechar 0
AnchorPoint: "Anchor-4" 627 1450 basechar 0
AnchorPoint: "Anchor-3" 0 0 basechar 0
LayerCount: 2
Back
Fore
SplineSet
527 47 m 1,0,-1
 613 47 l 2,1,2
 697 47 697 47 805.5 95.5 c 128,-1,3
 914 144 914 144 1002 253 c 128,-1,4
 1090 362 1090 362 1109 532 c 1,5,-1
 1156 532 l 1,6,7
 1150 459 1150 459 1150 344 c 0,8,9
 1150 135 1150 135 1164 0 c 1,10,11
 1013 6 1013 6 654 6 c 0,12,13
 255 6 255 6 75 0 c 1,14,-1
 75 41 l 1,15,-1
 695 1403 l 1,16,-1
 593 1403 l 2,17,18
 497 1403 497 1403 401 1361.5 c 128,-1,19
 305 1320 305 1320 230.5 1220.5 c 128,-1,20
 156 1121 156 1121 134 958 c 1,21,-1
 87 958 l 1,22,23
 93 1011 93 1011 93 1106 c 0,24,25
 93 1258 93 1258 79 1450 c 1,26,27
 206 1444 206 1444 507 1444 c 0,28,29
 949 1444 949 1444 1148 1450 c 1,30,-1
 1148 1409 l 1,31,-1
 527 47 l 1,0,-1
EndSplineSet
Substitution2: "'c2sc' Capitals to Small Capitals lookup 23 subtable" z.smcp
Substitution2: "'aalt' Access All Alternates lookup 0 subtable" z.smcp
Position2: "'cpsp' Capital Spacing lookup 0 subtable" dx=20 dy=0 dh=20 dv=0
EndChar
StartChar: bracketleft
Encoding: 91 91 640
Width: 696
Flags: W
LayerCount: 2
Back
Fore
SplineSet
527 1542 m 1,0,-1
 527 -332 l 1,1,-1
 611 -332 l 1,2,-1
 611 -371 l 1,3,-1
 159 -371 l 1,4,-1
 159 1581 l 1,5,-1
 611 1581 l 1,6,-1
 611 1542 l 1,7,-1
 527 1542 l 1,0,-1
EndSplineSet
Substitution2: "'case' Case-Sensitive Forms lookup 25 subtable" bracketleft.case
Substitution2: "'smcp' Lowercase to Small Capitals lookup 24 subtable" bracketleft.smcp
Substitution2: "'c2sc' Capitals to Small Capitals lookup 23 subtable" bracketleft.smcp
AlternateSubs2: "'aalt' Access All Alternates lookup 1 subtable" bracketleft.smcp bracketleft.case
EndChar
StartChar: asciicircum
Encoding: 94 94 761
Width: 1073
Flags: W
LayerCount: 2
Back
Fore
SplineSet
738.5 840 m 128,-1,1
 852 723 852 723 978 647 c 1,2,-1
 962 618 l 1,3,4
 827 640 827 640 699.5 673.5 c 128,-1,5
 572 707 572 707 495 741 c 1,6,7
 430 707 430 707 325 673.5 c 128,-1,8
 220 640 220 640 110 618 c 1,9,-1
 93 647 l 1,10,11
 217 721 217 721 330 838 c 128,-1,12
 443 955 443 955 517 1081 c 1,13,-1
 554 1081 l 1,14,0
 625 957 625 957 738.5 840 c 128,-1,1
EndSplineSet
Substitution2: "'case' Case-Sensitive Forms lookup 25 subtable" asciicircum.case
Substitution2: "'smcp' Lowercase to Small Capitals lookup 24 subtable" asciicircum.smcp
Substitution2: "'c2sc' Capitals to Small Capitals lookup 23 subtable" asciicircum.smcp
AlternateSubs2: "'aalt' Access All Alternates lookup 1 subtable" asciicircum.smcp asciicircum.case
EndChar
StartChar: grave
Encoding: 96 96 799
Width: 457
Flags: W
LayerCount: 2
Back
Fore
SplineSet
129 1713 m 0,1,2
 161 1713 161 1713 192 1699 c 128,-1,3
 223 1685 223 1685 242 1663 c 0,4,5
 267 1635 267 1635 280.5 1603 c 128,-1,6
 294 1571 294 1571 313 1509 c 0,7,8
 336 1436 336 1436 357 1378 c 128,-1,9
 378 1320 378 1320 416 1245 c 1,10,-1
 393 1227 l 1,11,12
 296 1309 296 1309 164 1391 c 0,13,14
 106 1428 106 1428 80.5 1447 c 128,-1,15
 55 1466 55 1466 33 1493 c 0,16,17
 -1 1533 -1 1533 -1 1586 c 0,18,19
 -1 1644 -1 1644 41 1679 c 0,20,0
 78 1713 78 1713 129 1713 c 0,1,2
EndSplineSet
Substitution2: "'case' Case-Sensitive Forms lookup 25 subtable" grave.case
Substitution2: "'smcp' Lowercase to Small Capitals lookup 24 subtable" grave.smcp
Substitution2: "'c2sc' Capitals to Small Capitals lookup 23 subtable" grave.smcp
AlternateSubs2: "'aalt' Access All Alternates lookup 1 subtable" grave.smcp grave.case
EndChar
StartChar: a
Encoding: 97 97 134
Width: 1087
GlyphClass: 2
Flags: W
AnchorPoint: "Anchor-5" 0 0 basechar 0
AnchorPoint: "Anchor-4" 551 1053 basechar 0
AnchorPoint: "Anchor-3" 965 0 basechar 0
LayerCount: 2
Back
Fore
SplineSet
754 1069.5 m 128,-1,1
 835 1047 835 1047 890 989 c 0,2,3
 930 947 930 947 943.5 882.5 c 128,-1,4
 957 818 957 818 957 702 c 2,5,-1
 957 154 l 2,6,7
 957 105 957 105 964 85.5 c 128,-1,8
 971 66 971 66 988 66 c 0,9,10
 1004 66 1004 66 1017.5 73.5 c 128,-1,11
 1031 81 1031 81 1052 96 c 1,12,-1
 1072 61 l 1,13,14
 1024 21 1024 21 960 3.5 c 128,-1,15
 896 -14 896 -14 806 -14 c 0,16,17
 698 -14 698 -14 647.5 29.5 c 128,-1,18
 597 73 597 73 595 141 c 1,19,20
 552 70 552 70 474 28 c 128,-1,21
 396 -14 396 -14 302 -14 c 0,22,23
 181 -14 181 -14 112.5 50 c 128,-1,24
 44 114 44 114 44 221 c 0,25,26
 44 326 44 326 107 396 c 128,-1,27
 170 466 170 466 304 510 c 0,28,29
 413 549 413 549 465.5 571.5 c 128,-1,30
 518 594 518 594 553.5 625.5 c 128,-1,31
 589 657 589 657 589 700 c 2,32,-1
 589 883 l 2,33,34
 589 948 589 948 556.5 999.5 c 128,-1,35
 524 1051 524 1051 437 1051 c 0,36,37
 411 1051 411 1051 381.5 1041 c 128,-1,38
 352 1031 352 1031 329 1016 c 1,39,40
 466 965 466 965 466 831 c 0,41,42
 466 783 466 783 441.5 744 c 128,-1,43
 417 705 417 705 372 682 c 128,-1,44
 327 659 327 659 269 659 c 0,45,46
 219 659 219 659 181 682.5 c 128,-1,47
 143 706 143 706 122 747 c 128,-1,48
 101 788 101 788 101 838 c 0,49,50
 101 900 101 900 135.5 947.5 c 128,-1,51
 170 995 170 995 228 1026 c 0,52,53
 357 1092 357 1092 556 1092 c 0,54,0
 673 1092 673 1092 754 1069.5 c 128,-1,1
509 526 m 0,56,57
 409 429 409 429 409 295 c 0,58,59
 409 150 409 150 513 150 c 0,60,61
 556 150 556 150 589 184 c 1,62,-1
 589 616 l 1,63,55
 574 591 574 591 509 526 c 0,56,57
EndSplineSet
Substitution2: "Single Substitution lookup 29 subtable" ordfeminine
Substitution2: "'smcp' Lowercase to Small Capitals lookup 24 subtable" a.smcp
AlternateSubs2: "'aalt' Access All Alternates lookup 1 subtable" ordfeminine a.smcp
EndChar
StartChar: b
Encoding: 98 98 145
Width: 1231
GlyphClass: 2
Flags: W
LayerCount: 2
Back
Fore
SplineSet
993 1035 m 128,-1,1
 1073 978 1073 978 1119 862.5 c 128,-1,2
 1165 747 1165 747 1165 578 c 0,3,4
 1165 253 1165 253 1033.5 112 c 128,-1,5
 902 -29 902 -29 688 -29 c 0,6,7
 620 -29 620 -29 574 -23.5 c 128,-1,8
 528 -18 528 -18 487 0 c 0,9,10
 418 26 418 26 340 26 c 0,11,12
 278 26 278 26 224.5 10 c 128,-1,13
 171 -6 171 -6 143 -33 c 1,14,-1
 115 -12 l 1,15,16
 129 31 129 31 129 100 c 2,17,-1
 129 1356 l 2,18,19
 129 1451 129 1451 103 1493.5 c 128,-1,20
 77 1536 77 1536 14 1536 c 1,21,-1
 14 1579 l 1,22,23
 78 1573 78 1573 141 1573 c 0,24,25
 356 1573 356 1573 498 1602 c 1,26,-1
 498 938 l 1,27,28
 591 1092 591 1092 809 1092 c 0,29,0
 913 1092 913 1092 993 1035 c 128,-1,1
782 530 m 0,31,32
 782 783 782 783 745.5 884 c 128,-1,33
 709 985 709 985 645 985 c 0,34,35
 607 985 607 985 573 966 c 128,-1,36
 539 947 539 947 518.5 913.5 c 128,-1,37
 498 880 498 880 498 838 c 2,38,-1
 498 36 l 1,39,40
 545 12 545 12 594 12 c 0,41,30
 782 12 782 12 782 530 c 0,31,32
EndSplineSet
Substitution2: "'smcp' Lowercase to Small Capitals lookup 24 subtable" b.smcp
Substitution2: "'aalt' Access All Alternates lookup 0 subtable" b.smcp
EndChar
StartChar: c
Encoding: 99 99 146
Width: 1030
GlyphClass: 2
Flags: W
AnchorPoint: "Anchor-5" 563 0 basechar 0
AnchorPoint: "Anchor-4" 555 1053 basechar 0
AnchorPoint: "Anchor-3" 0 0 basechar 0
LayerCount: 2
Back
Fore
SplineSet
741.5 1074.5 m 128,-1,1
 812 1057 812 1057 857 1030 c 0,2,3
 914 997 914 997 947 941.5 c 128,-1,4
 980 886 980 886 980 817 c 0,5,6
 980 761 980 761 954.5 715.5 c 128,-1,7
 929 670 929 670 884 644 c 128,-1,8
 839 618 839 618 783 618 c 0,9,10
 695 618 695 618 645 669 c 128,-1,11
 595 720 595 720 595 803 c 0,12,13
 595 877 595 877 643.5 932.5 c 128,-1,14
 692 988 692 988 763 1008 c 1,15,16
 730 1032 730 1032 681 1032 c 0,17,18
 549 1032 549 1032 496 891.5 c 128,-1,19
 443 751 443 751 443 559 c 0,20,21
 443 362 443 362 517.5 278.5 c 128,-1,22
 592 195 592 195 699 195 c 0,23,24
 848 195 848 195 947 332 c 1,25,-1
 982 319 l 1,26,27
 954 229 954 229 898.5 150 c 128,-1,28
 843 71 843 71 756 21 c 128,-1,29
 669 -29 669 -29 554 -29 c 0,30,31
 330 -29 330 -29 195 104.5 c 128,-1,32
 60 238 60 238 60 530 c 0,33,34
 60 720 60 720 128 846 c 128,-1,35
 196 972 196 972 314.5 1032 c 128,-1,36
 433 1092 433 1092 587 1092 c 0,37,0
 671 1092 671 1092 741.5 1074.5 c 128,-1,1
EndSplineSet
Substitution2: "'smcp' Lowercase to Small Capitals lookup 24 subtable" c.smcp
Substitution2: "'aalt' Access All Alternates lookup 0 subtable" c.smcp
EndChar
StartChar: d
Encoding: 100 100 152
Width: 1247
GlyphClass: 2
Flags: W
LayerCount: 2
Back
Fore
SplineSet
1124.5 87.5 m 128,-1,1
 1150 45 1150 45 1213 45 c 1,2,-1
 1213 2 l 1,3,4
 1149 8 1149 8 1086 8 c 0,5,6
 874 8 874 8 730 -20 c 1,7,-1
 730 125 l 1,8,9
 688 45 688 45 629 8 c 128,-1,10
 570 -29 570 -29 480 -29 c 0,11,12
 358 -29 358 -29 264 31 c 128,-1,13
 170 91 170 91 116 218 c 128,-1,14
 62 345 62 345 62 539 c 0,15,16
 62 720 62 720 118 844 c 128,-1,17
 174 968 174 968 276 1030 c 128,-1,18
 378 1092 378 1092 517 1092 c 0,19,20
 651 1092 651 1092 730 1040 c 1,21,-1
 730 1356 l 2,22,23
 730 1451 730 1451 704 1493.5 c 128,-1,24
 678 1536 678 1536 615 1536 c 1,25,-1
 615 1579 l 1,26,27
 679 1573 679 1573 742 1573 c 0,28,29
 957 1573 957 1573 1099 1602 c 1,30,-1
 1099 225 l 2,31,0
 1099 130 1099 130 1124.5 87.5 c 128,-1,1
654.5 97 m 128,-1,33
 688 116 688 116 709 149.5 c 128,-1,34
 730 183 730 183 730 225 c 2,35,-1
 730 997 l 1,36,37
 686 1024 686 1024 634 1024 c 0,38,39
 539 1024 539 1024 492 902.5 c 128,-1,40
 445 781 445 781 445 532 c 0,41,42
 445 280 445 280 482 179 c 128,-1,43
 519 78 519 78 583 78 c 0,44,32
 621 78 621 78 654.5 97 c 128,-1,33
EndSplineSet
Substitution2: "'smcp' Lowercase to Small Capitals lookup 24 subtable" d.smcp
Substitution2: "'aalt' Access All Alternates lookup 0 subtable" d.smcp
EndChar
StartChar: e
Encoding: 101 101 156
Width: 1030
GlyphClass: 2
Flags: W
AnchorPoint: "Anchor-5" 537 0 basechar 0
AnchorPoint: "Anchor-4" 571 1053 basechar 0
AnchorPoint: "Anchor-3" 698 0 basechar 0
LayerCount: 2
Back
Fore
SplineSet
929 332 m 1,1,-1
 964 319 l 1,2,3
 935 228 935 228 880 149.5 c 128,-1,4
 825 71 825 71 738 21 c 128,-1,5
 651 -29 651 -29 536 -29 c 0,6,7
 321 -29 321 -29 191.5 104.5 c 128,-1,8
 62 238 62 238 62 530 c 0,9,10
 62 720 62 720 130 846 c 128,-1,11
 198 972 198 972 316.5 1032 c 128,-1,12
 435 1092 435 1092 589 1092 c 0,13,14
 976 1092 976 1092 976 633 c 1,15,-1
 447 633 l 1,16,17
 445 609 445 609 445 559 c 0,18,19
 445 362 445 362 513.5 278.5 c 128,-1,20
 582 195 582 195 681 195 c 0,21,0
 830 195 830 195 929 332 c 1,1,-1
484 956 m 128,-1,23
 450 868 450 868 440 672 c 1,24,-1
 677 672 l 1,25,26
 679 835 679 835 653.5 939.5 c 128,-1,27
 628 1044 628 1044 574 1044 c 0,28,22
 518 1044 518 1044 484 956 c 128,-1,23
EndSplineSet
Substitution2: "'smcp' Lowercase to Small Capitals lookup 24 subtable" e.smcp
Substitution2: "'aalt' Access All Alternates lookup 0 subtable" e.smcp
EndChar
StartChar: f
Encoding: 102 102 166
Width: 748
GlyphClass: 2
Flags: W
LayerCount: 2
Back
Fore
SplineSet
851 1526 m 0,1,2
 883 1500 883 1500 905 1456 c 128,-1,3
 927 1412 927 1412 927 1356 c 0,4,5
 927 1314 927 1314 905 1275.5 c 128,-1,6
 883 1237 883 1237 844 1213.5 c 128,-1,7
 805 1190 805 1190 757 1190 c 0,8,9
 672 1190 672 1190 622 1235 c 128,-1,10
 572 1280 572 1280 572 1360 c 0,11,12
 572 1421 572 1421 608 1470.5 c 128,-1,13
 644 1520 644 1520 714 1542 c 1,14,15
 699 1561 699 1561 658 1561 c 0,16,17
 596 1561 596 1561 562 1522 c 0,18,19
 543 1497 543 1497 533 1454.5 c 128,-1,20
 523 1412 523 1412 523 1335 c 2,21,-1
 523 1061 l 1,22,-1
 742 1061 l 1,23,-1
 742 1020 l 1,24,-1
 523 1020 l 1,25,-1
 523 211 l 2,26,27
 523 116 523 116 566.5 79.5 c 128,-1,28
 610 43 610 43 699 43 c 1,29,-1
 699 0 l 1,30,31
 685 0 685 0 641 2 c 0,32,33
 398 8 398 8 323 8 c 0,34,35
 263 8 263 8 80 2 c 0,36,37
 48 0 48 0 40 0 c 1,38,-1
 40 43 l 1,39,40
 83 43 83 43 108 56 c 128,-1,41
 133 69 133 69 144 101 c 128,-1,42
 155 133 155 133 155 190 c 2,43,-1
 155 1020 l 1,44,-1
 32 1020 l 1,45,-1
 32 1061 l 1,46,-1
 155 1061 l 1,47,48
 155 1183 155 1183 169 1262.5 c 128,-1,49
 183 1342 183 1342 214 1397 c 128,-1,50
 245 1452 245 1452 300 1499 c 0,51,52
 351 1543 351 1543 433.5 1572.5 c 128,-1,53
 516 1602 516 1602 605 1602 c 0,54,0
 752 1602 752 1602 851 1526 c 0,1,2
EndSplineSet
Substitution2: "'smcp' Lowercase to Small Capitals lookup 24 subtable" f.smcp
Substitution2: "'aalt' Access All Alternates lookup 0 subtable" f.smcp
EndChar
StartChar: g
Encoding: 103 103 167
Width: 1147
GlyphClass: 2
Flags: W
AnchorPoint: "Anchor-5" 0 0 basechar 0
AnchorPoint: "Anchor-4" 563 1053 basechar 0
AnchorPoint: "Anchor-3" 0 0 basechar 0
LayerCount: 2
Back
Fore
SplineSet
1044 230.5 m 128,-1,1
 1127 174 1127 174 1127 47 c 0,2,3
 1127 -62 1127 -62 1059 -161 c 128,-1,4
 991 -260 991 -260 854.5 -322.5 c 128,-1,5
 718 -385 718 -385 521 -385 c 0,6,7
 344 -385 344 -385 236.5 -360.5 c 128,-1,8
 129 -336 129 -336 84.5 -298 c 128,-1,9
 40 -260 40 -260 40 -215 c 0,10,11
 40 -176 40 -176 62 -155 c 128,-1,12
 84 -134 84 -134 116.5 -126.5 c 128,-1,13
 149 -119 149 -119 204 -113 c 0,14,15
 273 -105 273 -105 312.5 -94 c 128,-1,16
 352 -83 352 -83 377 -53 c 1,17,-1
 310 -53 l 2,18,19
 258 -53 258 -53 202.5 -35.5 c 128,-1,20
 147 -18 147 -18 106 29.5 c 128,-1,21
 65 77 65 77 65 160 c 0,22,23
 65 228 65 228 90.5 279 c 128,-1,24
 116 330 116 330 173.5 374.5 c 128,-1,25
 231 419 231 419 330 466 c 1,26,27
 212 502 212 502 146.5 576.5 c 128,-1,28
 81 651 81 651 81 764 c 0,29,30
 81 873 81 873 142.5 946.5 c 128,-1,31
 204 1020 204 1020 312 1056 c 128,-1,32
 420 1092 420 1092 562 1092 c 0,33,34
 633 1092 633 1092 685 1084 c 1,35,36
 683 1112 683 1112 683 1126 c 0,37,38
 683 1248 683 1248 740.5 1322.5 c 128,-1,39
 798 1397 798 1397 914 1397 c 0,40,41
 990 1397 990 1397 1040.5 1360.5 c 128,-1,42
 1091 1324 1091 1324 1091 1260 c 0,43,44
 1091 1222 1091 1222 1068.5 1191.5 c 128,-1,45
 1046 1161 1046 1161 1008 1143.5 c 128,-1,46
 970 1126 970 1126 923 1126 c 0,47,48
 853 1126 853 1126 810.5 1152.5 c 128,-1,49
 768 1179 768 1179 740 1233 c 1,50,51
 726 1192 726 1192 726 1126 c 0,52,53
 726 1102 726 1102 729 1078 c 1,54,55
 876 1050 876 1050 959.5 971 c 128,-1,56
 1043 892 1043 892 1043 764 c 0,57,58
 1043 655 1043 655 981.5 581.5 c 128,-1,59
 920 508 920 508 812 472 c 128,-1,60
 704 436 704 436 562 436 c 0,61,62
 459 436 459 436 368 456 c 1,63,64
 325 427 325 427 306.5 406 c 128,-1,65
 288 385 288 385 288 354 c 0,66,67
 288 287 288 287 361 287 c 2,68,-1
 826 287 l 2,69,0
 961 287 961 287 1044 230.5 c 128,-1,1
484.5 988 m 128,-1,71
 458 921 458 921 458 764 c 0,72,73
 458 606 458 606 484.5 539.5 c 128,-1,74
 511 473 511 473 562 473 c 0,75,76
 614 473 614 473 640.5 539.5 c 128,-1,77
 667 606 667 606 667 764 c 256,78,79
 667 922 667 922 640.5 988.5 c 128,-1,80
 614 1055 614 1055 562 1055 c 0,81,70
 511 1055 511 1055 484.5 988 c 128,-1,71
716 -321 m 128,-1,83
 776 -292 776 -292 809.5 -239.5 c 128,-1,84
 843 -187 843 -187 843 -119 c 0,85,86
 843 -86 843 -86 821.5 -69.5 c 128,-1,87
 800 -53 800 -53 749 -53 c 2,88,-1
 418 -53 l 1,89,90
 404 -83 404 -83 398 -121.5 c 128,-1,91
 392 -160 392 -160 392 -186 c 0,92,93
 392 -264 392 -264 439 -307 c 128,-1,94
 486 -350 486 -350 577 -350 c 0,95,82
 656 -350 656 -350 716 -321 c 128,-1,83
EndSplineSet
Substitution2: "'smcp' Lowercase to Small Capitals lookup 24 subtable" g.smcp
Substitution2: "'aalt' Access All Alternates lookup 0 subtable" g.smcp
EndChar
StartChar: h
Encoding: 104 104 173
Width: 1274
GlyphClass: 2
Flags: W
AnchorPoint: "Anchor-5" 0 0 basechar 0
AnchorPoint: "Anchor-4" 305 1581 basechar 0
AnchorPoint: "Anchor-3" 0 0 basechar 0
LayerCount: 2
Back
Fore
SplineSet
845 1092 m 0,1,2
 1008 1092 1008 1092 1076 1010 c 0,3,4
 1107 973 1107 973 1121.5 910.5 c 128,-1,5
 1136 848 1136 848 1136 745 c 2,6,-1
 1136 190 l 2,7,8
 1136 133 1136 133 1147 101 c 128,-1,9
 1158 69 1158 69 1182.5 56 c 128,-1,10
 1207 43 1207 43 1250 43 c 1,11,-1
 1250 0 l 1,12,-1
 1213 1 l 2,13,14
 1066 8 1066 8 964 8 c 0,15,16
 857 8 857 8 710 1 c 2,17,-1
 673 0 l 1,18,-1
 673 43 l 1,19,20
 709 43 709 43 729 56 c 128,-1,21
 749 69 749 69 758 101 c 128,-1,22
 767 133 767 133 767 190 c 2,23,-1
 767 856 l 2,24,25
 767 922 767 922 743 953.5 c 128,-1,26
 719 985 719 985 667 985 c 0,27,28
 629 985 629 985 595 966 c 128,-1,29
 561 947 561 947 540 913.5 c 128,-1,30
 519 880 519 880 519 838 c 2,31,-1
 519 190 l 2,32,33
 519 133 519 133 528 101 c 128,-1,34
 537 69 537 69 557 56 c 128,-1,35
 577 43 577 43 613 43 c 1,36,-1
 613 0 l 1,37,-1
 579 1 l 2,38,39
 444 8 444 8 343 8 c 0,40,41
 235 8 235 8 76 1 c 2,42,-1
 36 0 l 1,43,-1
 36 43 l 1,44,45
 79 43 79 43 104 56 c 128,-1,46
 129 69 129 69 140 101 c 128,-1,47
 151 133 151 133 151 190 c 2,48,-1
 151 1356 l 2,49,50
 151 1451 151 1451 125 1493.5 c 128,-1,51
 99 1536 99 1536 36 1536 c 1,52,-1
 36 1579 l 1,53,54
 100 1573 100 1573 163 1573 c 0,55,56
 378 1573 378 1573 519 1602 c 1,57,-1
 519 938 l 1,58,0
 612 1092 612 1092 845 1092 c 0,1,2
EndSplineSet
Substitution2: "'smcp' Lowercase to Small Capitals lookup 24 subtable" h.smcp
Substitution2: "'aalt' Access All Alternates lookup 0 subtable" h.smcp
EndChar
StartChar: j
Encoding: 106 106 188
Width: 649
GlyphClass: 2
Flags: W
AnchorPoint: "Anchor-5" 0 0 basechar 0
AnchorPoint: "Anchor-4" 340 1053 basechar 0
AnchorPoint: "Anchor-3" 0 0 basechar 0
LayerCount: 2
Back
Fore
SplineSet
495 1557 m 128,-1,1
 553 1512 553 1512 553 1425 c 0,2,3
 553 1339 553 1339 495 1294 c 128,-1,4
 437 1249 437 1249 330 1249 c 0,5,6
 221 1249 221 1249 163.5 1294 c 128,-1,7
 106 1339 106 1339 106 1425 c 0,8,9
 106 1512 106 1512 163.5 1557 c 128,-1,10
 221 1602 221 1602 330 1602 c 0,11,0
 437 1602 437 1602 495 1557 c 128,-1,1
506 -39.5 m 128,-1,13
 492 -121 492 -121 460.5 -178 c 128,-1,14
 429 -235 429 -235 375 -283 c 0,15,16
 257 -385 257 -385 -12 -385 c 0,17,18
 -149 -385 -149 -385 -240 -344 c 0,19,20
 -289 -322 -289 -322 -316.5 -282 c 128,-1,21
 -344 -242 -344 -242 -344 -193 c 0,22,23
 -344 -121 -344 -121 -289 -78 c 128,-1,24
 -234 -35 -234 -35 -143 -35 c 0,25,26
 -57 -35 -57 -35 -8 -73.5 c 128,-1,27
 41 -112 41 -112 41 -186 c 0,28,29
 41 -234 41 -234 11.5 -276 c 128,-1,30
 -18 -318 -18 -318 -78 -340 c 1,31,32
 -40 -344 -40 -344 -23 -344 c 0,33,34
 21 -344 21 -344 58 -327 c 128,-1,35
 95 -310 95 -310 115 -279 c 0,36,37
 133 -249 133 -249 141 -199 c 128,-1,38
 149 -149 149 -149 150.5 -74.5 c 128,-1,39
 152 0 152 0 152 164 c 2,40,-1
 152 840 l 2,41,42
 152 935 152 935 126 977.5 c 128,-1,43
 100 1020 100 1020 37 1020 c 1,44,-1
 37 1063 l 1,45,46
 101 1057 101 1057 164 1057 c 0,47,48
 377 1057 377 1057 520 1085 c 1,49,-1
 520 164 l 2,50,12
 520 42 520 42 506 -39.5 c 128,-1,13
EndSplineSet
Substitution2: "'smcp' Lowercase to Small Capitals lookup 24 subtable" j.smcp
Substitution2: "'aalt' Access All Alternates lookup 0 subtable" j.smcp
EndChar
StartChar: k
Encoding: 107 107 191
Width: 1247
GlyphClass: 2
Flags: W
AnchorPoint: "Anchor-5" 715 0 basechar 0
AnchorPoint: "Anchor-4" 440 1602 basechar 0
AnchorPoint: "Anchor-3" 0 0 basechar 0
LayerCount: 2
Back
Fore
SplineSet
1178 132 m 2,0,1
 1196 97 1196 97 1212 75.5 c 128,-1,2
 1228 54 1228 54 1250 43 c 1,3,-1
 1250 0 l 1,4,-1
 1219 1 l 2,5,6
 1093 8 1093 8 1003 8 c 0,7,8
 898 8 898 8 751 1 c 2,9,-1
 714 0 l 1,10,-1
 714 43 l 1,11,12
 773 43 773 43 773 81 c 0,13,14
 773 94 773 94 765 113 c 2,15,-1
 585 494 l 2,16,17
 563 536 563 536 519 539 c 1,18,-1
 519 190 l 2,19,20
 519 133 519 133 530 101 c 128,-1,21
 541 69 541 69 566 56 c 128,-1,22
 591 43 591 43 634 43 c 1,23,-1
 634 0 l 1,24,-1
 597 1 l 2,25,26
 450 8 450 8 343 8 c 0,27,28
 235 8 235 8 76 1 c 2,29,-1
 36 0 l 1,30,-1
 36 43 l 1,31,32
 79 43 79 43 104 56 c 128,-1,33
 129 69 129 69 140 101 c 128,-1,34
 151 133 151 133 151 190 c 2,35,-1
 151 1356 l 2,36,37
 151 1451 151 1451 125 1493.5 c 128,-1,38
 99 1536 99 1536 36 1536 c 1,39,-1
 36 1579 l 1,40,41
 100 1573 100 1573 163 1573 c 0,42,43
 378 1573 378 1573 519 1602 c 1,44,-1
 519 578 l 1,45,46
 579 580 579 580 607 608 c 2,47,-1
 765 756 l 2,48,49
 837 824 837 824 837 889 c 0,50,51
 837 942 837 942 790.5 979 c 128,-1,52
 744 1016 744 1016 673 1022 c 1,53,-1
 673 1063 l 1,54,55
 790 1057 790 1057 919 1057 c 0,56,57
 1119 1057 1119 1057 1199 1063 c 1,58,-1
 1199 1022 l 1,59,60
 1056 983 1056 983 896 821 c 2,61,-1
 843 769 l 1,62,-1
 1168 150 l 1,63,-1
 1178 132 l 2,0,1
EndSplineSet
Substitution2: "'smcp' Lowercase to Small Capitals lookup 24 subtable" k.smcp
Substitution2: "'aalt' Access All Alternates lookup 0 subtable" k.smcp
EndChar
StartChar: l
Encoding: 108 108 194
Width: 672
GlyphClass: 2
Flags: W
AnchorPoint: "Anchor-5" 332 0 basechar 0
AnchorPoint: "Anchor-4" 332 1581 basechar 0
AnchorPoint: "Anchor-3" 0 0 basechar 0
LayerCount: 2
Back
Fore
SplineSet
530 101 m 128,-1,1
 541 69 541 69 566 56 c 128,-1,2
 591 43 591 43 634 43 c 1,3,-1
 634 0 l 1,4,-1
 597 1 l 2,5,6
 450 8 450 8 343 8 c 0,7,8
 235 8 235 8 76 1 c 2,9,-1
 36 0 l 1,10,-1
 36 43 l 1,11,12
 79 43 79 43 104 56 c 128,-1,13
 129 69 129 69 140 101 c 128,-1,14
 151 133 151 133 151 190 c 2,15,-1
 151 1356 l 2,16,17
 151 1451 151 1451 125 1493.5 c 128,-1,18
 99 1536 99 1536 36 1536 c 1,19,-1
 36 1579 l 1,20,21
 100 1573 100 1573 163 1573 c 0,22,23
 378 1573 378 1573 519 1602 c 1,24,-1
 519 190 l 2,25,0
 519 133 519 133 530 101 c 128,-1,1
EndSplineSet
Substitution2: "'smcp' Lowercase to Small Capitals lookup 24 subtable" l.smcp
Substitution2: "'aalt' Access All Alternates lookup 0 subtable" l.smcp
EndChar
StartChar: m
Encoding: 109 109 200
Width: 1876
GlyphClass: 2
Flags: W
LayerCount: 2
Back
Fore
SplineSet
1749 101 m 128,-1,1
 1760 69 1760 69 1784.5 56 c 128,-1,2
 1809 43 1809 43 1852 43 c 1,3,-1
 1852 0 l 1,4,-1
 1815 1 l 2,5,6
 1668 8 1668 8 1566 8 c 0,7,8
 1508 8 1508 8 1331 2 c 0,9,10
 1303 0 1303 0 1295 0 c 1,11,-1
 1295 43 l 1,12,13
 1324 43 1324 43 1339.5 56 c 128,-1,14
 1355 69 1355 69 1362 100.5 c 128,-1,15
 1369 132 1369 132 1369 190 c 2,16,-1
 1369 856 l 2,17,18
 1369 922 1369 922 1345 953.5 c 128,-1,19
 1321 985 1321 985 1269 985 c 0,20,21
 1234 985 1234 985 1201 964 c 128,-1,22
 1168 943 1168 943 1145.5 908 c 128,-1,23
 1123 873 1123 873 1118 834 c 1,24,25
 1121 795 1121 795 1121 745 c 2,26,-1
 1121 190 l 2,27,28
 1121 132 1121 132 1130 100.5 c 128,-1,29
 1139 69 1139 69 1159 56 c 128,-1,30
 1179 43 1179 43 1216 43 c 1,31,-1
 1216 0 l 1,32,33
 1208 0 1208 0 1180 2 c 0,34,35
 1000 8 1000 8 949 8 c 0,36,37
 848 8 848 8 713 1 c 2,38,-1
 679 0 l 1,39,-1
 679 43 l 1,40,41
 706 43 706 43 722 56 c 128,-1,42
 738 69 738 69 745.5 101 c 128,-1,43
 753 133 753 133 753 190 c 2,44,-1
 753 856 l 2,45,46
 753 922 753 922 734 953.5 c 128,-1,47
 715 985 715 985 673 985 c 0,48,49
 635 985 635 985 601 966 c 128,-1,50
 567 947 567 947 546 913.5 c 128,-1,51
 525 880 525 880 525 838 c 2,52,-1
 525 190 l 2,53,54
 525 132 525 132 532 100.5 c 128,-1,55
 539 69 539 69 555 56 c 128,-1,56
 571 43 571 43 599 43 c 1,57,-1
 599 0 l 1,58,-1
 568 1 l 2,59,60
 442 8 442 8 349 8 c 0,61,62
 241 8 241 8 82 1 c 2,63,-1
 42 0 l 1,64,-1
 42 43 l 1,65,66
 85 43 85 43 110 56 c 128,-1,67
 135 69 135 69 146 101 c 128,-1,68
 157 133 157 133 157 190 c 2,69,-1
 157 840 l 2,70,71
 157 935 157 935 131 977.5 c 128,-1,72
 105 1020 105 1020 42 1020 c 1,73,-1
 42 1063 l 1,74,75
 106 1057 106 1057 169 1057 c 0,76,77
 382 1057 382 1057 525 1085 c 1,78,-1
 525 938 l 1,79,80
 613 1092 613 1092 830 1092 c 0,81,82
 994 1092 994 1092 1062 1010 c 0,83,84
 1093 973 1093 973 1106 914 c 1,85,86
 1159 1012 1159 1012 1244 1052 c 128,-1,87
 1329 1092 1329 1092 1447 1092 c 0,88,89
 1610 1092 1610 1092 1678 1010 c 0,90,91
 1709 973 1709 973 1723.5 910.5 c 128,-1,92
 1738 848 1738 848 1738 745 c 2,93,-1
 1738 190 l 2,94,0
 1738 133 1738 133 1749 101 c 128,-1,1
EndSplineSet
Substitution2: "'smcp' Lowercase to Small Capitals lookup 24 subtable" m.smcp
Substitution2: "'aalt' Access All Alternates lookup 0 subtable" m.smcp
EndChar
StartChar: n
Encoding: 110 110 201
Width: 1280
GlyphClass: 2
Flags: W
AnchorPoint: "Anchor-5" 672 0 basechar 0
AnchorPoint: "Anchor-4" 651 1053 basechar 0
AnchorPoint: "Anchor-3" 0 0 basechar 0
LayerCount: 2
Back
Fore
SplineSet
1082 1010 m 0,1,2
 1113 973 1113 973 1127.5 910.5 c 128,-1,3
 1142 848 1142 848 1142 745 c 2,4,-1
 1142 190 l 2,5,6
 1142 133 1142 133 1153 101 c 128,-1,7
 1164 69 1164 69 1188.5 56 c 128,-1,8
 1213 43 1213 43 1256 43 c 1,9,-1
 1256 0 l 1,10,-1
 1219 1 l 2,11,12
 1072 8 1072 8 970 8 c 0,13,14
 863 8 863 8 716 1 c 2,15,-1
 679 0 l 1,16,-1
 679 43 l 1,17,18
 715 43 715 43 735 56 c 128,-1,19
 755 69 755 69 764 100.5 c 128,-1,20
 773 132 773 132 773 190 c 2,21,-1
 773 856 l 2,22,23
 773 922 773 922 749 953.5 c 128,-1,24
 725 985 725 985 673 985 c 0,25,26
 635 985 635 985 601 966 c 128,-1,27
 567 947 567 947 546 913.5 c 128,-1,28
 525 880 525 880 525 838 c 2,29,-1
 525 190 l 2,30,31
 525 133 525 133 534 101 c 128,-1,32
 543 69 543 69 563.5 56 c 128,-1,33
 584 43 584 43 620 43 c 1,34,-1
 620 0 l 1,35,36
 612 0 612 0 584 2 c 0,37,38
 407 8 407 8 349 8 c 0,39,40
 241 8 241 8 82 1 c 2,41,-1
 42 0 l 1,42,-1
 42 43 l 1,43,44
 85 43 85 43 110 56 c 128,-1,45
 135 69 135 69 146 101 c 128,-1,46
 157 133 157 133 157 190 c 2,47,-1
 157 840 l 2,48,49
 157 935 157 935 131 977.5 c 128,-1,50
 105 1020 105 1020 42 1020 c 1,51,-1
 42 1063 l 1,52,53
 107 1057 107 1057 169 1057 c 0,54,55
 382 1057 382 1057 525 1085 c 1,56,-1
 525 938 l 1,57,58
 618 1092 618 1092 851 1092 c 0,59,0
 1014 1092 1014 1092 1082 1010 c 0,1,2
EndSplineSet
Substitution2: "'smcp' Lowercase to Small Capitals lookup 24 subtable" n.smcp
Substitution2: "'aalt' Access All Alternates lookup 0 subtable" n.smcp
EndChar
StartChar: o
Encoding: 111 111 208
Width: 1180
GlyphClass: 2
Flags: W
AnchorPoint: "Anchor-5" 590 0 basechar 0
AnchorPoint: "Anchor-4" 590 1053 basechar 0
AnchorPoint: "Anchor-3" 0 0 basechar 0
LayerCount: 2
Back
Fore
SplineSet
978 959.5 m 128,-1,1
 1115 827 1115 827 1115 530 c 0,2,3
 1115 234 1115 234 978 102.5 c 128,-1,4
 841 -29 841 -29 589 -29 c 0,5,6
 336 -29 336 -29 199 102.5 c 128,-1,7
 62 234 62 234 62 530 c 0,8,9
 62 827 62 827 199.5 959.5 c 128,-1,10
 337 1092 337 1092 589 1092 c 256,11,0
 841 1092 841 1092 978 959.5 c 128,-1,1
484.5 922 m 128,-1,13
 445 793 445 793 445 530 c 0,14,15
 445 268 445 268 484.5 140 c 128,-1,16
 524 12 524 12 589 12 c 256,17,18
 654 12 654 12 693 140 c 128,-1,19
 732 268 732 268 732 530 c 0,20,21
 732 793 732 793 693 922 c 128,-1,22
 654 1051 654 1051 589 1051 c 256,23,12
 524 1051 524 1051 484.5 922 c 128,-1,13
EndSplineSet
Substitution2: "Single Substitution lookup 29 subtable" ordmasculine
Substitution2: "'smcp' Lowercase to Small Capitals lookup 24 subtable" o.smcp
AlternateSubs2: "'aalt' Access All Alternates lookup 1 subtable" ordmasculine o.smcp
EndChar
StartChar: p
Encoding: 112 112 219
Width: 1253
GlyphClass: 2
Flags: W
LayerCount: 2
Back
Fore
SplineSet
1014.5 1035 m 128,-1,1
 1095 978 1095 978 1141 862.5 c 128,-1,2
 1187 747 1187 747 1187 578 c 0,3,4
 1187 253 1187 253 1055.5 112 c 128,-1,5
 924 -29 924 -29 710 -29 c 0,6,7
 589 -29 589 -29 519 10 c 1,8,-1
 519 -160 l 2,9,10
 519 -255 519 -255 562.5 -291.5 c 128,-1,11
 606 -328 606 -328 695 -328 c 1,12,-1
 695 -371 l 1,13,-1
 625 -369 l 2,14,15
 436 -362 436 -362 318 -362 c 0,16,17
 231 -362 231 -362 86 -369 c 0,18,19
 48 -371 48 -371 36 -371 c 1,20,-1
 36 -328 l 1,21,22
 79 -328 79 -328 104 -315 c 128,-1,23
 129 -302 129 -302 140 -270 c 128,-1,24
 151 -238 151 -238 151 -180 c 2,25,-1
 151 838 l 2,26,27
 151 933 151 933 125 975.5 c 128,-1,28
 99 1018 99 1018 36 1018 c 1,29,-1
 36 1061 l 1,30,31
 100 1055 100 1055 163 1055 c 0,32,33
 376 1055 376 1055 519 1083 c 1,34,-1
 519 938 l 1,35,36
 614 1092 614 1092 830 1092 c 0,37,0
 934 1092 934 1092 1014.5 1035 c 128,-1,1
753.5 155.5 m 128,-1,39
 804 278 804 278 804 530 c 0,40,41
 804 783 804 783 767 884 c 128,-1,42
 730 985 730 985 667 985 c 0,43,44
 629 985 629 985 595 966 c 128,-1,45
 561 947 561 947 540 913.5 c 128,-1,46
 519 880 519 880 519 838 c 2,47,-1
 519 50 l 1,48,49
 546 33 546 33 591 33 c 0,50,38
 703 33 703 33 753.5 155.5 c 128,-1,39
EndSplineSet
Substitution2: "'smcp' Lowercase to Small Capitals lookup 24 subtable" p.smcp
Substitution2: "'aalt' Access All Alternates lookup 0 subtable" p.smcp
EndChar
StartChar: q
Encoding: 113 113 221
Width: 1229
GlyphClass: 2
Flags: W
LayerCount: 2
Back
Fore
SplineSet
1110 -270 m 128,-1,1
 1121 -302 1121 -302 1145.5 -315 c 128,-1,2
 1170 -328 1170 -328 1213 -328 c 1,3,-1
 1213 -371 l 1,4,5
 1201 -371 1201 -371 1163 -369 c 0,6,7
 1018 -362 1018 -362 931 -362 c 0,8,9
 815 -362 815 -362 626 -369 c 2,10,-1
 554 -371 l 1,11,-1
 554 -328 l 1,12,13
 643 -328 643 -328 686.5 -291.5 c 128,-1,14
 730 -255 730 -255 730 -160 c 2,15,-1
 730 125 l 1,16,17
 688 45 688 45 629 8 c 128,-1,18
 570 -29 570 -29 480 -29 c 0,19,20
 358 -29 358 -29 264 31 c 128,-1,21
 170 91 170 91 116 218 c 128,-1,22
 62 345 62 345 62 539 c 0,23,24
 62 720 62 720 118 844 c 128,-1,25
 174 968 174 968 276 1030 c 128,-1,26
 378 1092 378 1092 517 1092 c 0,27,28
 592 1092 592 1092 646 1085.5 c 128,-1,29
 700 1079 700 1079 748 1058 c 1,30,31
 813 1036 813 1036 884 1036 c 0,32,33
 947 1036 947 1036 1001.5 1052.5 c 128,-1,34
 1056 1069 1056 1069 1084 1096 c 1,35,-1
 1113 1075 l 1,36,37
 1099 1032 1099 1032 1099 963 c 2,38,-1
 1099 -180 l 2,39,0
 1099 -238 1099 -238 1110 -270 c 128,-1,1
654.5 97 m 128,-1,41
 688 116 688 116 709 149.5 c 128,-1,42
 730 183 730 183 730 225 c 2,43,-1
 730 1028 l 1,44,45
 685 1051 685 1051 634 1051 c 0,46,47
 445 1051 445 1051 445 532 c 0,48,49
 445 280 445 280 482 179 c 128,-1,50
 519 78 519 78 583 78 c 0,51,40
 621 78 621 78 654.5 97 c 128,-1,41
EndSplineSet
Substitution2: "'smcp' Lowercase to Small Capitals lookup 24 subtable" q.smcp
Substitution2: "'aalt' Access All Alternates lookup 0 subtable" q.smcp
EndChar
StartChar: r
Encoding: 114 114 222
Width: 985
GlyphClass: 2
Flags: W
AnchorPoint: "Anchor-5" 356 0 basechar 0
AnchorPoint: "Anchor-4" 489 1053 basechar 0
AnchorPoint: "Anchor-3" 0 0 basechar 0
LayerCount: 2
Back
Fore
SplineSet
934 1030.5 m 128,-1,1
 978 969 978 969 978 885 c 0,2,3
 978 793 978 793 926.5 738.5 c 128,-1,4
 875 684 875 684 790 684 c 0,5,6
 701 684 701 684 654 723.5 c 128,-1,7
 607 763 607 763 607 831 c 0,8,9
 607 953 607 953 712 1022 c 1,10,11
 675 1022 675 1022 646 1008 c 0,12,13
 594 986 594 986 559.5 935.5 c 128,-1,14
 525 885 525 885 525 825 c 2,15,-1
 525 211 l 2,16,17
 525 146 525 146 543 109.5 c 128,-1,18
 561 73 561 73 599 58 c 128,-1,19
 637 43 637 43 701 43 c 1,20,-1
 701 0 l 1,21,-1
 658 1 l 2,22,23
 490 8 490 8 370 8 c 0,24,25
 254 8 254 8 84 1 c 2,26,-1
 42 0 l 1,27,-1
 42 43 l 1,28,29
 85 43 85 43 110 56 c 128,-1,30
 135 69 135 69 146 101 c 128,-1,31
 157 133 157 133 157 190 c 2,32,-1
 157 840 l 2,33,34
 157 935 157 935 131 977.5 c 128,-1,35
 105 1020 105 1020 42 1020 c 1,36,-1
 42 1063 l 1,37,38
 107 1057 107 1057 169 1057 c 0,39,40
 382 1057 382 1057 525 1085 c 1,41,-1
 525 938 l 1,42,43
 605 1092 605 1092 790 1092 c 0,44,0
 890 1092 890 1092 934 1030.5 c 128,-1,1
EndSplineSet
Substitution2: "'smcp' Lowercase to Small Capitals lookup 24 subtable" r.smcp
Substitution2: "'aalt' Access All Alternates lookup 0 subtable" r.smcp
EndChar
StartChar: s
Encoding: 115 115 226
Width: 967
GlyphClass: 2
Flags: W
AnchorPoint: "Anchor-5" 483 0 basechar 0
AnchorPoint: "Anchor-4" 483 1053 basechar 0
AnchorPoint: "Anchor-3" 0 0 basechar 0
LayerCount: 2
Back
Fore
SplineSet
622.5 1074.5 m 128,-1,1
 692 1057 692 1057 730 1036 c 0,2,3
 751 1024 751 1024 767 1024 c 0,4,5
 808 1024 808 1024 818 1090 c 1,6,-1
 859 1090 l 1,7,8
 851 983 851 983 851 721 c 1,9,-1
 810 721 l 1,10,11
 794 855 794 855 733.5 948.5 c 128,-1,12
 673 1042 673 1042 558 1042 c 0,13,14
 506 1042 506 1042 471.5 1011 c 128,-1,15
 437 980 437 980 437 928 c 0,16,17
 437 880 437 880 461.5 838.5 c 128,-1,18
 486 797 486 797 522 764 c 128,-1,19
 558 731 558 731 624 679 c 0,20,21
 664 649 664 649 683 633 c 0,22,23
 759 570 759 570 804 524 c 128,-1,24
 849 478 849 478 876.5 419.5 c 128,-1,25
 904 361 904 361 904 287 c 0,26,27
 904 196 904 196 848.5 123.5 c 128,-1,28
 793 51 793 51 698.5 11 c 128,-1,29
 604 -29 604 -29 491 -29 c 0,30,31
 363 -29 363 -29 280 23 c 1,32,33
 214 57 214 57 177 57 c 0,34,35
 138 57 138 57 120 -14 c 1,36,-1
 79 -14 l 1,37,38
 87 103 87 103 87 395 c 1,39,-1
 128 395 l 1,40,41
 141 285 141 285 176.5 201 c 128,-1,42
 212 117 212 117 268.5 70 c 128,-1,43
 325 23 325 23 398 23 c 0,44,45
 450 23 450 23 483.5 51.5 c 128,-1,46
 517 80 517 80 517 135 c 0,47,48
 517 189 517 189 495.5 233 c 128,-1,49
 474 277 474 277 440.5 313.5 c 128,-1,50
 407 350 407 350 343 408 c 2,51,-1
 327 422 l 2,52,53
 317 432 317 432 311 436 c 0,54,55
 234 507 234 507 190 555 c 128,-1,56
 146 603 146 603 116.5 663.5 c 128,-1,57
 87 724 87 724 87 797 c 0,58,59
 87 885 87 885 140 952 c 128,-1,60
 193 1019 193 1019 281 1055.5 c 128,-1,61
 369 1092 369 1092 472 1092 c 0,62,0
 553 1092 553 1092 622.5 1074.5 c 128,-1,1
EndSplineSet
Substitution2: "'smcp' Lowercase to Small Capitals lookup 24 subtable" s.smcp
Substitution2: "'aalt' Access All Alternates lookup 0 subtable" s.smcp
EndChar
StartChar: t
Encoding: 116 116 233
Width: 717
GlyphClass: 2
Flags: W
AnchorPoint: "Anchor-5" 442 0 basechar 0
AnchorPoint: "Anchor-4" 346 1053 basechar 0
AnchorPoint: "Anchor-3" 0 0 basechar 0
LayerCount: 2
Back
Fore
SplineSet
717 1061 m 1,0,-1
 717 1020 l 1,1,-1
 516 1020 l 1,2,-1
 516 172 l 2,3,4
 516 132 516 132 530 115 c 128,-1,5
 544 98 544 98 578 98 c 0,6,7
 603 98 603 98 633 112.5 c 128,-1,8
 663 127 663 127 688 158 c 1,9,-1
 719 133 l 1,10,11
 625 -29 625 -29 428 -29 c 0,12,13
 287 -29 287 -29 217 41 c 0,14,15
 175 83 175 83 161 147 c 128,-1,16
 147 211 147 211 147 326 c 2,17,-1
 147 1020 l 1,18,-1
 -8 1020 l 1,19,-1
 -8 1061 l 1,20,-1
 147 1061 l 1,21,-1
 147 1305 l 1,22,23
 258 1305 258 1305 347 1326.5 c 128,-1,24
 436 1348 436 1348 516 1395 c 1,25,-1
 516 1061 l 1,26,-1
 717 1061 l 1,0,-1
EndSplineSet
Substitution2: "'smcp' Lowercase to Small Capitals lookup 24 subtable" t.smcp
Substitution2: "'aalt' Access All Alternates lookup 0 subtable" t.smcp
EndChar
StartChar: u
Encoding: 117 117 238
Width: 1274
GlyphClass: 2
Flags: W
AnchorPoint: "Anchor-5" 662 0 basechar 0
AnchorPoint: "Anchor-4" 604 1053 basechar 0
AnchorPoint: "Anchor-3" 1174 0 basechar 0
LayerCount: 2
Back
Fore
SplineSet
1147 85.5 m 128,-1,1
 1173 43 1173 43 1236 43 c 1,2,-1
 1236 0 l 1,3,4
 1172 6 1172 6 1109 6 c 0,5,6
 894 6 894 6 753 -23 c 1,7,-1
 753 125 l 1,8,9
 660 -29 660 -29 427 -29 c 0,10,11
 264 -29 264 -29 196 53 c 0,12,13
 165 90 165 90 150.5 152 c 128,-1,14
 136 214 136 214 136 317 c 2,15,-1
 136 840 l 2,16,17
 136 935 136 935 110.5 977.5 c 128,-1,18
 85 1020 85 1020 22 1020 c 1,19,-1
 22 1063 l 1,20,21
 86 1057 86 1057 149 1057 c 0,22,23
 361 1057 361 1057 505 1085 c 1,24,-1
 505 207 l 2,25,26
 505 141 505 141 529 109.5 c 128,-1,27
 553 78 553 78 605 78 c 0,28,29
 643 78 643 78 677 97 c 128,-1,30
 711 116 711 116 732 149.5 c 128,-1,31
 753 183 753 183 753 225 c 2,32,-1
 753 840 l 2,33,34
 753 935 753 935 727 977.5 c 128,-1,35
 701 1020 701 1020 638 1020 c 1,36,-1
 638 1063 l 1,37,38
 702 1057 702 1057 765 1057 c 0,39,40
 978 1057 978 1057 1121 1085 c 1,41,-1
 1121 223 l 2,42,0
 1121 128 1121 128 1147 85.5 c 128,-1,1
EndSplineSet
Substitution2: "'smcp' Lowercase to Small Capitals lookup 24 subtable" u.smcp
Substitution2: "'aalt' Access All Alternates lookup 0 subtable" u.smcp
EndChar
StartChar: v
Encoding: 118 118 249
Width: 1065
GlyphClass: 2
Flags: W
LayerCount: 2
Back
Fore
SplineSet
1067 1063 m 1,1,-1
 1067 1020 l 1,2,3
 1025 1004 1025 1004 989.5 959 c 128,-1,4
 954 914 954 914 922 821 c 2,5,-1
 645 0 l 1,6,7
 592 5 592 5 546 5 c 0,8,9
 501 5 501 5 446 0 c 1,10,-1
 90 905 l 2,11,12
 45 1020 45 1020 -29 1020 c 1,13,-1
 -29 1063 l 1,14,15
 135 1051 135 1051 336 1051 c 0,16,17
 438 1051 438 1051 602 1063 c 1,18,-1
 602 1020 l 1,19,20
 558 1020 558 1020 536 1018 c 128,-1,21
 514 1016 514 1016 499 1004.5 c 128,-1,22
 484 993 484 993 484 968 c 0,23,24
 484 957 484 957 487 942 c 2,25,-1
 710 322 l 1,26,-1
 805 604 l 2,27,28
 844 720 844 720 844 814 c 0,29,30
 844 910 844 910 802.5 962.5 c 128,-1,31
 761 1015 761 1015 694 1020 c 1,32,-1
 694 1063 l 1,33,34
 771 1055 771 1055 909 1055 c 0,35,0
 1026 1055 1026 1055 1067 1063 c 1,1,-1
EndSplineSet
Substitution2: "'smcp' Lowercase to Small Capitals lookup 24 subtable" v.smcp
Substitution2: "'aalt' Access All Alternates lookup 0 subtable" v.smcp
EndChar
StartChar: w
Encoding: 119 119 250
Width: 1634
GlyphClass: 2
Flags: W
AnchorPoint: "Anchor-5" 0 0 basechar 0
AnchorPoint: "Anchor-4" 842 1053 basechar 0
AnchorPoint: "Anchor-3" 0 0 basechar 0
LayerCount: 2
Back
Fore
SplineSet
1640 1063 m 1,1,-1
 1640 1020 l 1,2,3
 1596 1004 1596 1004 1560.5 959.5 c 128,-1,4
 1525 915 1525 915 1495 821 c 2,5,-1
 1239 0 l 1,6,7
 1186 5 1186 5 1140 5 c 0,8,9
 1095 5 1095 5 1040 0 c 1,10,-1
 796 708 l 1,11,-1
 610 0 l 1,12,13
 557 5 557 5 511 5 c 0,14,15
 467 5 467 5 412 0 c 1,16,-1
 96 905 l 2,17,18
 70 977 70 977 39.5 998.5 c 128,-1,19
 9 1020 9 1020 -23 1020 c 1,20,-1
 -23 1063 l 1,21,22
 141 1051 141 1051 342 1051 c 0,23,24
 444 1051 444 1051 608 1063 c 1,25,-1
 608 1020 l 1,26,27
 545 1020 545 1020 517.5 1010.5 c 128,-1,28
 490 1001 490 1001 490 970 c 0,29,30
 490 957 490 957 494 942 c 2,31,-1
 664 375 l 1,32,-1
 840 1061 l 1,33,-1
 842 1061 l 1,34,35
 885 1057 885 1057 940 1057 c 0,36,37
 981 1057 981 1057 1059 1061 c 1,38,-1
 1292 312 l 1,39,-1
 1380 604 l 2,40,41
 1413 714 1413 714 1413 801 c 0,42,43
 1413 904 1413 904 1367.5 958.5 c 128,-1,44
 1322 1013 1322 1013 1247 1020 c 1,45,-1
 1247 1063 l 1,46,47
 1324 1055 1324 1055 1483 1055 c 0,48,0
 1600 1055 1600 1055 1640 1063 c 1,1,-1
EndSplineSet
Substitution2: "'smcp' Lowercase to Small Capitals lookup 24 subtable" w.smcp
Substitution2: "'aalt' Access All Alternates lookup 0 subtable" w.smcp
EndChar
StartChar: x
Encoding: 120 120 255
Width: 1120
GlyphClass: 2
Flags: W
AnchorPoint: "Anchor-5" 582 0 basechar 0
AnchorPoint: "Anchor-4" 594 1053 basechar 0
AnchorPoint: "Anchor-3" 0 0 basechar 0
LayerCount: 2
Back
Fore
SplineSet
1056.5 111 m 128,-1,1
 1076 84 1076 84 1097.5 65.5 c 128,-1,2
 1119 47 1119 47 1139 43 c 1,3,-1
 1139 0 l 1,4,5
 1131 0 1131 0 1103 2 c 0,6,7
 926 8 926 8 870 8 c 0,8,9
 811 8 811 8 628 2 c 0,10,11
 596 0 596 0 588 0 c 1,12,-1
 588 43 l 1,13,14
 617 43 617 43 633.5 53 c 128,-1,15
 650 63 650 63 650 80 c 256,16,17
 650 97 650 97 639 113 c 2,18,-1
 438 416 l 1,19,-1
 420 393 l 2,20,21
 343 294 343 294 343 202 c 0,22,23
 343 135 343 135 383 90.5 c 128,-1,24
 423 46 423 46 489 41 c 1,25,-1
 489 0 l 1,26,27
 365 6 365 6 156 6 c 0,28,29
 74 6 74 6 18 0 c 1,30,-1
 18 41 l 1,31,32
 69 66 69 66 113.5 105.5 c 128,-1,33
 158 145 158 145 211 209 c 2,34,-1
 417 447 l 1,35,-1
 104 918 l 2,36,37
 72 968 72 968 49.5 991 c 128,-1,38
 27 1014 27 1014 -2 1020 c 1,39,-1
 -2 1063 l 1,40,-1
 38 1062 l 2,41,42
 194 1055 194 1055 307 1055 c 0,43,44
 356 1055 356 1055 515 1061 c 0,45,46
 541 1063 541 1063 549 1063 c 1,47,-1
 549 1020 l 1,48,49
 520 1020 520 1020 503.5 1010 c 128,-1,50
 487 1000 487 1000 487 983 c 0,51,52
 487 967 487 967 498 950 c 2,53,-1
 676 681 l 1,54,-1
 711 723 l 2,55,56
 787 815 787 815 787 897 c 0,57,58
 787 950 787 950 753 983.5 c 128,-1,59
 719 1017 719 1017 657 1022 c 1,60,-1
 657 1063 l 1,61,62
 783 1057 783 1057 930 1057 c 0,63,64
 1012 1057 1012 1057 1067 1063 c 1,65,-1
 1067 1022 l 1,66,67
 982 984 982 984 874 854 c 2,68,-1
 697 649 l 1,69,-1
 1032 145 l 2,70,0
 1037 138 1037 138 1056.5 111 c 128,-1,1
EndSplineSet
Substitution2: "'smcp' Lowercase to Small Capitals lookup 24 subtable" x.smcp
Substitution2: "'aalt' Access All Alternates lookup 0 subtable" x.smcp
EndChar
StartChar: y
Encoding: 121 121 256
Width: 1083
GlyphClass: 2
Flags: W
AnchorPoint: "Anchor-5" 0 0 basechar 0
AnchorPoint: "Anchor-4" 532 1053 basechar 0
AnchorPoint: "Anchor-3" 0 0 basechar 0
LayerCount: 2
Back
Fore
SplineSet
1075 1063 m 1,1,-1
 1075 1020 l 1,2,3
 1033 1004 1033 1004 997.5 959 c 128,-1,4
 962 914 962 914 930 821 c 2,5,-1
 674 59 l 1,6,-1
 588 -188 l 2,7,8
 550 -295 550 -295 498 -336 c 0,9,10
 435 -385 435 -385 307 -385 c 0,11,12
 244 -385 244 -385 180 -365.5 c 128,-1,13
 116 -346 116 -346 72.5 -303 c 128,-1,14
 29 -260 29 -260 29 -193 c 0,15,16
 29 -121 29 -121 83.5 -78 c 128,-1,17
 138 -35 138 -35 229 -35 c 0,18,19
 316 -35 316 -35 365 -73.5 c 128,-1,20
 414 -112 414 -112 414 -186 c 0,21,22
 414 -235 414 -235 380 -279 c 128,-1,23
 346 -323 346 -323 281 -344 c 1,24,25
 301 -348 301 -348 350 -348 c 0,26,27
 491 -348 491 -348 545 -184 c 2,28,-1
 556 -151 l 1,29,-1
 78 905 l 2,30,31
 47 975 47 975 17.5 997.5 c 128,-1,32
 -12 1020 -12 1020 -41 1020 c 1,33,-1
 -41 1063 l 1,34,35
 122 1051 122 1051 293 1051 c 0,36,37
 426 1051 426 1051 590 1063 c 1,38,-1
 590 1020 l 1,39,40
 529 1020 529 1020 498 1012 c 128,-1,41
 467 1004 467 1004 467 974 c 0,42,43
 467 959 467 959 475 942 c 2,44,-1
 728 342 l 1,45,-1
 813 604 l 2,46,47
 852 720 852 720 852 814 c 0,48,49
 852 910 852 910 810.5 962.5 c 128,-1,50
 769 1015 769 1015 702 1020 c 1,51,-1
 702 1063 l 1,52,53
 779 1055 779 1055 918 1055 c 0,54,0
 1034 1055 1034 1055 1075 1063 c 1,1,-1
EndSplineSet
Substitution2: "'smcp' Lowercase to Small Capitals lookup 24 subtable" y.smcp
Substitution2: "'aalt' Access All Alternates lookup 0 subtable" y.smcp
EndChar
StartChar: z
Encoding: 122 122 261
Width: 967
GlyphClass: 2
Flags: W
AnchorPoint: "Anchor-5" 492 0 basechar 0
AnchorPoint: "Anchor-4" 516 1053 basechar 0
AnchorPoint: "Anchor-3" 0 0 basechar 0
LayerCount: 2
Back
Fore
SplineSet
484 31 m 2,0,1
 569 31 569 31 645 68 c 128,-1,2
 721 105 721 105 774.5 192 c 128,-1,3
 828 279 828 279 839 422 c 1,4,-1
 880 422 l 1,5,6
 880 115 880 115 888 -8 c 1,7,8
 719 0 719 0 486 0 c 0,9,10
 280 0 280 0 52 -10 c 1,11,-1
 511 1030 l 1,12,-1
 470 1030 l 2,13,14
 337 1030 337 1030 240.5 939 c 128,-1,15
 144 848 144 848 128 639 c 1,16,-1
 87 639 l 1,17,18
 87 946 87 946 79 1069 c 1,19,20
 248 1061 248 1061 480 1061 c 0,21,22
 686 1061 686 1061 914 1071 c 1,23,-1
 456 31 l 1,24,-1
 484 31 l 2,0,1
EndSplineSet
Substitution2: "'smcp' Lowercase to Small Capitals lookup 24 subtable" z.smcp
Substitution2: "'aalt' Access All Alternates lookup 0 subtable" z.smcp
EndChar
StartChar: braceleft
Encoding: 123 123 638
Width: 723
Flags: W
LayerCount: 2
Back
Fore
SplineSet
607.5 1532 m 128,-1,1
 579 1503 579 1503 567.5 1414 c 128,-1,2
 556 1325 556 1325 556 1128 c 0,3,4
 556 954 556 954 491.5 848 c 128,-1,5
 427 742 427 742 323.5 690 c 128,-1,6
 220 638 220 638 79 612 c 1,7,8
 220 586 220 586 323.5 534 c 128,-1,9
 427 482 427 482 491.5 375.5 c 128,-1,10
 556 269 556 269 556 96 c 0,11,12
 556 -108 556 -108 567.5 -198.5 c 128,-1,13
 579 -289 579 -289 607.5 -317 c 128,-1,14
 636 -345 636 -345 699 -346 c 1,15,-1
 699 -385 l 1,16,17
 506 -385 506 -385 396.5 -342.5 c 128,-1,18
 287 -300 287 -300 237 -196.5 c 128,-1,19
 187 -93 187 -93 187 96 c 0,20,21
 187 294 187 294 174 397 c 128,-1,22
 161 500 161 500 128.5 544.5 c 128,-1,23
 96 589 96 589 32 594 c 1,24,-1
 22 594 l 1,25,-1
 22 631 l 1,26,-1
 32 631 l 1,27,28
 96 635 96 635 128.5 679 c 128,-1,29
 161 723 161 723 174 826 c 128,-1,30
 187 929 187 929 187 1128 c 0,31,32
 187 1310 187 1310 237 1412 c 128,-1,33
 287 1514 287 1514 397.5 1558 c 128,-1,34
 508 1602 508 1602 699 1602 c 1,35,-1
 699 1563 l 1,36,0
 636 1561 636 1561 607.5 1532 c 128,-1,1
EndSplineSet
Substitution2: "'case' Case-Sensitive Forms lookup 25 subtable" braceleft.case
Substitution2: "'smcp' Lowercase to Small Capitals lookup 24 subtable" braceleft.smcp
Substitution2: "'c2sc' Capitals to Small Capitals lookup 23 subtable" braceleft.smcp
AlternateSubs2: "'aalt' Access All Alternates lookup 1 subtable" braceleft.smcp braceleft.case
EndChar
StartChar: bar
Encoding: 124 124 763
Width: 561
Flags: W
LayerCount: 2
Back
Fore
SplineSet
157 -399 m 1,0,-1
 157 1757 l 1,1,-1
 402 1757 l 1,2,-1
 402 -399 l 1,3,-1
 157 -399 l 1,0,-1
EndSplineSet
EndChar
StartChar: asciitilde
Encoding: 126 126 725
Width: 1395
Flags: W
LayerCount: 2
Back
Fore
SplineSet
540 815 m 128,-1,1
 592 801 592 801 635.5 781.5 c 128,-1,2
 679 762 679 762 743 728 c 0,3,4
 834 680 834 680 898 655.5 c 128,-1,5
 962 631 962 631 1035 631 c 0,6,7
 1199 631 1199 631 1261 791 c 1,8,-1
 1297 784 l 1,9,10
 1287 670 1287 670 1240 582.5 c 128,-1,11
 1193 495 1193 495 1121 447 c 128,-1,12
 1049 399 1049 399 966 399 c 0,13,14
 887 399 887 399 818.5 424.5 c 128,-1,15
 750 450 750 450 656 501 c 0,16,17
 565 549 565 549 501 573.5 c 128,-1,18
 437 598 437 598 364 598 c 0,19,20
 200 598 200 598 138 438 c 1,21,-1
 101 444 l 1,22,23
 111 558 111 558 158.5 645.5 c 128,-1,24
 206 733 206 733 278 781 c 128,-1,25
 350 829 350 829 433 829 c 0,26,0
 488 829 488 829 540 815 c 128,-1,1
EndSplineSet
Substitution2: "'case' Case-Sensitive Forms lookup 25 subtable" asciitilde.case
Substitution2: "'smcp' Lowercase to Small Capitals lookup 24 subtable" asciitilde.smcp
Substitution2: "'c2sc' Capitals to Small Capitals lookup 23 subtable" asciitilde.smcp
AlternateSubs2: "'aalt' Access All Alternates lookup 1 subtable" asciitilde.smcp asciitilde.case
EndChar
StartChar: exclamdown
Encoding: 161 161 678
Width: 604
Flags: W
LayerCount: 2
Back
Fore
SplineSet
452.5 1047 m 128,-1,1
 505 1002 505 1002 505 915 c 0,2,3
 505 829 505 829 452.5 784 c 128,-1,4
 400 739 400 739 302 739 c 0,5,6
 203 739 203 739 151 783.5 c 128,-1,7
 99 828 99 828 99 915 c 256,8,9
 99 1002 99 1002 151 1047 c 128,-1,10
 203 1092 203 1092 302 1092 c 0,11,0
 400 1092 400 1092 452.5 1047 c 128,-1,1
355.5 426.5 m 128,-1,13
 386 317 386 317 438 169 c 0,14,15
 479 50 479 50 498 -17 c 128,-1,16
 517 -84 517 -84 517 -139 c 0,17,18
 517 -218 517 -218 489.5 -273.5 c 128,-1,19
 462 -329 462 -329 413 -357 c 128,-1,20
 364 -385 364 -385 302 -385 c 0,21,22
 237 -385 237 -385 187.5 -356 c 128,-1,23
 138 -327 138 -327 110.5 -271.5 c 128,-1,24
 83 -216 83 -216 83 -139 c 0,25,26
 83 -87 83 -87 102 -19.5 c 128,-1,27
 121 48 121 48 161 163 c 0,28,29
 213 311 213 311 243.5 423.5 c 128,-1,30
 274 536 274 536 282 651 c 1,31,-1
 318 651 l 1,32,12
 325 536 325 536 355.5 426.5 c 128,-1,13
EndSplineSet
Substitution2: "'case' Case-Sensitive Forms lookup 25 subtable" exclamdown.case
Substitution2: "'smcp' Lowercase to Small Capitals lookup 24 subtable" exclamdown.smcp
Substitution2: "'c2sc' Capitals to Small Capitals lookup 23 subtable" exclamdown.smcp
AlternateSubs2: "'aalt' Access All Alternates lookup 1 subtable" exclamdown.smcp exclamdown.case
EndChar
StartChar: cent
Encoding: 162 162 717
Width: 1055
Flags: W
LayerCount: 2
Back
Fore
SplineSet
903.5 154 m 128,-1,1
 850 77 850 77 767 26 c 128,-1,2
 684 -25 684 -25 574 -29 c 1,3,-1
 574 -371 l 1,4,-1
 529 -371 l 1,5,-1
 529 -29 l 1,6,7
 317 -21 317 -21 189.5 113.5 c 128,-1,8
 62 248 62 248 62 530 c 0,9,10
 62 708 62 708 121.5 829.5 c 128,-1,11
 181 951 181 951 286 1015 c 128,-1,12
 391 1079 391 1079 529 1090 c 1,13,-1
 529 1450 l 1,14,-1
 574 1450 l 1,15,-1
 574 1092 l 1,16,-1
 589 1092 l 2,17,18
 673 1092 673 1092 743.5 1074.5 c 128,-1,19
 814 1057 814 1057 859 1030 c 0,20,21
 916 997 916 997 949 941.5 c 128,-1,22
 982 886 982 886 982 817 c 0,23,24
 982 761 982 761 956.5 715.5 c 128,-1,25
 931 670 931 670 886 644 c 128,-1,26
 841 618 841 618 785 618 c 0,27,28
 697 618 697 618 647 669 c 128,-1,29
 597 720 597 720 597 803 c 0,30,31
 597 877 597 877 645.5 932.5 c 128,-1,32
 694 988 694 988 765 1008 c 1,33,34
 732 1032 732 1032 683 1032 c 0,35,36
 621 1032 621 1032 574 996 c 1,37,-1
 574 230 l 1,38,39
 628 195 628 195 701 195 c 0,40,41
 850 195 850 195 949 332 c 1,42,-1
 984 319 l 1,43,0
 957 231 957 231 903.5 154 c 128,-1,1
529 268 m 1,45,-1
 529 947 l 1,46,47
 445 825 445 825 445 559 c 0,48,44
 445 359 445 359 529 268 c 1,45,-1
EndSplineSet
Substitution2: "'smcp' Lowercase to Small Capitals lookup 24 subtable" cent.smcp
Substitution2: "'c2sc' Capitals to Small Capitals lookup 23 subtable" cent.smcp
Substitution2: "'aalt' Access All Alternates lookup 0 subtable" cent.smcp
EndChar
StartChar: sterling
Encoding: 163 163 722
Width: 1432
Flags: W
LayerCount: 2
Back
Fore
SplineSet
1233.5 510 m 128,-1,1
 1293 475 1293 475 1330 416.5 c 128,-1,2
 1367 358 1367 358 1367 281 c 0,3,4
 1367 132 1367 132 1275 51.5 c 128,-1,5
 1183 -29 1183 -29 1000 -29 c 0,6,7
 914 -29 914 -29 839 -11 c 128,-1,8
 764 7 764 7 654 42 c 0,9,10
 557 74 557 74 505 86 c 0,11,12
 496 88 496 88 465 95 c 128,-1,13
 434 102 434 102 405 102 c 0,14,15
 348 102 348 102 292 82 c 1,16,17
 254 26 254 26 208.5 -1.5 c 128,-1,18
 163 -29 163 -29 118 -29 c 0,19,20
 62 -29 62 -29 62 12 c 0,21,22
 62 46 62 46 106.5 74 c 128,-1,23
 151 102 151 102 237 119 c 1,24,25
 259 172 259 172 266 230 c 128,-1,26
 273 288 273 288 273 390 c 2,27,-1
 273 528 l 1,28,-1
 273 608 l 1,29,-1
 116 608 l 1,30,-1
 116 649 l 1,31,-1
 273 649 l 1,32,-1
 273 813 l 1,33,-1
 116 813 l 1,34,-1
 116 854 l 1,35,-1
 273 854 l 1,36,-1
 273 899 l 2,37,38
 273 1507 273 1507 830 1507 c 0,39,40
 988 1507 988 1507 1076 1462 c 0,41,42
 1135 1431 1135 1431 1169 1383.5 c 128,-1,43
 1203 1336 1203 1336 1203 1274 c 0,44,45
 1203 1224 1203 1224 1180.5 1183.5 c 128,-1,46
 1158 1143 1158 1143 1117 1119.5 c 128,-1,47
 1076 1096 1076 1096 1023 1096 c 0,48,49
 939 1096 939 1096 889 1141.5 c 128,-1,50
 839 1187 839 1187 839 1260 c 0,51,52
 839 1326 839 1326 874 1375.5 c 128,-1,53
 909 1425 909 1425 972 1448 c 1,54,55
 924 1468 924 1468 855 1468 c 0,56,57
 773 1468 773 1468 728.5 1420 c 128,-1,58
 684 1372 684 1372 666 1262 c 128,-1,59
 648 1152 648 1152 648 952 c 2,60,-1
 648 854 l 1,61,-1
 863 854 l 1,62,-1
 863 813 l 1,63,-1
 648 813 l 1,64,-1
 648 719 l 2,65,66
 648 693 648 693 644 649 c 1,67,-1
 863 649 l 1,68,-1
 863 608 l 1,69,-1
 636 608 l 1,70,71
 621 542 621 542 589.5 483 c 128,-1,72
 558 424 558 424 518.5 374.5 c 128,-1,73
 479 325 479 325 409 245 c 0,74,75
 342 170 342 170 310 131 c 1,76,77
 431 241 431 241 526 282.5 c 128,-1,78
 621 324 621 324 706 324 c 0,79,80
 767 324 767 324 813 317 c 128,-1,81
 859 310 859 310 917 296 c 0,82,83
 974 284 974 284 1011 278 c 128,-1,84
 1048 272 1048 272 1095 272 c 0,85,86
 1155 272 1155 272 1192.5 305.5 c 128,-1,87
 1230 339 1230 339 1230 389 c 0,88,89
 1230 444 1230 444 1195 477.5 c 128,-1,90
 1160 511 1160 511 1097 524 c 1,91,-1
 1105 557 l 1,92,0
 1174 545 1174 545 1233.5 510 c 128,-1,1
EndSplineSet
Substitution2: "'smcp' Lowercase to Small Capitals lookup 24 subtable" sterling.smcp
Substitution2: "'c2sc' Capitals to Small Capitals lookup 23 subtable" sterling.smcp
Substitution2: "'aalt' Access All Alternates lookup 0 subtable" sterling.smcp
EndChar
StartChar: currency
Encoding: 164 164 718
Width: 1370
Flags: W
LayerCount: 2
Back
Fore
SplineSet
1129 807 m 1,0,1
 1168 715 1168 715 1168 614 c 0,2,3
 1168 512 1168 512 1127 422 c 1,4,-1
 1271 281 l 1,5,-1
 1019 29 l 1,6,-1
 876 170 l 1,7,8
 782 131 782 131 683 131 c 0,9,10
 582 131 582 131 493 170 c 1,11,-1
 351 29 l 1,12,-1
 99 281 l 1,13,-1
 239 420 l 1,14,15
 200 512 200 512 200 614 c 0,16,17
 200 715 200 715 239 807 c 1,18,-1
 99 948 l 1,19,-1
 351 1200 l 1,20,-1
 491 1059 l 1,21,22
 584 1100 584 1100 683 1100 c 0,23,24
 775 1100 775 1100 878 1059 c 1,25,-1
 1019 1200 l 1,26,-1
 1271 948 l 1,27,-1
 1129 807 l 1,0,1
591 804 m 128,-1,29
 547 774 547 774 521 723.5 c 128,-1,30
 495 673 495 673 495 614 c 0,31,32
 495 556 495 556 521 506 c 128,-1,33
 547 456 547 456 591 426.5 c 128,-1,34
 635 397 635 397 687 397 c 256,35,36
 739 397 739 397 782.5 426.5 c 128,-1,37
 826 456 826 456 852 506 c 128,-1,38
 878 556 878 556 878 614 c 0,39,40
 878 673 878 673 852 723.5 c 128,-1,41
 826 774 826 774 782 804 c 128,-1,42
 738 834 738 834 687 834 c 0,43,28
 635 834 635 834 591 804 c 128,-1,29
EndSplineSet
Substitution2: "'smcp' Lowercase to Small Capitals lookup 24 subtable" currency.smcp
Substitution2: "'c2sc' Capitals to Small Capitals lookup 23 subtable" currency.smcp
Substitution2: "'aalt' Access All Alternates lookup 0 subtable" currency.smcp
EndChar
StartChar: yen
Encoding: 165 165 723
Width: 1430
Flags: W
LayerCount: 2
Back
Fore
SplineSet
1370 1452 m 1,1,-1
 1370 1411 l 1,2,3
 1264 1359 1264 1359 1152 1139 c 2,4,-1
 962 762 l 1,5,-1
 962 629 l 1,6,-1
 1197 629 l 1,7,-1
 1197 588 l 1,8,-1
 962 588 l 1,9,-1
 962 424 l 1,10,-1
 1197 424 l 1,11,-1
 1197 383 l 1,12,-1
 962 383 l 1,13,-1
 962 217 l 2,14,15
 962 140 962 140 973 105 c 128,-1,16
 984 70 984 70 1013 57 c 128,-1,17
 1042 44 1042 44 1107 41 c 1,18,-1
 1107 0 l 1,19,20
 989 6 989 6 755 6 c 0,21,22
 512 6 512 6 401 0 c 1,23,-1
 401 41 l 1,24,25
 467 44 467 44 496 57 c 128,-1,26
 525 70 525 70 535.5 104.5 c 128,-1,27
 546 139 546 139 546 217 c 2,28,-1
 546 383 l 1,29,-1
 310 383 l 1,30,-1
 310 424 l 1,31,-1
 546 424 l 1,32,-1
 546 588 l 1,33,-1
 310 588 l 1,34,-1
 310 629 l 1,35,-1
 527 629 l 1,36,-1
 167 1294 l 2,37,38
 134 1354 134 1354 103.5 1381.5 c 128,-1,39
 73 1409 73 1409 49 1409 c 1,40,-1
 49 1452 l 1,41,42
 175 1440 175 1440 331 1440 c 0,43,44
 508 1440 508 1440 782 1452 c 1,45,-1
 782 1409 l 1,46,47
 699 1409 699 1409 658 1401 c 128,-1,48
 617 1393 617 1393 617 1362 c 0,49,50
 617 1349 617 1349 626 1331 c 2,51,-1
 918 769 l 1,52,-1
 1011 954 l 2,53,54
 1108 1148 1108 1148 1108 1259 c 0,55,56
 1108 1404 1108 1404 944 1411 c 1,57,-1
 944 1452 l 1,58,59
 1097 1446 1097 1446 1212 1446 c 0,60,0
 1309 1446 1309 1446 1370 1452 c 1,1,-1
EndSplineSet
Substitution2: "'smcp' Lowercase to Small Capitals lookup 24 subtable" yen.smcp
Substitution2: "'c2sc' Capitals to Small Capitals lookup 23 subtable" yen.smcp
Substitution2: "'aalt' Access All Alternates lookup 0 subtable" yen.smcp
EndChar
StartChar: brokenbar
Encoding: 166 166 764
Width: 569
Flags: W
LayerCount: 2
Back
Fore
SplineSet
161 786 m 1,0,-1
 161 1757 l 1,1,-1
 407 1757 l 1,2,-1
 407 786 l 1,3,-1
 161 786 l 1,0,-1
161 -399 m 1,4,-1
 161 668 l 1,5,-1
 407 668 l 1,6,-1
 407 -399 l 1,7,-1
 161 -399 l 1,4,-1
EndSplineSet
EndChar
StartChar: section
Encoding: 167 167 773
Width: 1290
Flags: W
LayerCount: 2
Back
Fore
SplineSet
1164 412.5 m 128,-1,1
 1102 332 1102 332 960 261 c 1,2,3
 1041 189 1041 189 1078 121 c 128,-1,4
 1115 53 1115 53 1115 -29 c 0,5,6
 1115 -137 1115 -137 1046.5 -217.5 c 128,-1,7
 978 -298 978 -298 856.5 -341.5 c 128,-1,8
 735 -385 735 -385 579 -385 c 0,9,10
 406 -385 406 -385 298 -332 c 0,11,12
 238 -300 238 -300 207.5 -256 c 128,-1,13
 177 -212 177 -212 177 -139 c 0,14,15
 177 -95 177 -95 199.5 -57 c 128,-1,16
 222 -19 222 -19 263.5 4 c 128,-1,17
 305 27 305 27 357 27 c 0,18,19
 441 27 441 27 491.5 -18.5 c 128,-1,20
 542 -64 542 -64 542 -137 c 0,21,22
 542 -197 542 -197 510 -246.5 c 128,-1,23
 478 -296 478 -296 427 -317 c 1,24,25
 437 -327 437 -327 477 -336.5 c 128,-1,26
 517 -346 517 -346 560 -346 c 0,27,28
 667 -346 667 -346 717 -296 c 128,-1,29
 767 -246 767 -246 767 -170 c 0,30,31
 767 -102 767 -102 743.5 -57 c 128,-1,32
 720 -12 720 -12 675.5 23.5 c 128,-1,33
 631 59 631 59 536 120 c 2,34,-1
 448 178 l 2,35,36
 301 276 301 276 226 336 c 128,-1,37
 151 396 151 396 108 465 c 128,-1,38
 65 534 65 534 65 623 c 0,39,40
 65 724 65 724 127 804.5 c 128,-1,41
 189 885 189 885 331 956 c 1,42,43
 249 1028 249 1028 212 1095.5 c 128,-1,44
 175 1163 175 1163 175 1245 c 0,45,46
 175 1353 175 1353 243.5 1433.5 c 128,-1,47
 312 1514 312 1514 433.5 1558 c 128,-1,48
 555 1602 555 1602 712 1602 c 0,49,50
 886 1602 886 1602 992 1548 c 0,51,52
 1052 1516 1052 1516 1082.5 1472 c 128,-1,53
 1113 1428 1113 1428 1113 1356 c 0,54,55
 1113 1312 1113 1312 1090.5 1274 c 128,-1,56
 1068 1236 1068 1236 1026.5 1213 c 128,-1,57
 985 1190 985 1190 933 1190 c 0,58,59
 849 1190 849 1190 799 1235.5 c 128,-1,60
 749 1281 749 1281 749 1354 c 0,61,62
 749 1413 749 1413 780.5 1462.5 c 128,-1,63
 812 1512 812 1512 863 1534 c 1,64,65
 852 1543 852 1543 812.5 1553 c 128,-1,66
 773 1563 773 1563 730 1563 c 0,67,68
 624 1563 624 1563 573.5 1513 c 128,-1,69
 523 1463 523 1463 523 1386 c 0,70,71
 523 1319 523 1319 546.5 1274.5 c 128,-1,72
 570 1230 570 1230 613.5 1195 c 128,-1,73
 657 1160 657 1160 752 1098 c 2,74,-1
 843 1038 l 2,75,76
 989 940 989 940 1064.5 880 c 128,-1,77
 1140 820 1140 820 1183 751 c 128,-1,78
 1226 682 1226 682 1226 594 c 0,79,0
 1226 493 1226 493 1164 412.5 c 128,-1,1
905 306 m 1,81,82
 931 349 931 349 931 418 c 0,83,84
 931 475 931 475 901 521 c 128,-1,85
 871 567 871 567 798 623.5 c 128,-1,86
 725 680 725 680 574 778 c 0,87,88
 447 862 447 862 385 911 c 1,89,90
 359 867 359 867 359 799 c 0,91,92
 359 742 359 742 389 695.5 c 128,-1,93
 419 649 419 649 491.5 593 c 128,-1,94
 564 537 564 537 716 438 c 0,95,80
 827 366 827 366 905 306 c 1,81,82
EndSplineSet
Substitution2: "'smcp' Lowercase to Small Capitals lookup 24 subtable" section.smcp
Substitution2: "'c2sc' Capitals to Small Capitals lookup 23 subtable" section.smcp
Substitution2: "'aalt' Access All Alternates lookup 0 subtable" section.smcp
EndChar
StartChar: dieresis
Encoding: 168 168 797
Width: 799
Flags: W
LayerCount: 2
Back
Fore
SplineSet
243 1556 m 128,-1,1
 284 1531 284 1531 309 1490 c 128,-1,2
 334 1449 334 1449 334 1403 c 0,3,4
 334 1355 334 1355 309.5 1314 c 128,-1,5
 285 1273 285 1273 243.5 1249 c 128,-1,6
 202 1225 202 1225 156 1225 c 0,7,8
 107 1225 107 1225 66 1249 c 128,-1,9
 25 1273 25 1273 1 1314 c 128,-1,10
 -23 1355 -23 1355 -23 1403 c 0,11,12
 -23 1449 -23 1449 1 1490.5 c 128,-1,13
 25 1532 25 1532 66.5 1556.5 c 128,-1,14
 108 1581 108 1581 156 1581 c 0,15,0
 202 1581 202 1581 243 1556 c 128,-1,1
730 1556 m 128,-1,17
 771 1531 771 1531 796 1490 c 128,-1,18
 821 1449 821 1449 821 1403 c 0,19,20
 821 1355 821 1355 796.5 1314 c 128,-1,21
 772 1273 772 1273 730.5 1249 c 128,-1,22
 689 1225 689 1225 643 1225 c 0,23,24
 595 1225 595 1225 554 1249 c 128,-1,25
 513 1273 513 1273 489 1314 c 128,-1,26
 465 1355 465 1355 465 1403 c 0,27,28
 465 1449 465 1449 489 1490.5 c 128,-1,29
 513 1532 513 1532 554 1556.5 c 128,-1,30
 595 1581 595 1581 643 1581 c 0,31,16
 689 1581 689 1581 730 1556 c 128,-1,17
EndSplineSet
Substitution2: "'case' Case-Sensitive Forms lookup 25 subtable" dieresis.case
Substitution2: "'smcp' Lowercase to Small Capitals lookup 24 subtable" dieresis.smcp
Substitution2: "'c2sc' Capitals to Small Capitals lookup 23 subtable" dieresis.smcp
AlternateSubs2: "'aalt' Access All Alternates lookup 1 subtable" dieresis.smcp dieresis.case
EndChar
StartChar: copyright
Encoding: 169 169 766
Width: 1786
Flags: W
LayerCount: 2
Back
Fore
SplineSet
1300.5 1492.5 m 128,-1,1
 1488 1383 1488 1383 1597.5 1195.5 c 128,-1,2
 1707 1008 1707 1008 1707 786 c 0,3,4
 1707 565 1707 565 1597.5 377.5 c 128,-1,5
 1488 190 1488 190 1300.5 80.5 c 128,-1,6
 1113 -29 1113 -29 892 -29 c 0,7,8
 670 -29 670 -29 483 80.5 c 128,-1,9
 296 190 296 190 186.5 377.5 c 128,-1,10
 77 565 77 565 77 786 c 0,11,12
 77 1008 77 1008 186.5 1195.5 c 128,-1,13
 296 1383 296 1383 483 1492.5 c 128,-1,14
 670 1602 670 1602 892 1602 c 0,15,0
 1113 1602 1113 1602 1300.5 1492.5 c 128,-1,1
524 1435 m 128,-1,17
 356 1334 356 1334 257.5 1162 c 128,-1,18
 159 990 159 990 159 786 c 0,19,20
 159 583 159 583 257.5 411 c 128,-1,21
 356 239 356 239 524 138 c 128,-1,22
 692 37 692 37 892 37 c 0,23,24
 1091 37 1091 37 1259.5 138 c 128,-1,25
 1428 239 1428 239 1526.5 411 c 128,-1,26
 1625 583 1625 583 1625 786 c 0,27,28
 1625 990 1625 990 1526.5 1162 c 128,-1,29
 1428 1334 1428 1334 1259.5 1435 c 128,-1,30
 1091 1536 1091 1536 892 1536 c 0,31,16
 692 1536 692 1536 524 1435 c 128,-1,17
1098 1330 m 128,-1,33
 1168 1312 1168 1312 1216 1286 c 0,34,35
 1272 1251 1272 1251 1305 1196 c 128,-1,36
 1338 1141 1338 1141 1338 1073 c 0,37,38
 1338 1018 1338 1018 1312.5 972.5 c 128,-1,39
 1287 927 1287 927 1242.5 900.5 c 128,-1,40
 1198 874 1198 874 1142 874 c 0,41,42
 1053 874 1053 874 1003 925 c 128,-1,43
 953 976 953 976 953 1059 c 0,44,45
 953 1133 953 1133 1001.5 1188.5 c 128,-1,46
 1050 1244 1050 1244 1121 1264 c 1,47,48
 1102 1277 1102 1277 1070.5 1285.5 c 128,-1,49
 1039 1294 1039 1294 1005 1294 c 256,50,51
 971 1294 971 1294 943 1286 c 0,52,53
 897 1272 897 1272 866.5 1224.5 c 128,-1,54
 836 1177 836 1177 819 1078 c 128,-1,55
 802 979 802 979 802 815 c 0,56,57
 802 656 802 656 839 561 c 128,-1,58
 876 466 876 466 933 427.5 c 128,-1,59
 990 389 990 389 1058 389 c 0,60,61
 1207 389 1207 389 1306 588 c 1,62,-1
 1340 575 l 1,63,64
 1312 485 1312 485 1256.5 406 c 128,-1,65
 1201 327 1201 327 1114 277 c 128,-1,66
 1027 227 1027 227 912 227 c 0,67,68
 689 227 689 227 554 360.5 c 128,-1,69
 419 494 419 494 419 786 c 0,70,71
 419 976 419 976 487 1102 c 128,-1,72
 555 1228 555 1228 673 1288 c 128,-1,73
 791 1348 791 1348 945 1348 c 0,74,32
 1028 1348 1028 1348 1098 1330 c 128,-1,33
EndSplineSet
EndChar
StartChar: ordfeminine
Encoding: 170 170 421
Width: 1014
GlyphClass: 2
Flags: W
LayerCount: 2
Back
Fore
SplineSet
715 1452 m 128,-1,1
 792 1425 792 1425 828.5 1368 c 128,-1,2
 865 1311 865 1311 865 1219 c 2,3,-1
 865 866 l 2,4,5
 865 846 865 846 872 837.5 c 128,-1,6
 879 829 879 829 896 829 c 0,7,8
 921 829 921 829 939 844 c 1,9,-1
 962 813 l 1,10,11
 852 737 852 737 695 737 c 0,12,13
 612 737 612 737 576.5 761.5 c 128,-1,14
 541 786 541 786 538 834 c 1,15,16
 488 785 488 785 422.5 761 c 128,-1,17
 357 737 357 737 288 737 c 0,18,19
 191 737 191 737 134 777.5 c 128,-1,20
 77 818 77 818 77 899 c 0,21,22
 77 955 77 955 107 993 c 128,-1,23
 137 1031 137 1031 200 1060 c 128,-1,24
 263 1089 263 1089 374 1120 c 0,25,26
 443 1140 443 1140 490.5 1169.5 c 128,-1,27
 538 1199 538 1199 538 1235 c 2,28,-1
 538 1272 l 2,29,30
 538 1361 538 1361 508 1400.5 c 128,-1,31
 478 1440 478 1440 419 1440 c 0,32,33
 367 1440 367 1440 335 1417 c 1,34,35
 385 1403 385 1403 411 1365 c 128,-1,36
 437 1327 437 1327 437 1286 c 0,37,38
 437 1222 437 1222 387 1185.5 c 128,-1,39
 337 1149 337 1149 267 1149 c 0,40,41
 195 1149 195 1149 151.5 1185.5 c 128,-1,42
 108 1222 108 1222 108 1282 c 0,43,44
 108 1332 108 1332 140.5 1370.5 c 128,-1,45
 173 1409 173 1409 226 1432 c 0,46,47
 285 1457 285 1457 353 1468 c 128,-1,48
 421 1479 421 1479 513 1479 c 0,49,0
 638 1479 638 1479 715 1452 c 128,-1,1
476 1094 m 0,51,52
 419 1031 419 1031 419 940 c 0,53,54
 419 900 419 900 435.5 875 c 128,-1,55
 452 850 452 850 476 850 c 0,56,57
 512 850 512 850 538 870 c 1,58,-1
 538 1176 l 1,59,50
 528 1151 528 1151 476 1094 c 0,51,52
EndSplineSet
EndChar
StartChar: guillemotleft
Encoding: 171 171 657
Width: 1257
Flags: W
LayerCount: 2
Back
Fore
SplineSet
638.5 891.5 m 128,-1,1
 597 781 597 781 546.5 682 c 128,-1,2
 496 583 496 583 452 530 c 1,3,4
 496 478 496 478 546.5 379.5 c 128,-1,5
 597 281 597 281 638.5 170.5 c 128,-1,6
 680 60 680 60 699 -25 c 1,7,-1
 671 -33 l 1,8,9
 506 137 506 137 358 268 c 128,-1,10
 210 399 210 399 44 510 c 1,11,-1
 44 551 l 1,12,13
 209 661 209 661 356.5 792.5 c 128,-1,14
 504 924 504 924 671 1096 c 1,15,-1
 699 1087 l 1,16,0
 680 1002 680 1002 638.5 891.5 c 128,-1,1
1063.5 748.5 m 128,-1,18
 1005 601 1005 601 955 530 c 1,19,20
 1005 460 1005 460 1063.5 313.5 c 128,-1,21
 1122 167 1122 167 1142 57 c 1,22,-1
 1113 49 l 1,23,24
 962 198 962 198 835.5 308 c 128,-1,25
 709 418 709 418 568 510 c 1,26,-1
 568 551 l 1,27,28
 708 642 708 642 833.5 751.5 c 128,-1,29
 959 861 959 861 1113 1014 c 1,30,-1
 1142 1006 l 1,31,17
 1122 896 1122 896 1063.5 748.5 c 128,-1,18
EndSplineSet
Substitution2: "'case' Case-Sensitive Forms lookup 25 subtable" guillemotleft.case
Substitution2: "'smcp' Lowercase to Small Capitals lookup 24 subtable" guillemotleft.smcp
Substitution2: "'c2sc' Capitals to Small Capitals lookup 23 subtable" guillemotleft.smcp
AlternateSubs2: "'aalt' Access All Alternates lookup 1 subtable" guillemotleft.smcp guillemotleft.case
EndChar
StartChar: registered
Encoding: 174 174 772
Width: 1343
Flags: W
LayerCount: 2
Back
Fore
SplineSet
957 1525 m 128,-1,1
 1088 1448 1088 1448 1165 1316.5 c 128,-1,2
 1242 1185 1242 1185 1242 1030 c 256,3,4
 1242 875 1242 875 1165 744 c 128,-1,5
 1088 613 1088 613 957 536 c 128,-1,6
 826 459 826 459 671 459 c 256,7,8
 516 459 516 459 384.5 536 c 128,-1,9
 253 613 253 613 176 744 c 128,-1,10
 99 875 99 875 99 1030 c 256,11,12
 99 1185 99 1185 176 1316.5 c 128,-1,13
 253 1448 253 1448 384.5 1525 c 128,-1,14
 516 1602 516 1602 671 1602 c 256,15,0
 826 1602 826 1602 957 1525 c 128,-1,1
914.5 592.5 m 128,-1,17
 1026 661 1026 661 1091 777.5 c 128,-1,18
 1156 894 1156 894 1156 1030 c 0,19,20
 1156 1167 1156 1167 1091 1283 c 128,-1,21
 1026 1399 1026 1399 915 1467.5 c 128,-1,22
 804 1536 804 1536 671 1536 c 256,23,24
 538 1536 538 1536 426.5 1467.5 c 128,-1,25
 315 1399 315 1399 250 1283 c 128,-1,26
 185 1167 185 1167 185 1030 c 0,27,28
 185 894 185 894 250 777.5 c 128,-1,29
 315 661 315 661 426.5 592.5 c 128,-1,30
 538 524 538 524 671 524 c 0,31,16
 803 524 803 524 914.5 592.5 c 128,-1,17
910 711 m 0,33,34
 766 711 766 711 751 803 c 2,35,-1
 724 950 l 2,36,37
 718 983 718 983 710 1000 c 128,-1,38
 702 1017 702 1017 684 1027 c 128,-1,39
 666 1037 666 1037 630 1041 c 1,40,-1
 630 827 l 2,41,42
 630 795 630 795 633.5 780 c 128,-1,43
 637 765 637 765 646.5 759.5 c 128,-1,44
 656 754 656 754 677 752 c 1,45,-1
 677 721 l 1,46,47
 638 721 638 721 616 722 c 2,48,-1
 531 723 l 1,49,-1
 432 722 l 2,50,51
 410 721 410 721 376 721 c 1,52,-1
 376 752 l 1,53,54
 397 754 397 754 406.5 759.5 c 128,-1,55
 416 765 416 765 419.5 780 c 128,-1,56
 423 795 423 795 423 827 c 2,57,-1
 423 1276 l 2,58,59
 423 1309 423 1309 419.5 1324.5 c 128,-1,60
 416 1340 416 1340 406.5 1346 c 128,-1,61
 397 1352 397 1352 376 1354 c 1,62,-1
 376 1384 l 1,63,64
 409 1382 409 1382 523 1382 c 2,65,-1
 651 1383 l 2,66,67
 672 1384 672 1384 699 1384 c 0,68,69
 837 1384 837 1384 897 1343.5 c 128,-1,70
 957 1303 957 1303 957 1223 c 0,71,72
 957 1172 957 1172 907.5 1125.5 c 128,-1,73
 858 1079 858 1079 740 1060 c 1,74,75
 810 1054 810 1054 849.5 1040 c 128,-1,76
 889 1026 889 1026 907.5 1002 c 128,-1,77
 926 978 926 978 933 940 c 2,78,-1
 968 795 l 2,79,80
 973 760 973 760 994 760 c 0,81,82
 1006 760 1006 760 1017 768 c 1,83,-1
 1029 745 l 1,84,32
 988 711 988 711 910 711 c 0,33,34
638 1343 m 128,-1,86
 630 1332 630 1332 630 1303 c 2,87,-1
 630 1077 l 1,88,-1
 638 1077 l 2,89,90
 694 1077 694 1077 724.5 1113 c 128,-1,91
 755 1149 755 1149 755 1217 c 0,92,93
 755 1283 755 1283 732.5 1318.5 c 128,-1,94
 710 1354 710 1354 667 1354 c 0,95,85
 646 1354 646 1354 638 1343 c 128,-1,86
EndSplineSet
EndChar
StartChar: degree
Encoding: 176 176 769
Width: 608
Flags: W
LayerCount: 2
Back
Fore
SplineSet
426.5 1649 m 128,-1,1
 484 1619 484 1619 518 1563 c 128,-1,2
 552 1507 552 1507 552 1434 c 0,3,4
 552 1359 552 1359 518 1303 c 128,-1,5
 484 1247 484 1247 426.5 1216.5 c 128,-1,6
 369 1186 369 1186 302 1186 c 0,7,8
 236 1186 236 1186 179 1216.5 c 128,-1,9
 122 1247 122 1247 88 1303.5 c 128,-1,10
 54 1360 54 1360 54 1434 c 0,11,12
 54 1507 54 1507 88 1563 c 128,-1,13
 122 1619 122 1619 179 1649 c 128,-1,14
 236 1679 236 1679 302 1679 c 0,15,0
 369 1679 369 1679 426.5 1649 c 128,-1,1
208.5 1620 m 128,-1,17
 163 1595 163 1595 134 1546.5 c 128,-1,18
 105 1498 105 1498 105 1432 c 0,19,20
 105 1364 105 1364 134 1316 c 128,-1,21
 163 1268 163 1268 208 1244.5 c 128,-1,22
 253 1221 253 1221 302 1221 c 256,23,24
 351 1221 351 1221 396.5 1244.5 c 128,-1,25
 442 1268 442 1268 471.5 1316 c 128,-1,26
 501 1364 501 1364 501 1432 c 0,27,28
 501 1498 501 1498 471.5 1546.5 c 128,-1,29
 442 1595 442 1595 396 1620 c 128,-1,30
 350 1645 350 1645 302 1645 c 256,31,16
 254 1645 254 1645 208.5 1620 c 128,-1,17
EndSplineSet
EndChar
StartChar: threesuperior
Encoding: 179 179 637
Width: 684
Flags: W
LayerCount: 2
Back
Fore
SplineSet
481 1530.5 m 128,-1,1
 538 1513 538 1513 571.5 1480 c 128,-1,2
 605 1447 605 1447 605 1401 c 0,3,4
 605 1329 605 1329 534 1278.5 c 128,-1,5
 463 1228 463 1228 333 1206 c 1,6,7
 343 1207 343 1207 364 1207 c 0,8,9
 438 1207 438 1207 499.5 1183.5 c 128,-1,10
 561 1160 561 1160 596.5 1117 c 128,-1,11
 632 1074 632 1074 632 1018 c 0,12,13
 632 878 632 878 458 804.5 c 128,-1,14
 284 731 284 731 38 713 c 1,15,-1
 38 748 l 1,16,17
 211 773 211 773 308 846 c 128,-1,18
 405 919 405 919 405 1034 c 0,19,20
 405 1096 405 1096 376 1138 c 128,-1,21
 347 1180 347 1180 296 1184 c 1,22,23
 303 1187 303 1187 277 1174 c 0,24,25
 237 1155 237 1155 220 1155 c 0,26,27
 189 1155 189 1155 189 1180 c 0,28,29
 189 1199 189 1199 212.5 1204.5 c 128,-1,30
 236 1210 236 1210 280 1208 c 1,31,32
 330 1234 330 1234 352 1276.5 c 128,-1,33
 374 1319 374 1319 374 1358 c 0,34,35
 374 1405 374 1405 341.5 1435.5 c 128,-1,36
 309 1466 309 1466 251 1466 c 0,37,38
 199 1466 199 1466 154 1439.5 c 128,-1,39
 109 1413 109 1413 81 1368 c 1,40,-1
 50 1384 l 1,41,42
 140 1548 140 1548 353 1548 c 0,43,0
 424 1548 424 1548 481 1530.5 c 128,-1,1
EndSplineSet
EndChar
StartChar: acute
Encoding: 180 180 791
Width: 457
Flags: W
LayerCount: 2
Back
Fore
SplineSet
457 1587 m 0,1,2
 457 1533 457 1533 423 1493 c 0,3,4
 400 1466 400 1466 373 1446 c 128,-1,5
 346 1426 346 1426 291 1391 c 0,6,7
 163 1312 163 1312 62 1227 c 1,8,-1
 40 1245 l 1,9,10
 100 1363 100 1363 142 1508 c 0,11,12
 160 1569 160 1569 174.5 1602 c 128,-1,13
 189 1635 189 1635 214 1663 c 0,14,15
 233 1686 233 1686 263 1699 c 128,-1,16
 293 1712 293 1712 325 1712 c 0,17,18
 376 1712 376 1712 415 1679 c 0,19,0
 457 1646 457 1646 457 1587 c 0,1,2
EndSplineSet
Substitution2: "'case' Case-Sensitive Forms lookup 25 subtable" acute.case
Substitution2: "'smcp' Lowercase to Small Capitals lookup 24 subtable" acute.smcp
Substitution2: "'c2sc' Capitals to Small Capitals lookup 23 subtable" acute.smcp
Substitution2: "'locl' Localized Forms in Latin lookup 7 subtable" acute.loclPLK
AlternateSubs2: "'aalt' Access All Alternates lookup 1 subtable" acute.loclPLK acute.smcp acute.case
EndChar
StartChar: paragraph
Encoding: 182 182 771
Width: 1618
Flags: W
LayerCount: 2
Back
Fore
SplineSet
1148 1448 m 0,1,2
 1364 1445 1364 1445 1356 1445 c 1,3,4
 1461 1445 1461 1445 1535 1450 c 1,5,-1
 1535 1411 l 1,6,7
 1478 1408 1478 1408 1448.5 1392.5 c 128,-1,8
 1419 1377 1419 1377 1408.5 1349 c 128,-1,9
 1398 1321 1398 1321 1398 1272 c 2,10,-1
 1398 -154 l 2,11,12
 1398 -232 1398 -232 1408.5 -266.5 c 128,-1,13
 1419 -301 1419 -301 1448 -314 c 128,-1,14
 1477 -327 1477 -327 1543 -330 c 1,15,-1
 1543 -371 l 1,16,17
 1399 -365 1399 -365 1119 -365 c 0,18,19
 886 -365 886 -365 775 -371 c 1,20,-1
 775 -330 l 1,21,22
 862 -327 862 -327 905.5 -308.5 c 128,-1,23
 949 -290 949 -290 965.5 -250 c 128,-1,24
 982 -210 982 -210 982 -133 c 2,25,-1
 982 -27 l 1,26,27
 501 -27 501 -27 281.5 179 c 128,-1,28
 62 385 62 385 62 737 c 0,29,30
 62 946 62 946 162.5 1108 c 128,-1,31
 263 1270 263 1270 452 1361 c 128,-1,32
 641 1452 641 1452 898 1452 c 0,33,0
 990 1452 990 1452 1148 1448 c 0,1,2
948 1259 m 128,-1,35
 923 1175 923 1175 902.5 1043.5 c 128,-1,36
 882 912 882 912 878 770 c 1,37,38
 717 770 717 770 572.5 760 c 128,-1,39
 428 750 428 750 336.5 737.5 c 128,-1,40
 245 725 245 725 245 719 c 0,41,42
 245 711 245 711 334.5 699.5 c 128,-1,43
 424 688 424 688 569.5 679 c 128,-1,44
 715 670 715 670 878 670 c 1,45,46
 882 523 882 523 902.5 392 c 128,-1,47
 923 261 923 261 948 179.5 c 128,-1,48
 973 98 973 98 984 98 c 1,49,-1
 984 1343 l 1,50,34
 973 1343 973 1343 948 1259 c 128,-1,35
EndSplineSet
Substitution2: "'smcp' Lowercase to Small Capitals lookup 24 subtable" paragraph.smcp
Substitution2: "'c2sc' Capitals to Small Capitals lookup 23 subtable" paragraph.smcp
Substitution2: "'aalt' Access All Alternates lookup 0 subtable" paragraph.smcp
EndChar
StartChar: cedilla
Encoding: 184 184 794
Width: 467
Flags: W
LayerCount: 2
Back
Fore
SplineSet
332 -92 m 0,1,2
 406 -92 406 -92 444.5 -125 c 128,-1,3
 483 -158 483 -158 483 -211 c 0,4,5
 483 -297 483 -297 394.5 -341 c 128,-1,6
 306 -385 306 -385 160 -385 c 0,7,8
 46 -385 46 -385 -25 -358 c 1,9,-1
 -12 -322 l 1,10,11
 33 -332 33 -332 86 -332 c 0,12,13
 136 -332 136 -332 174.5 -312 c 128,-1,14
 213 -292 213 -292 213 -254 c 0,15,16
 213 -203 213 -203 156 -203 c 0,17,18
 113 -203 113 -203 88 -217 c 1,19,-1
 150 0 l 1,20,-1
 205 0 l 1,21,-1
 170 -123 l 1,22,0
 242 -92 242 -92 332 -92 c 0,1,2
EndSplineSet
Substitution2: "'case' Case-Sensitive Forms lookup 25 subtable" cedilla.case
Substitution2: "'smcp' Lowercase to Small Capitals lookup 24 subtable" cedilla.smcp
Substitution2: "'c2sc' Capitals to Small Capitals lookup 23 subtable" cedilla.smcp
AlternateSubs2: "'aalt' Access All Alternates lookup 1 subtable" cedilla.smcp cedilla.case
EndChar
StartChar: ordmasculine
Encoding: 186 186 422
Width: 979
GlyphClass: 2
Flags: W
LayerCount: 2
Back
Fore
SplineSet
710.5 1436.5 m 128,-1,1
 806 1394 806 1394 859 1310.5 c 128,-1,2
 912 1227 912 1227 912 1108 c 256,3,4
 912 989 912 989 859 905.5 c 128,-1,5
 806 822 806 822 710.5 779.5 c 128,-1,6
 615 737 615 737 488 737 c 256,7,8
 361 737 361 737 266 779.5 c 128,-1,9
 171 822 171 822 118 905.5 c 128,-1,10
 65 989 65 989 65 1108 c 256,11,12
 65 1227 65 1227 118 1310.5 c 128,-1,13
 171 1394 171 1394 266 1436.5 c 128,-1,14
 361 1479 361 1479 488 1479 c 256,15,0
 615 1479 615 1479 710.5 1436.5 c 128,-1,1
407 1108 m 256,17,18
 407 774 407 774 488 774 c 0,19,20
 570 774 570 774 570 1108 c 256,21,22
 570 1442 570 1442 488 1442 c 0,23,16
 407 1442 407 1442 407 1108 c 256,17,18
EndSplineSet
EndChar
StartChar: guillemotright
Encoding: 187 187 658
Width: 1257
Flags: W
LayerCount: 2
Back
Fore
SplineSet
897.5 794 m 128,-1,1
 1046 662 1046 662 1211 551 c 1,2,-1
 1211 510 l 1,3,4
 1045 399 1045 399 896 266.5 c 128,-1,5
 747 134 747 134 585 -33 c 1,6,-1
 556 -25 l 1,7,8
 575 60 575 60 617 170.5 c 128,-1,9
 659 281 659 281 709.5 379.5 c 128,-1,10
 760 478 760 478 804 530 c 1,11,12
 760 583 760 583 709.5 682 c 128,-1,13
 659 781 659 781 617 891.5 c 128,-1,14
 575 1002 575 1002 556 1087 c 1,15,-1
 585 1096 l 1,16,0
 749 926 749 926 897.5 794 c 128,-1,1
421.5 751.5 m 128,-1,18
 547 642 547 642 687 551 c 1,19,-1
 687 510 l 1,20,21
 546 418 546 418 419.5 308 c 128,-1,22
 293 198 293 198 142 49 c 1,23,-1
 114 57 l 1,24,25
 127 128 127 128 158.5 222 c 128,-1,26
 190 316 190 316 229 400 c 128,-1,27
 268 484 268 484 300 530 c 1,28,29
 268 576 268 576 229 661 c 128,-1,30
 190 746 190 746 158.5 840 c 128,-1,31
 127 934 127 934 114 1006 c 1,32,-1
 142 1014 l 1,33,17
 296 861 296 861 421.5 751.5 c 128,-1,18
EndSplineSet
Substitution2: "'case' Case-Sensitive Forms lookup 25 subtable" guillemotright.case
Substitution2: "'smcp' Lowercase to Small Capitals lookup 24 subtable" guillemotright.smcp
Substitution2: "'c2sc' Capitals to Small Capitals lookup 23 subtable" guillemotright.smcp
AlternateSubs2: "'aalt' Access All Alternates lookup 1 subtable" guillemotright.smcp guillemotright.case
EndChar
StartChar: questiondown
Encoding: 191 191 683
Width: 1098
Flags: W
LayerCount: 2
Back
Fore
SplineSet
788.5 1049 m 128,-1,1
 841 1004 841 1004 841 917 c 0,2,3
 841 831 841 831 788.5 786 c 128,-1,4
 736 741 736 741 638 741 c 0,5,6
 539 741 539 741 487 785.5 c 128,-1,7
 435 830 435 830 435 917 c 256,8,9
 435 1004 435 1004 487 1049 c 128,-1,10
 539 1094 539 1094 638 1094 c 0,11,0
 736 1094 736 1094 788.5 1049 c 128,-1,1
510 270.5 m 128,-1,13
 458 210 458 210 439.5 140.5 c 128,-1,14
 421 71 421 71 421 -18 c 0,15,16
 421 -184 421 -184 482 -264 c 128,-1,17
 543 -344 543 -344 648 -344 c 0,18,19
 768 -344 768 -344 810 -305 c 1,20,21
 743 -280 743 -280 710 -236.5 c 128,-1,22
 677 -193 677 -193 677 -125 c 0,23,24
 677 -77 677 -77 701.5 -38 c 128,-1,25
 726 1 726 1 770.5 24 c 128,-1,26
 815 47 815 47 873 47 c 0,27,28
 923 47 923 47 961 24.5 c 128,-1,29
 999 2 999 2 1020 -36 c 128,-1,30
 1041 -74 1041 -74 1041 -117 c 0,31,32
 1041 -187 1041 -187 1006.5 -233 c 128,-1,33
 972 -279 972 -279 910 -313 c 0,34,35
 853 -345 853 -345 770.5 -365 c 128,-1,36
 688 -385 688 -385 587 -385 c 0,37,38
 428 -385 428 -385 307.5 -340.5 c 128,-1,39
 187 -296 187 -296 120.5 -212.5 c 128,-1,40
 54 -129 54 -129 54 -16 c 0,41,42
 54 138 54 138 205.5 244 c 128,-1,43
 357 350 357 350 617 397 c 1,44,-1
 617 666 l 1,45,-1
 658 666 l 1,46,-1
 658 379 l 1,47,12
 562 331 562 331 510 270.5 c 128,-1,13
EndSplineSet
Substitution2: "'case' Case-Sensitive Forms lookup 25 subtable" questiondown.case
Substitution2: "'smcp' Lowercase to Small Capitals lookup 24 subtable" questiondown.smcp
Substitution2: "'c2sc' Capitals to Small Capitals lookup 23 subtable" questiondown.smcp
AlternateSubs2: "'aalt' Access All Alternates lookup 1 subtable" questiondown.smcp questiondown.case
EndChar
StartChar: AE
Encoding: 198 198 12
Width: 1868
GlyphClass: 2
Flags: W
AnchorPoint: "Anchor-5" 0 0 basechar 0
AnchorPoint: "Anchor-4" 934 1450 basechar 0
AnchorPoint: "Anchor-3" 0 0 basechar 0
LayerCount: 2
Back
Fore
SplineSet
1780 0 m 1,1,2
 1640 6 1640 6 1311 6 c 0,3,4
 874 6 874 6 655 0 c 1,5,-1
 655 41 l 1,6,7
 721 44 721 44 750.5 57 c 128,-1,8
 780 70 780 70 790.5 105 c 128,-1,9
 801 140 801 140 801 217 c 2,10,-1
 801 709 l 1,11,-1
 469 709 l 1,12,-1
 184 213 l 2,13,14
 148 148 148 148 148 113 c 0,15,16
 148 77 148 77 182 60.5 c 128,-1,17
 216 44 216 44 289 41 c 1,18,-1
 289 0 l 1,19,20
 227 6 227 6 102 6 c 0,21,22
 14 6 14 6 -35 0 c 1,23,-1
 -35 41 l 1,24,25
 -1 43 -1 43 32 72 c 128,-1,26
 65 101 65 101 106 172 c 2,27,-1
 788 1352 l 1,28,29
 775 1383 775 1383 746 1394.5 c 128,-1,30
 717 1406 717 1406 655 1409 c 1,31,-1
 655 1450 l 1,32,33
 714 1448 714 1448 842 1446 c 1,34,-1
 920 1581 l 1,35,-1
 969 1581 l 1,36,-1
 891 1446 l 1,37,38
 1056 1444 1056 1444 1311 1444 c 0,39,40
 1612 1444 1612 1444 1739 1450 c 1,41,42
 1724 1269 1724 1269 1724 1147 c 0,43,44
 1724 1048 1724 1048 1731 999 c 1,45,-1
 1683 999 l 1,46,47
 1653 1214 1653 1214 1574 1308.5 c 128,-1,48
 1495 1403 1495 1403 1389 1403 c 2,49,-1
 1362 1403 l 2,50,51
 1298 1403 1298 1403 1268.5 1391 c 128,-1,52
 1239 1379 1239 1379 1228 1344.5 c 128,-1,53
 1217 1310 1217 1310 1217 1233 c 2,54,-1
 1217 750 l 1,55,-1
 1298 750 l 2,56,57
 1363 750 1363 750 1402.5 790 c 128,-1,58
 1442 830 1442 830 1459.5 878 c 128,-1,59
 1477 926 1477 926 1495 999 c 1,60,-1
 1542 999 l 1,61,62
 1535 905 1535 905 1535 820 c 2,63,-1
 1536 729 l 2,64,65
 1536 633 1536 633 1548 459 c 1,66,-1
 1501 459 l 1,67,68
 1488 532 1488 532 1467 585.5 c 128,-1,69
 1446 639 1446 639 1405 674 c 128,-1,70
 1364 709 1364 709 1298 709 c 2,71,-1
 1217 709 l 1,72,-1
 1217 217 l 2,73,74
 1217 140 1217 140 1228 105.5 c 128,-1,75
 1239 71 1239 71 1268.5 59 c 128,-1,76
 1298 47 1298 47 1362 47 c 2,77,-1
 1430 47 l 2,78,79
 1487 47 1487 47 1548.5 91 c 128,-1,80
 1610 135 1610 135 1658.5 234.5 c 128,-1,81
 1707 334 1707 334 1724 492 c 1,82,-1
 1772 492 l 1,83,84
 1765 422 1765 422 1765 303 c 0,85,0
 1765 119 1765 119 1780 0 c 1,1,2
801 1233 m 2,86,87
 801 1270 801 1270 800 1286 c 1,88,-1
 492 750 l 1,89,-1
 801 750 l 1,90,-1
 801 1233 l 2,86,87
EndSplineSet
Substitution2: "'c2sc' Capitals to Small Capitals lookup 23 subtable" ae.smcp
Substitution2: "'aalt' Access All Alternates lookup 0 subtable" ae.smcp
Position2: "'cpsp' Capital Spacing lookup 0 subtable" dx=20 dy=0 dh=20 dv=0
EndChar
StartChar: Ccedilla
Encoding: 199 199 17
Width: 1468
GlyphClass: 2
Flags: W
AnchorPoint: "Anchor-5" 854 0 basechar 0
AnchorPoint: "Anchor-4" 797 1450 basechar 0
AnchorPoint: "Anchor-3" 0 0 basechar 0
LayerCount: 2
Back
Fore
SplineSet
1363 0 m 1,1,-1
 1316 0 l 1,2,3
 1311 64 1311 64 1299.5 92.5 c 128,-1,4
 1288 121 1288 121 1266 121 c 0,5,6
 1250 121 1250 121 1224 104 c 0,7,8
 1166 63 1166 63 1117.5 36.5 c 128,-1,9
 1069 10 1069 10 1007.5 -8 c 128,-1,10
 946 -26 946 -26 871 -29 c 1,11,-1
 843 -123 l 1,12,13
 924 -92 924 -92 1025 -92 c 0,14,15
 1109 -92 1109 -92 1153 -125 c 128,-1,16
 1197 -158 1197 -158 1197 -211 c 0,17,18
 1197 -297 1197 -297 1092 -341 c 128,-1,19
 987 -385 987 -385 812 -385 c 0,20,21
 686 -385 686 -385 607 -358 c 1,22,-1
 620 -322 l 1,23,24
 675 -332 675 -332 739 -332 c 0,25,26
 815 -332 815 -332 871 -312 c 128,-1,27
 927 -292 927 -292 927 -254 c 0,28,29
 927 -203 927 -203 829 -203 c 0,30,31
 786 -203 786 -203 761 -217 c 1,32,-1
 816 -29 l 1,33,34
 592 -23 592 -23 424.5 67 c 128,-1,35
 257 157 257 157 165 322 c 128,-1,36
 73 487 73 487 73 713 c 256,37,38
 73 939 73 939 171.5 1113 c 128,-1,39
 270 1287 270 1287 445.5 1383 c 128,-1,40
 621 1479 621 1479 847 1479 c 0,41,42
 969 1479 969 1479 1055.5 1444 c 128,-1,43
 1142 1409 1142 1409 1224 1346 c 0,44,45
 1247 1328 1247 1328 1264 1328 c 0,46,47
 1306 1328 1306 1328 1316 1450 c 1,48,-1
 1363 1450 l 1,49,50
 1355 1305 1355 1305 1355 938 c 1,51,-1
 1308 938 l 1,52,53
 1298 1047 1298 1047 1279.5 1120.5 c 128,-1,54
 1261 1194 1261 1194 1223 1252.5 c 128,-1,55
 1185 1311 1185 1311 1119 1354 c 0,56,57
 1025 1415 1025 1415 929 1415 c 0,58,59
 782 1415 782 1415 696.5 1311.5 c 128,-1,60
 611 1208 611 1208 577.5 1053 c 128,-1,61
 544 898 544 898 544 721 c 256,62,63
 544 544 544 544 577.5 389 c 128,-1,64
 611 234 611 234 696.5 130.5 c 128,-1,65
 782 27 782 27 929 27 c 0,66,67
 1025 27 1025 27 1119 88 c 0,68,69
 1185 129 1185 129 1223 189 c 128,-1,70
 1261 249 1261 249 1279.5 329.5 c 128,-1,71
 1298 410 1298 410 1308 532 c 1,72,-1
 1355 532 l 1,73,0
 1355 151 1355 151 1363 0 c 1,1,-1
EndSplineSet
Substitution2: "'c2sc' Capitals to Small Capitals lookup 23 subtable" ccedilla.smcp
Substitution2: "'aalt' Access All Alternates lookup 0 subtable" ccedilla.smcp
Position2: "'cpsp' Capital Spacing lookup 0 subtable" dx=20 dy=0 dh=20 dv=0
EndChar
StartChar: multiply
Encoding: 215 215 736
Width: 987
Flags: W
LayerCount: 2
Back
Fore
SplineSet
849 1126 m 1,0,-1
 894 1081 l 1,1,-1
 540 729 l 1,2,-1
 894 375 l 1,3,-1
 849 330 l 1,4,-1
 495 684 l 1,5,-1
 138 328 l 1,6,-1
 93 373 l 1,7,-1
 450 727 l 1,8,-1
 91 1085 l 1,9,-1
 136 1130 l 1,10,-1
 495 772 l 1,11,-1
 849 1126 l 1,0,-1
EndSplineSet
EndChar
StartChar: Oslash
Encoding: 216 216 80
Width: 1694
GlyphClass: 2
Flags: W
AnchorPoint: "Anchor-5" 850 0 basechar 0
AnchorPoint: "Anchor-4" 762 1450 basechar 0
AnchorPoint: "Anchor-3" 0 0 basechar 0
LayerCount: 2
Back
Fore
SplineSet
1532 1119.5 m 128,-1,1
 1619 957 1619 957 1619 737 c 0,2,3
 1619 511 1619 511 1520.5 337 c 128,-1,4
 1422 163 1422 163 1246 67 c 128,-1,5
 1070 -29 1070 -29 845 -29 c 0,6,7
 598 -29 598 -29 418 70 c 1,8,-1
 245 -170 l 1,9,-1
 202 -141 l 1,10,-1
 374 97 l 1,11,12
 229 191 229 191 151 347.5 c 128,-1,13
 73 504 73 504 73 713 c 0,14,15
 73 939 73 939 171.5 1113 c 128,-1,16
 270 1287 270 1287 445.5 1383 c 128,-1,17
 621 1479 621 1479 847 1479 c 0,18,19
 1070 1479 1070 1479 1242 1396 c 1,20,-1
 1383 1604 l 1,21,-1
 1422 1577 l 1,22,-1
 1285 1373 l 1,23,0
 1445 1282 1445 1282 1532 1119.5 c 128,-1,1
662 1350.5 m 128,-1,25
 586 1259 586 1259 544.5 1095.5 c 128,-1,26
 503 932 503 932 503 721 c 0,27,28
 503 500 503 500 556 325 c 1,29,-1
 1106 1207 l 1,30,31
 1057 1320 1057 1320 987.5 1381 c 128,-1,32
 918 1442 918 1442 839 1442 c 0,33,24
 738 1442 738 1442 662 1350.5 c 128,-1,25
1030 99.5 m 128,-1,35
 1106 191 1106 191 1147.5 354.5 c 128,-1,36
 1189 518 1189 518 1189 729 c 0,37,38
 1189 971 1189 971 1127 1151 c 1,39,-1
 577 264 l 1,40,41
 626 142 626 142 698 75 c 128,-1,42
 770 8 770 8 853 8 c 0,43,34
 954 8 954 8 1030 99.5 c 128,-1,35
EndSplineSet
Substitution2: "'c2sc' Capitals to Small Capitals lookup 23 subtable" oslash.smcp
Substitution2: "'aalt' Access All Alternates lookup 0 subtable" oslash.smcp
Position2: "'cpsp' Capital Spacing lookup 0 subtable" dx=20 dy=0 dh=20 dv=0
EndChar
StartChar: Thorn
Encoding: 222 222 84
Width: 1327
GlyphClass: 2
Flags: W
AnchorPoint: "Anchor-5" 422 0 basechar 0
AnchorPoint: "Anchor-4" 422 1450 basechar 0
AnchorPoint: "Anchor-3" 715 0 basechar 0
LayerCount: 2
Back
Fore
SplineSet
617 217 m 2,0,1
 617 140 617 140 628 105 c 128,-1,2
 639 70 639 70 668.5 57 c 128,-1,3
 698 44 698 44 763 41 c 1,4,-1
 763 0 l 1,5,6
 643 6 643 6 421 6 c 0,7,8
 173 6 173 6 56 0 c 1,9,-1
 56 41 l 1,10,11
 122 44 122 44 151.5 57 c 128,-1,12
 181 70 181 70 191.5 105 c 128,-1,13
 202 140 202 140 202 217 c 2,14,-1
 202 1233 l 2,15,16
 202 1310 202 1310 191 1345 c 128,-1,17
 180 1380 180 1380 150.5 1393 c 128,-1,18
 121 1406 121 1406 56 1409 c 1,19,-1
 56 1450 l 1,20,21
 173 1444 173 1444 421 1444 c 0,22,23
 643 1444 643 1444 763 1450 c 1,24,-1
 763 1409 l 1,25,26
 697 1406 697 1406 667.5 1393 c 128,-1,27
 638 1380 638 1380 627.5 1345 c 128,-1,28
 617 1310 617 1310 617 1233 c 2,29,-1
 617 1173 l 1,30,-1
 683 1174 l 1,31,32
 996 1174 996 1174 1147.5 1079 c 128,-1,33
 1299 984 1299 984 1299 784 c 0,34,35
 1299 573 1299 573 1149.5 442 c 128,-1,36
 1000 311 1000 311 638 311 c 2,37,-1
 617 311 l 1,38,-1
 617 217 l 2,0,1
617 1135 m 1,39,-1
 617 352 l 1,40,41
 761 352 761 352 815 462 c 128,-1,42
 869 572 869 572 869 762 c 256,43,44
 869 952 869 952 814.5 1043.5 c 128,-1,45
 760 1135 760 1135 632 1135 c 2,46,-1
 617 1135 l 1,39,-1
EndSplineSet
Substitution2: "'c2sc' Capitals to Small Capitals lookup 23 subtable" thorn.smcp
Substitution2: "'aalt' Access All Alternates lookup 0 subtable" thorn.smcp
Position2: "'cpsp' Capital Spacing lookup 0 subtable" dx=20 dy=0 dh=20 dv=0
EndChar
StartChar: germandbls
Encoding: 223 223 232
Width: 1444
GlyphClass: 2
Flags: W
LayerCount: 2
Back
Fore
SplineSet
984 1561 m 128,-1,1
 1092 1520 1092 1520 1147.5 1449.5 c 128,-1,2
 1203 1379 1203 1379 1203 1292 c 0,3,4
 1203 1194 1203 1194 1139 1111.5 c 128,-1,5
 1075 1029 1075 1029 964 971.5 c 128,-1,6
 853 914 853 914 712 887 c 1,7,8
 943 861 943 861 1099.5 788.5 c 128,-1,9
 1256 716 1256 716 1333 610 c 128,-1,10
 1410 504 1410 504 1410 375 c 0,11,12
 1410 247 1410 247 1339.5 155.5 c 128,-1,13
 1269 64 1269 64 1152.5 17.5 c 128,-1,14
 1036 -29 1036 -29 900 -29 c 0,15,16
 585 -29 585 -29 585 205 c 0,17,18
 585 294 585 294 631 348.5 c 128,-1,19
 677 403 677 403 757 403 c 0,20,21
 831 403 831 403 876 356.5 c 128,-1,22
 921 310 921 310 921 236 c 0,23,24
 921 161 921 161 875.5 104.5 c 128,-1,25
 830 48 830 48 767 20 c 1,26,27
 791 8 791 8 826 8 c 0,28,29
 928 8 928 8 975.5 103 c 128,-1,30
 1023 198 1023 198 1023 350 c 0,31,32
 1023 524 1023 524 967.5 628.5 c 128,-1,33
 912 733 912 733 841.5 779 c 128,-1,34
 771 825 771 825 677 860 c 1,35,36
 631 838 631 838 607 838 c 0,37,38
 590 838 590 838 578 846.5 c 128,-1,39
 566 855 566 855 566 870 c 0,40,41
 566 887 566 887 578 897 c 128,-1,42
 590 907 590 907 611 907 c 0,43,44
 644 907 644 907 677 893 c 1,45,46
 746 938 746 938 784.5 989.5 c 128,-1,47
 823 1041 823 1041 839 1106 c 128,-1,48
 855 1171 855 1171 855 1262 c 0,49,50
 855 1571 855 1571 685 1571 c 0,51,52
 608 1571 608 1571 573 1525 c 128,-1,53
 538 1479 538 1479 528.5 1384.5 c 128,-1,54
 519 1290 519 1290 519 1092 c 2,55,-1
 519 -23 l 1,56,57
 390 3 390 3 235 6 c 0,58,59
 219 7 219 7 191 7 c 0,60,61
 140 7 140 7 36 0 c 1,62,-1
 36 43 l 1,63,64
 79 43 79 43 104 56 c 128,-1,65
 129 69 129 69 140 101 c 128,-1,66
 151 133 151 133 151 190 c 2,67,-1
 151 1049 l 2,68,69
 151 1320 151 1320 297 1461 c 128,-1,70
 443 1602 443 1602 726 1602 c 0,71,0
 876 1602 876 1602 984 1561 c 128,-1,1
EndSplineSet
Substitution2: "'smcp' Lowercase to Small Capitals lookup 24 subtable" germandbls.smcp
Substitution2: "'aalt' Access All Alternates lookup 0 subtable" germandbls.smcp
EndChar
StartChar: ae
Encoding: 230 230 144
Width: 1497
GlyphClass: 2
Flags: W
AnchorPoint: "Anchor-5" 0 0 basechar 0
AnchorPoint: "Anchor-4" 750 1053 basechar 0
AnchorPoint: "Anchor-3" 0 0 basechar 0
LayerCount: 2
Back
Fore
SplineSet
1396 332 m 1,1,-1
 1431 319 l 1,2,3
 1404 228 1404 228 1351 149.5 c 128,-1,4
 1298 71 1298 71 1215 21 c 128,-1,5
 1132 -29 1132 -29 1023 -29 c 0,6,7
 898 -29 898 -29 800 21 c 128,-1,8
 702 71 702 71 644 177 c 1,9,10
 584 83 584 83 505.5 34.5 c 128,-1,11
 427 -14 427 -14 308 -14 c 0,12,13
 187 -14 187 -14 118.5 50 c 128,-1,14
 50 114 50 114 50 221 c 0,15,16
 50 325 50 325 112.5 394.5 c 128,-1,17
 175 464 175 464 310 510 c 0,18,19
 405 545 405 545 456.5 569 c 128,-1,20
 508 593 508 593 541 625 c 128,-1,21
 574 657 574 657 574 700 c 2,22,-1
 574 883 l 2,23,24
 574 949 574 949 542 1000 c 128,-1,25
 510 1051 510 1051 423 1051 c 0,26,27
 368 1051 368 1051 314 1016 c 1,28,29
 452 964 452 964 452 831 c 0,30,31
 452 783 452 783 427.5 744 c 128,-1,32
 403 705 403 705 358 682 c 128,-1,33
 313 659 313 659 255 659 c 0,34,35
 205 659 205 659 167 682.5 c 128,-1,36
 129 706 129 706 108 747 c 128,-1,37
 87 788 87 788 87 838 c 0,38,39
 87 900 87 900 121 947.5 c 128,-1,40
 155 995 155 995 214 1026 c 0,41,42
 340 1092 340 1092 493 1092 c 0,43,44
 593 1092 593 1092 655.5 1070 c 128,-1,45
 718 1048 718 1048 769 996 c 1,46,47
 893 1092 893 1092 1076 1092 c 0,48,49
 1254 1092 1254 1092 1348.5 982 c 128,-1,50
 1443 872 1443 872 1443 633 c 1,51,-1
 954 633 l 1,52,53
 953 609 953 609 953 559 c 0,54,55
 953 362 953 362 1015.5 278.5 c 128,-1,56
 1078 195 1078 195 1168 195 c 0,57,0
 1306 195 1306 195 1396 332 c 1,1,-1
984 956.5 m 128,-1,59
 955 869 955 869 947 672 c 1,60,-1
 1144 672 l 1,61,62
 1146 835 1146 835 1125.5 939.5 c 128,-1,63
 1105 1044 1105 1044 1062 1044 c 0,64,58
 1013 1044 1013 1044 984 956.5 c 128,-1,59
626 215 m 1,66,67
 570 341 570 341 570 530 c 0,68,69
 570 578 570 578 574 614 c 1,70,-1
 574 616 l 1,71,72
 556 573 556 573 515 526 c 0,73,74
 467 470 467 470 441 421 c 128,-1,75
 415 372 415 372 415 309 c 0,76,77
 415 182 415 182 519 182 c 0,78,65
 584 182 584 182 626 215 c 1,66,67
EndSplineSet
Substitution2: "'smcp' Lowercase to Small Capitals lookup 24 subtable" ae.smcp
Substitution2: "'aalt' Access All Alternates lookup 0 subtable" ae.smcp
EndChar
StartChar: ccedilla
Encoding: 231 231 149
Width: 1030
GlyphClass: 2
Flags: W
AnchorPoint: "Anchor-5" 563 0 basechar 0
AnchorPoint: "Anchor-4" 555 1053 basechar 0
AnchorPoint: "Anchor-3" 0 0 basechar 0
LayerCount: 2
Back
Fore
SplineSet
523 -28 m 1,0,-1
 496 -123 l 1,1,2
 568 -92 568 -92 658 -92 c 0,3,4
 732 -92 732 -92 770.5 -125 c 128,-1,5
 809 -158 809 -158 809 -211 c 0,6,7
 809 -297 809 -297 720.5 -341 c 128,-1,8
 632 -385 632 -385 486 -385 c 0,9,10
 372 -385 372 -385 301 -358 c 1,11,-1
 314 -322 l 1,12,13
 359 -332 359 -332 412 -332 c 0,14,15
 462 -332 462 -332 500.5 -312 c 128,-1,16
 539 -292 539 -292 539 -254 c 0,17,18
 539 -203 539 -203 482 -203 c 0,19,20
 439 -203 439 -203 414 -217 c 1,21,-1
 469 -24 l 1,22,23
 281 -1 281 -1 170.5 133.5 c 128,-1,24
 60 268 60 268 60 530 c 0,25,26
 60 720 60 720 128 846 c 128,-1,27
 196 972 196 972 314.5 1032 c 128,-1,28
 433 1092 433 1092 587 1092 c 0,29,30
 671 1092 671 1092 741.5 1074.5 c 128,-1,31
 812 1057 812 1057 857 1030 c 0,32,33
 914 997 914 997 947 941.5 c 128,-1,34
 980 886 980 886 980 817 c 0,35,36
 980 761 980 761 954.5 715.5 c 128,-1,37
 929 670 929 670 884 644 c 128,-1,38
 839 618 839 618 783 618 c 0,39,40
 695 618 695 618 645 669 c 128,-1,41
 595 720 595 720 595 803 c 0,42,43
 595 877 595 877 643.5 932.5 c 128,-1,44
 692 988 692 988 763 1008 c 1,45,46
 730 1032 730 1032 681 1032 c 0,47,48
 549 1032 549 1032 496 891.5 c 128,-1,49
 443 751 443 751 443 559 c 0,50,51
 443 362 443 362 517.5 278.5 c 128,-1,52
 592 195 592 195 699 195 c 0,53,54
 848 195 848 195 947 332 c 1,55,-1
 982 319 l 1,56,57
 954 229 954 229 898.5 150 c 128,-1,58
 843 71 843 71 756 21 c 128,-1,59
 669 -29 669 -29 554 -29 c 2,60,-1
 523 -28 l 1,0,-1
EndSplineSet
Substitution2: "'smcp' Lowercase to Small Capitals lookup 24 subtable" ccedilla.smcp
Substitution2: "'aalt' Access All Alternates lookup 0 subtable" ccedilla.smcp
EndChar
StartChar: eth
Encoding: 240 240 153
Width: 1178
GlyphClass: 2
Flags: W
LayerCount: 2
Back
Fore
SplineSet
996.5 1070.5 m 128,-1,1
 1111 872 1111 872 1111 627 c 0,2,3
 1111 294 1111 294 974 130.5 c 128,-1,4
 837 -33 837 -33 591 -33 c 0,5,6
 340 -33 340 -33 202.5 93.5 c 128,-1,7
 65 220 65 220 65 509 c 0,8,9
 65 719 65 719 129.5 849 c 128,-1,10
 194 979 194 979 301 1035.5 c 128,-1,11
 408 1092 408 1092 542 1092 c 0,12,13
 625 1092 625 1092 686 1065 c 1,14,15
 642 1229 642 1229 549 1345 c 1,16,-1
 245 1196 l 1,17,-1
 226 1233 l 1,18,-1
 522 1377 l 1,19,20
 419 1491 419 1491 261 1567 c 1,21,-1
 278 1602 l 1,22,23
 477 1541 477 1541 641 1435 c 1,24,-1
 937 1579 l 1,25,-1
 955 1542 l 1,26,-1
 680 1409 l 1,27,0
 882 1269 882 1269 996.5 1070.5 c 128,-1,1
734 610 m 0,29,30
 734 864 734 864 695 1030 c 1,31,32
 666 1040 666 1040 636 1040 c 0,33,34
 540 1040 540 1040 494 916 c 128,-1,35
 448 792 448 792 448 532 c 0,36,37
 448 269 448 269 487 138.5 c 128,-1,38
 526 8 526 8 591 8 c 0,39,28
 734 8 734 8 734 610 c 0,29,30
EndSplineSet
Substitution2: "'smcp' Lowercase to Small Capitals lookup 24 subtable" eth.smcp
Substitution2: "'aalt' Access All Alternates lookup 0 subtable" eth.smcp
EndChar
StartChar: divide
Encoding: 247 247 726
Width: 1276
Flags: W
LayerCount: 2
Back
Fore
SplineSet
721.5 1101.5 m 128,-1,1
 755 1068 755 1068 755 1022 c 0,2,3
 755 974 755 974 721.5 941.5 c 128,-1,4
 688 909 688 909 640 909 c 0,5,6
 594 909 594 909 560.5 942 c 128,-1,7
 527 975 527 975 527 1022 c 0,8,9
 527 1068 527 1068 560.5 1101.5 c 128,-1,10
 594 1135 594 1135 640 1135 c 0,11,0
 688 1135 688 1135 721.5 1101.5 c 128,-1,1
130 696 m 1,12,-1
 130 758 l 1,13,-1
 1156 758 l 1,14,-1
 1156 696 l 1,15,-1
 130 696 l 1,12,-1
721.5 512 m 128,-1,17
 755 479 755 479 755 432 c 256,18,19
 755 385 755 385 721.5 351 c 128,-1,20
 688 317 688 317 640 317 c 0,21,22
 594 317 594 317 560.5 351 c 128,-1,23
 527 385 527 385 527 432 c 0,24,25
 527 478 527 478 560.5 511.5 c 128,-1,26
 594 545 594 545 640 545 c 0,27,16
 688 545 688 545 721.5 512 c 128,-1,17
EndSplineSet
EndChar
StartChar: oslash
Encoding: 248 248 216
Width: 1180
GlyphClass: 2
Flags: W
AnchorPoint: "Anchor-5" 590 0 basechar 0
AnchorPoint: "Anchor-4" 588 1053 basechar 0
AnchorPoint: "Anchor-3" 0 0 basechar 0
LayerCount: 2
Back
Fore
SplineSet
1115 530 m 0,1,2
 1115 234 1115 234 978 102.5 c 128,-1,3
 841 -29 841 -29 589 -29 c 0,4,5
 406 -29 406 -29 288 36 c 1,6,-1
 159 -150 l 1,7,-1
 120 -123 l 1,8,-1
 247 62 l 1,9,10
 62 195 62 195 62 530 c 0,11,12
 62 827 62 827 199.5 959.5 c 128,-1,13
 337 1092 337 1092 589 1092 c 0,14,15
 776 1092 776 1092 895 1023 c 1,16,-1
 1027 1212 l 1,17,-1
 1066 1186 l 1,18,-1
 935 996 l 1,19,0
 1115 862 1115 862 1115 530 c 0,1,2
484.5 922 m 128,-1,21
 445 793 445 793 445 530 c 0,22,23
 445 423 445 423 453 330 c 1,24,-1
 717 802 l 1,25,26
 700 928 700 928 667 989.5 c 128,-1,27
 634 1051 634 1051 589 1051 c 0,28,20
 524 1051 524 1051 484.5 922 c 128,-1,21
693 140 m 128,-1,30
 732 268 732 268 732 530 c 0,31,32
 732 642 732 642 725 720 c 1,33,-1
 462 247 l 1,34,35
 479 128 479 128 512 70 c 128,-1,36
 545 12 545 12 589 12 c 0,37,29
 654 12 654 12 693 140 c 128,-1,30
EndSplineSet
Substitution2: "'smcp' Lowercase to Small Capitals lookup 24 subtable" oslash.smcp
Substitution2: "'aalt' Access All Alternates lookup 0 subtable" oslash.smcp
EndChar
StartChar: thorn
Encoding: 254 254 220
Width: 1231
GlyphClass: 2
Flags: W
LayerCount: 2
Back
Fore
SplineSet
993 1035 m 128,-1,1
 1073 978 1073 978 1119 862.5 c 128,-1,2
 1165 747 1165 747 1165 578 c 0,3,4
 1165 253 1165 253 1033.5 112 c 128,-1,5
 902 -29 902 -29 688 -29 c 0,6,7
 568 -29 568 -29 498 10 c 1,8,-1
 498 -160 l 2,9,10
 498 -255 498 -255 541.5 -291.5 c 128,-1,11
 585 -328 585 -328 674 -328 c 1,12,-1
 674 -371 l 1,13,-1
 602 -369 l 2,14,15
 413 -362 413 -362 297 -362 c 0,16,17
 211 -362 211 -362 66 -369 c 0,18,19
 26 -371 26 -371 14 -371 c 1,20,-1
 14 -328 l 1,21,22
 57 -328 57 -328 82 -315 c 128,-1,23
 107 -302 107 -302 118 -270 c 128,-1,24
 129 -238 129 -238 129 -180 c 2,25,-1
 129 1356 l 2,26,27
 129 1451 129 1451 103 1493.5 c 128,-1,28
 77 1536 77 1536 14 1536 c 1,29,-1
 14 1579 l 1,30,31
 78 1573 78 1573 141 1573 c 0,32,33
 356 1573 356 1573 498 1602 c 1,34,-1
 498 938 l 1,35,36
 591 1092 591 1092 809 1092 c 0,37,0
 913 1092 913 1092 993 1035 c 128,-1,1
731.5 155 m 128,-1,39
 782 277 782 277 782 530 c 256,40,41
 782 783 782 783 745.5 884 c 128,-1,42
 709 985 709 985 645 985 c 0,43,44
 607 985 607 985 573 966 c 128,-1,45
 539 947 539 947 518.5 913.5 c 128,-1,46
 498 880 498 880 498 838 c 2,47,-1
 498 50 l 1,48,49
 525 33 525 33 569 33 c 0,50,38
 681 33 681 33 731.5 155 c 128,-1,39
EndSplineSet
Substitution2: "'smcp' Lowercase to Small Capitals lookup 24 subtable" thorn.smcp
Substitution2: "'aalt' Access All Alternates lookup 0 subtable" thorn.smcp
EndChar
StartChar: Aogonek
Encoding: 260 260 9
Width: 1417
GlyphClass: 2
Flags: W
AnchorPoint: "Anchor-5" 0 0 basechar 0
AnchorPoint: "Anchor-4" 711 1450 basechar 0
AnchorPoint: "Anchor-3" 1397 0 basechar 0
LayerCount: 2
Back
Fore
SplineSet
1229 -88 m 128,-1,1
 1176 -138 1176 -138 1176 -184 c 0,2,3
 1176 -225 1176 -225 1196 -243.5 c 128,-1,4
 1216 -262 1216 -262 1258 -262 c 0,5,6
 1292 -262 1292 -262 1331 -248.5 c 128,-1,7
 1370 -235 1370 -235 1393 -215 c 1,8,-1
 1420 -246 l 1,9,10
 1360 -320 1360 -320 1286.5 -352.5 c 128,-1,11
 1213 -385 1213 -385 1106 -385 c 0,12,13
 1007 -385 1007 -385 955.5 -347.5 c 128,-1,14
 904 -310 904 -310 904 -240 c 0,15,16
 904 -154 904 -154 1011 -92 c 128,-1,17
 1118 -30 1118 -30 1315 3 c 1,18,19
 1196 6 1196 6 1059 6 c 0,20,21
 824 6 824 6 715 0 c 1,22,-1
 715 41 l 1,23,24
 792 44 792 44 825.5 60 c 128,-1,25
 859 76 859 76 859 116 c 0,26,27
 859 147 859 147 834 213 c 2,28,-1
 712 549 l 1,29,-1
 299 549 l 1,30,-1
 264 457 l 2,31,32
 198 285 198 285 198 190 c 0,33,34
 198 106 198 106 244.5 75 c 128,-1,35
 291 44 291 44 383 41 c 1,36,-1
 383 0 l 1,37,38
 230 6 230 6 115 6 c 0,39,40
 18 6 18 6 -43 0 c 1,41,-1
 -43 41 l 1,42,43
 7 49 7 49 52.5 104 c 128,-1,44
 98 159 98 159 145 281 c 2,45,-1
 600 1450 l 1,46,47
 655 1445 655 1445 708 1445 c 0,48,49
 760 1445 760 1445 815 1450 c 1,50,-1
 1311 172 l 2,51,52
 1337 106 1337 106 1369 74.5 c 128,-1,53
 1401 43 1401 43 1432 41 c 1,54,-1
 1432 0 l 1,55,-1
 1394 1 l 1,56,0
 1282 -38 1282 -38 1229 -88 c 128,-1,1
512 1102 m 1,57,-1
 315 590 l 1,58,-1
 698 590 l 1,59,-1
 512 1102 l 1,57,-1
EndSplineSet
Substitution2: "'c2sc' Capitals to Small Capitals lookup 23 subtable" aogonek.smcp
Substitution2: "'aalt' Access All Alternates lookup 0 subtable" aogonek.smcp
Position2: "'cpsp' Capital Spacing lookup 0 subtable" dx=20 dy=0 dh=20 dv=0
EndChar
StartChar: aogonek
Encoding: 261 261 141
Width: 1087
GlyphClass: 2
Flags: W
AnchorPoint: "Anchor-5" 0 0 basechar 0
AnchorPoint: "Anchor-4" 551 1053 basechar 0
AnchorPoint: "Anchor-3" 965 0 basechar 0
LayerCount: 2
Back
Fore
SplineSet
964 -248.5 m 128,-1,1
 1003 -235 1003 -235 1026 -215 c 1,2,-1
 1052 -246 l 1,3,4
 993 -320 993 -320 919.5 -352.5 c 128,-1,5
 846 -385 846 -385 739 -385 c 0,6,7
 640 -385 640 -385 588 -347.5 c 128,-1,8
 536 -310 536 -310 536 -240 c 0,9,10
 536 -164 536 -164 607 -107 c 128,-1,11
 678 -50 678 -50 812 -14 c 1,12,-1
 806 -14 l 2,13,14
 698 -14 698 -14 647.5 29.5 c 128,-1,15
 597 73 597 73 595 141 c 1,16,17
 552 70 552 70 474 28 c 128,-1,18
 396 -14 396 -14 302 -14 c 0,19,20
 181 -14 181 -14 112.5 50 c 128,-1,21
 44 114 44 114 44 221 c 0,22,23
 44 326 44 326 107 396 c 128,-1,24
 170 466 170 466 304 510 c 0,25,26
 413 549 413 549 465.5 571.5 c 128,-1,27
 518 594 518 594 553.5 625.5 c 128,-1,28
 589 657 589 657 589 700 c 2,29,-1
 589 883 l 2,30,31
 589 948 589 948 556.5 999.5 c 128,-1,32
 524 1051 524 1051 437 1051 c 0,33,34
 411 1051 411 1051 381.5 1041 c 128,-1,35
 352 1031 352 1031 329 1016 c 1,36,37
 466 965 466 965 466 831 c 0,38,39
 466 783 466 783 441.5 744 c 128,-1,40
 417 705 417 705 372 682 c 128,-1,41
 327 659 327 659 269 659 c 0,42,43
 219 659 219 659 181 682.5 c 128,-1,44
 143 706 143 706 122 747 c 128,-1,45
 101 788 101 788 101 838 c 0,46,47
 101 900 101 900 135.5 947.5 c 128,-1,48
 170 995 170 995 228 1026 c 0,49,50
 357 1092 357 1092 556 1092 c 0,51,52
 673 1092 673 1092 754 1069.5 c 128,-1,53
 835 1047 835 1047 890 989 c 0,54,55
 930 947 930 947 943.5 882.5 c 128,-1,56
 957 818 957 818 957 702 c 2,57,-1
 957 154 l 2,58,59
 957 105 957 105 964 85.5 c 128,-1,60
 971 66 971 66 988 66 c 0,61,62
 1004 66 1004 66 1017.5 73.5 c 128,-1,63
 1031 81 1031 81 1052 96 c 1,64,-1
 1072 61 l 1,65,66
 1032 27 1032 27 980 9 c 0,67,68
 972 4 972 4 948 -8 c 0,69,70
 874 -45 874 -45 841.5 -91.5 c 128,-1,71
 809 -138 809 -138 809 -184 c 0,72,73
 809 -225 809 -225 829.5 -243.5 c 128,-1,74
 850 -262 850 -262 891 -262 c 0,75,0
 925 -262 925 -262 964 -248.5 c 128,-1,1
509 526 m 0,77,78
 409 429 409 429 409 295 c 0,79,80
 409 150 409 150 513 150 c 0,81,82
 556 150 556 150 589 184 c 1,83,-1
 589 616 l 1,84,76
 574 591 574 591 509 526 c 0,77,78
EndSplineSet
Substitution2: "'smcp' Lowercase to Small Capitals lookup 24 subtable" aogonek.smcp
Substitution2: "'aalt' Access All Alternates lookup 0 subtable" aogonek.smcp
EndChar
StartChar: Dcroat
Encoding: 272 272 23
Width: 1661
GlyphClass: 2
Flags: W
AnchorPoint: "Anchor-5" 0 0 basechar 0
AnchorPoint: "Anchor-4" 739 1450 basechar 0
AnchorPoint: "Anchor-3" 0 0 basechar 0
LayerCount: 2
Back
Fore
SplineSet
1373.5 1269 m 128,-1,1
 1584 1088 1584 1088 1584 741 c 0,2,3
 1584 518 1584 518 1481 350.5 c 128,-1,4
 1378 183 1378 183 1183.5 91.5 c 128,-1,5
 989 0 989 0 720 0 c 0,6,7
 669 0 669 0 592 3 c 0,8,9
 409 6 409 6 413 6 c 1,10,11
 173 6 173 6 56 0 c 1,12,-1
 56 41 l 1,13,14
 122 44 122 44 151.5 57 c 128,-1,15
 181 70 181 70 191.5 105 c 128,-1,16
 202 140 202 140 202 217 c 2,17,-1
 202 709 l 1,18,-1
 56 709 l 1,19,-1
 56 750 l 1,20,-1
 202 750 l 1,21,-1
 202 1233 l 2,22,23
 202 1310 202 1310 191 1345 c 128,-1,24
 180 1380 180 1380 150.5 1393 c 128,-1,25
 121 1406 121 1406 56 1409 c 1,26,-1
 56 1450 l 1,27,28
 205 1443 205 1443 336 1443 c 2,29,-1
 409 1444 l 1,30,-1
 499 1446 l 2,31,32
 667 1450 667 1450 738 1450 c 0,33,0
 1163 1450 1163 1450 1373.5 1269 c 128,-1,1
1064 212 m 128,-1,35
 1154 387 1154 387 1154 733 c 0,36,37
 1154 1080 1154 1080 1061 1246.5 c 128,-1,38
 968 1413 968 1413 769 1413 c 0,39,40
 705 1413 705 1413 673 1398.5 c 128,-1,41
 641 1384 641 1384 629 1347 c 128,-1,42
 617 1310 617 1310 617 1237 c 2,43,-1
 617 750 l 1,44,-1
 851 750 l 1,45,-1
 851 709 l 1,46,-1
 617 709 l 1,47,-1
 617 213 l 2,48,49
 617 139 617 139 629 102.5 c 128,-1,50
 641 66 641 66 673.5 51.5 c 128,-1,51
 706 37 706 37 771 37 c 0,52,34
 974 37 974 37 1064 212 c 128,-1,35
EndSplineSet
Substitution2: "'c2sc' Capitals to Small Capitals lookup 23 subtable" dcroat.smcp
Substitution2: "'aalt' Access All Alternates lookup 0 subtable" dcroat.smcp
Position2: "'cpsp' Capital Spacing lookup 0 subtable" dx=20 dy=0 dh=20 dv=0
EndChar
StartChar: dcroat
Encoding: 273 273 155
Width: 1247
GlyphClass: 2
Flags: W
LayerCount: 2
Back
Fore
SplineSet
1099 225 m 2,0,1
 1099 130 1099 130 1124.5 87.5 c 128,-1,2
 1150 45 1150 45 1213 45 c 1,3,-1
 1213 2 l 1,4,5
 1149 8 1149 8 1086 8 c 0,6,7
 874 8 874 8 730 -20 c 1,8,-1
 730 125 l 1,9,10
 688 45 688 45 629 8 c 128,-1,11
 570 -29 570 -29 480 -29 c 0,12,13
 358 -29 358 -29 264 31 c 128,-1,14
 170 91 170 91 116 218 c 128,-1,15
 62 345 62 345 62 539 c 0,16,17
 62 720 62 720 118 844 c 128,-1,18
 174 968 174 968 276 1030 c 128,-1,19
 378 1092 378 1092 517 1092 c 0,20,21
 651 1092 651 1092 730 1040 c 1,22,-1
 730 1245 l 1,23,-1
 407 1245 l 1,24,-1
 407 1286 l 1,25,-1
 730 1286 l 1,26,-1
 730 1356 l 2,27,28
 730 1451 730 1451 704 1493.5 c 128,-1,29
 678 1536 678 1536 615 1536 c 1,30,-1
 615 1579 l 1,31,32
 679 1573 679 1573 742 1573 c 0,33,34
 957 1573 957 1573 1099 1602 c 1,35,-1
 1099 1286 l 1,36,-1
 1234 1286 l 1,37,-1
 1234 1245 l 1,38,-1
 1099 1245 l 1,39,-1
 1099 225 l 2,0,1
654.5 97 m 128,-1,41
 688 116 688 116 709 149.5 c 128,-1,42
 730 183 730 183 730 225 c 2,43,-1
 730 997 l 1,44,45
 686 1024 686 1024 634 1024 c 0,46,47
 539 1024 539 1024 492 902.5 c 128,-1,48
 445 781 445 781 445 532 c 0,49,50
 445 280 445 280 482 179 c 128,-1,51
 519 78 519 78 583 78 c 0,52,40
 621 78 621 78 654.5 97 c 128,-1,41
EndSplineSet
Substitution2: "'smcp' Lowercase to Small Capitals lookup 24 subtable" dcroat.smcp
Substitution2: "'aalt' Access All Alternates lookup 0 subtable" dcroat.smcp
EndChar
StartChar: Eogonek
Encoding: 280 280 33
Width: 1331
GlyphClass: 2
Flags: W
AnchorPoint: "Anchor-5" 666 0 basechar 0
AnchorPoint: "Anchor-4" 655 1450 basechar 0
AnchorPoint: "Anchor-3" 1225 0 basechar 0
LayerCount: 2
Back
Fore
SplineSet
1113.5 -352.5 m 128,-1,1
 1040 -385 1040 -385 933 -385 c 0,2,3
 834 -385 834 -385 782.5 -347.5 c 128,-1,4
 731 -310 731 -310 731 -240 c 0,5,6
 731 -154 731 -154 837.5 -92.5 c 128,-1,7
 944 -31 944 -31 1140 3 c 1,8,9
 1018 6 1018 6 773 6 c 0,10,11
 294 6 294 6 56 0 c 1,12,-1
 56 41 l 1,13,14
 122 44 122 44 151.5 57 c 128,-1,15
 181 70 181 70 191.5 105 c 128,-1,16
 202 140 202 140 202 217 c 2,17,-1
 202 1233 l 2,18,19
 202 1310 202 1310 191 1345 c 128,-1,20
 180 1380 180 1380 150.5 1393 c 128,-1,21
 121 1406 121 1406 56 1409 c 1,22,-1
 56 1450 l 1,23,24
 294 1444 294 1444 773 1444 c 0,25,26
 1074 1444 1074 1444 1201 1450 c 1,27,28
 1187 1258 1187 1258 1187 1106 c 0,29,30
 1187 1010 1187 1010 1193 958 c 1,31,-1
 1146 958 l 1,32,33
 1110 1196 1110 1196 1009.5 1299.5 c 128,-1,34
 909 1403 909 1403 769 1403 c 2,35,-1
 742 1403 l 2,36,37
 686 1403 686 1403 661 1394 c 128,-1,38
 636 1385 636 1385 626.5 1358.5 c 128,-1,39
 617 1332 617 1332 617 1274 c 2,40,-1
 617 750 l 1,41,-1
 638 750 l 2,42,43
 711 750 711 750 769.5 791 c 128,-1,44
 828 832 828 832 866 894 c 128,-1,45
 904 956 904 956 917 1020 c 1,46,-1
 964 1020 l 1,47,48
 956 900 956 900 956 821 c 2,49,-1
 957 729 l 2,50,51
 957 641 957 641 970 438 c 1,52,-1
 923 438 l 1,53,54
 910 515 910 515 871.5 576.5 c 128,-1,55
 833 638 833 638 773 673.5 c 128,-1,56
 713 709 713 709 638 709 c 2,57,-1
 617 709 l 1,58,-1
 617 176 l 2,59,60
 617 117 617 117 626.5 91 c 128,-1,61
 636 65 636 65 661 56 c 128,-1,62
 686 47 686 47 742 47 c 2,63,-1
 810 47 l 2,64,65
 884 47 884 47 958.5 94 c 128,-1,66
 1033 141 1033 141 1094.5 249.5 c 128,-1,67
 1156 358 1156 358 1187 532 c 1,68,-1
 1234 532 l 1,69,70
 1228 458 1228 458 1228 344 c 0,71,72
 1228 135 1228 135 1242 0 c 1,73,-1
 1219 1 l 1,74,75
 1108 -38 1108 -38 1055.5 -88 c 128,-1,76
 1003 -138 1003 -138 1003 -184 c 0,77,78
 1003 -225 1003 -225 1023 -243.5 c 128,-1,79
 1043 -262 1043 -262 1085 -262 c 0,80,81
 1119 -262 1119 -262 1158 -248.5 c 128,-1,82
 1197 -235 1197 -235 1220 -215 c 1,83,-1
 1247 -246 l 1,84,0
 1187 -320 1187 -320 1113.5 -352.5 c 128,-1,1
EndSplineSet
Substitution2: "'c2sc' Capitals to Small Capitals lookup 23 subtable" eogonek.smcp
Substitution2: "'aalt' Access All Alternates lookup 0 subtable" eogonek.smcp
Position2: "'cpsp' Capital Spacing lookup 0 subtable" dx=20 dy=0 dh=20 dv=0
EndChar
StartChar: eogonek
Encoding: 281 281 165
Width: 1030
GlyphClass: 2
Flags: W
AnchorPoint: "Anchor-5" 537 0 basechar 0
AnchorPoint: "Anchor-4" 571 1053 basechar 0
AnchorPoint: "Anchor-3" 698 0 basechar 0
LayerCount: 2
Back
Fore
SplineSet
929 332 m 1,1,-1
 964 319 l 1,2,3
 932 219 932 219 868 134.5 c 128,-1,4
 804 50 804 50 709 7 c 1,5,-1
 681 -8 l 2,6,7
 607 -45 607 -45 574.5 -91.5 c 128,-1,8
 542 -138 542 -138 542 -184 c 0,9,10
 542 -225 542 -225 562.5 -243.5 c 128,-1,11
 583 -262 583 -262 624 -262 c 0,12,13
 658 -262 658 -262 697 -248.5 c 128,-1,14
 736 -235 736 -235 759 -215 c 1,15,-1
 785 -246 l 1,16,17
 726 -320 726 -320 652.5 -352.5 c 128,-1,18
 579 -385 579 -385 472 -385 c 0,19,20
 373 -385 373 -385 321 -347.5 c 128,-1,21
 269 -310 269 -310 269 -240 c 0,22,23
 269 -171 269 -171 328 -117.5 c 128,-1,24
 387 -64 387 -64 497 -28 c 1,25,26
 299 -17 299 -17 180.5 117.5 c 128,-1,27
 62 252 62 252 62 530 c 0,28,29
 62 720 62 720 130 846 c 128,-1,30
 198 972 198 972 316.5 1032 c 128,-1,31
 435 1092 435 1092 589 1092 c 0,32,33
 976 1092 976 1092 976 633 c 1,34,-1
 447 633 l 1,35,36
 445 609 445 609 445 559 c 0,37,38
 445 362 445 362 513.5 278.5 c 128,-1,39
 582 195 582 195 681 195 c 0,40,0
 830 195 830 195 929 332 c 1,1,-1
484 956 m 128,-1,42
 450 868 450 868 440 672 c 1,43,-1
 677 672 l 1,44,45
 679 835 679 835 653.5 939.5 c 128,-1,46
 628 1044 628 1044 574 1044 c 0,47,41
 518 1044 518 1044 484 956 c 128,-1,42
EndSplineSet
Substitution2: "'smcp' Lowercase to Small Capitals lookup 24 subtable" eogonek.smcp
Substitution2: "'aalt' Access All Alternates lookup 0 subtable" eogonek.smcp
EndChar
StartChar: gcircumflex
Encoding: 285 285 170
Width: 1147
GlyphClass: 2
Flags: W
LayerCount: 2
Back
Fore
SplineSet
409 1296.5 m 128,-1,1
 315 1263 315 1263 218 1241 c 1,2,-1
 202 1270 l 1,3,4
 313 1343 313 1343 415 1460 c 128,-1,5
 517 1577 517 1577 585 1704 c 1,6,-1
 622 1704 l 1,7,8
 730 1443 730 1443 878 1292 c 1,9,-1
 857 1264 l 1,10,11
 675 1308 675 1308 562 1364 c 1,12,0
 503 1330 503 1330 409 1296.5 c 128,-1,1
869 1038 m 2,14,-1
 869 1033 l 1,15,16
 1043 949 1043 949 1043 764 c 0,17,18
 1043 655 1043 655 981.5 581.5 c 128,-1,19
 920 508 920 508 812 472 c 128,-1,20
 704 436 704 436 562 436 c 0,21,22
 459 436 459 436 368 456 c 1,23,24
 325 427 325 427 306.5 406 c 128,-1,25
 288 385 288 385 288 354 c 0,26,27
 288 287 288 287 361 287 c 2,28,-1
 826 287 l 2,29,30
 961 287 961 287 1044 230.5 c 128,-1,31
 1127 174 1127 174 1127 47 c 0,32,33
 1127 -62 1127 -62 1059 -161 c 128,-1,34
 991 -260 991 -260 854.5 -322.5 c 128,-1,35
 718 -385 718 -385 521 -385 c 0,36,37
 344 -385 344 -385 236.5 -360.5 c 128,-1,38
 129 -336 129 -336 84.5 -298 c 128,-1,39
 40 -260 40 -260 40 -215 c 0,40,41
 40 -176 40 -176 62 -155 c 128,-1,42
 84 -134 84 -134 116.5 -126.5 c 128,-1,43
 149 -119 149 -119 204 -113 c 0,44,45
 273 -105 273 -105 312.5 -94 c 128,-1,46
 352 -83 352 -83 377 -53 c 1,47,-1
 310 -53 l 2,48,49
 258 -53 258 -53 202.5 -35.5 c 128,-1,50
 147 -18 147 -18 106 29.5 c 128,-1,51
 65 77 65 77 65 160 c 0,52,53
 65 228 65 228 90.5 279 c 128,-1,54
 116 330 116 330 173.5 374.5 c 128,-1,55
 231 419 231 419 330 466 c 1,56,57
 212 502 212 502 146.5 576.5 c 128,-1,58
 81 651 81 651 81 764 c 0,59,60
 81 873 81 873 142.5 946.5 c 128,-1,61
 204 1020 204 1020 312 1056 c 128,-1,62
 420 1092 420 1092 562 1092 c 0,63,64
 718 1092 718 1092 826 1051 c 1,65,66
 830 1156 830 1156 884.5 1222 c 128,-1,67
 939 1288 939 1288 1037 1288 c 0,68,69
 1104 1288 1104 1288 1148.5 1257.5 c 128,-1,70
 1193 1227 1193 1227 1193 1171 c 0,71,72
 1193 1123 1193 1123 1150.5 1091 c 128,-1,73
 1108 1059 1108 1059 1046 1059 c 0,74,75
 987 1059 987 1059 949.5 1087 c 128,-1,76
 912 1115 912 1115 896 1155 c 1,77,13
 869 1105 869 1105 869 1038 c 2,14,-1
640.5 539.5 m 128,-1,79
 667 606 667 606 667 764 c 256,80,81
 667 922 667 922 640.5 988.5 c 128,-1,82
 614 1055 614 1055 562 1055 c 0,83,84
 511 1055 511 1055 484.5 988 c 128,-1,85
 458 921 458 921 458 764 c 0,86,87
 458 606 458 606 484.5 539.5 c 128,-1,88
 511 473 511 473 562 473 c 0,89,78
 614 473 614 473 640.5 539.5 c 128,-1,79
821.5 -69.5 m 128,-1,91
 800 -53 800 -53 749 -53 c 2,92,-1
 418 -53 l 1,93,94
 404 -83 404 -83 398 -121.5 c 128,-1,95
 392 -160 392 -160 392 -186 c 0,96,97
 392 -264 392 -264 439 -307 c 128,-1,98
 486 -350 486 -350 577 -350 c 0,99,100
 656 -350 656 -350 716 -321 c 128,-1,101
 776 -292 776 -292 809.5 -239.5 c 128,-1,102
 843 -187 843 -187 843 -119 c 0,103,90
 843 -86 843 -86 821.5 -69.5 c 128,-1,91
EndSplineSet
Substitution2: "'smcp' Lowercase to Small Capitals lookup 24 subtable" gcircumflex.smcp
Substitution2: "'aalt' Access All Alternates lookup 0 subtable" gcircumflex.smcp
EndChar
StartChar: gbreve
Encoding: 287 287 169
Width: 1147
GlyphClass: 2
Flags: W
LayerCount: 2
Back
Fore
SplineSet
333 1354 m 128,-1,1
 235 1453 235 1453 194 1595 c 1,2,-1
 229 1614 l 1,3,4
 371 1499 371 1499 601 1499 c 0,5,6
 832 1499 832 1499 974 1614 c 1,7,-1
 1009 1595 l 1,8,9
 968 1453 968 1453 869.5 1354 c 128,-1,10
 771 1255 771 1255 601 1255 c 256,11,0
 431 1255 431 1255 333 1354 c 128,-1,1
869 1100 m 0,13,14
 869 1066 869 1066 880 1028 c 1,15,16
 1043 941 1043 941 1043 764 c 0,17,18
 1043 655 1043 655 981.5 581.5 c 128,-1,19
 920 508 920 508 812 472 c 128,-1,20
 704 436 704 436 562 436 c 0,21,22
 459 436 459 436 368 456 c 1,23,24
 325 427 325 427 306.5 406 c 128,-1,25
 288 385 288 385 288 354 c 0,26,27
 288 287 288 287 361 287 c 2,28,-1
 826 287 l 2,29,30
 961 287 961 287 1044 230.5 c 128,-1,31
 1127 174 1127 174 1127 47 c 0,32,33
 1127 -62 1127 -62 1059 -161 c 128,-1,34
 991 -260 991 -260 854.5 -322.5 c 128,-1,35
 718 -385 718 -385 521 -385 c 0,36,37
 344 -385 344 -385 236.5 -360.5 c 128,-1,38
 129 -336 129 -336 84.5 -298 c 128,-1,39
 40 -260 40 -260 40 -215 c 0,40,41
 40 -176 40 -176 62 -155 c 128,-1,42
 84 -134 84 -134 116.5 -126.5 c 128,-1,43
 149 -119 149 -119 204 -113 c 0,44,45
 273 -105 273 -105 312.5 -94 c 128,-1,46
 352 -83 352 -83 377 -53 c 1,47,-1
 310 -53 l 2,48,49
 258 -53 258 -53 202.5 -35.5 c 128,-1,50
 147 -18 147 -18 106 29.5 c 128,-1,51
 65 77 65 77 65 160 c 0,52,53
 65 228 65 228 90.5 279 c 128,-1,54
 116 330 116 330 173.5 374.5 c 128,-1,55
 231 419 231 419 330 466 c 1,56,57
 212 502 212 502 146.5 576.5 c 128,-1,58
 81 651 81 651 81 764 c 0,59,60
 81 873 81 873 142.5 946.5 c 128,-1,61
 204 1020 204 1020 312 1056 c 128,-1,62
 420 1092 420 1092 562 1092 c 0,63,64
 718 1092 718 1092 831 1049 c 1,65,66
 826 1077 826 1077 826 1100 c 0,67,68
 826 1169 826 1169 853 1226 c 128,-1,69
 880 1283 880 1283 928.5 1316.5 c 128,-1,70
 977 1350 977 1350 1037 1350 c 0,71,72
 1104 1350 1104 1350 1148.5 1314.5 c 128,-1,73
 1193 1279 1193 1279 1193 1212 c 0,74,75
 1193 1174 1193 1174 1173.5 1143.5 c 128,-1,76
 1154 1113 1154 1113 1120 1096 c 128,-1,77
 1086 1079 1086 1079 1046 1079 c 0,78,79
 987 1079 987 1079 949.5 1113.5 c 128,-1,80
 912 1148 912 1148 896 1196 c 1,81,12
 869 1155 869 1155 869 1100 c 0,13,14
640.5 539.5 m 128,-1,83
 667 606 667 606 667 764 c 256,84,85
 667 922 667 922 640.5 988.5 c 128,-1,86
 614 1055 614 1055 562 1055 c 0,87,88
 511 1055 511 1055 484.5 988 c 128,-1,89
 458 921 458 921 458 764 c 0,90,91
 458 606 458 606 484.5 539.5 c 128,-1,92
 511 473 511 473 562 473 c 0,93,82
 614 473 614 473 640.5 539.5 c 128,-1,83
821.5 -69.5 m 128,-1,95
 800 -53 800 -53 749 -53 c 2,96,-1
 418 -53 l 1,97,98
 404 -83 404 -83 398 -121.5 c 128,-1,99
 392 -160 392 -160 392 -186 c 0,100,101
 392 -264 392 -264 439 -307 c 128,-1,102
 486 -350 486 -350 577 -350 c 0,103,104
 656 -350 656 -350 716 -321 c 128,-1,105
 776 -292 776 -292 809.5 -239.5 c 128,-1,106
 843 -187 843 -187 843 -119 c 0,107,94
 843 -86 843 -86 821.5 -69.5 c 128,-1,95
EndSplineSet
Substitution2: "'smcp' Lowercase to Small Capitals lookup 24 subtable" gbreve.smcp
Substitution2: "'aalt' Access All Alternates lookup 0 subtable" gbreve.smcp
EndChar
StartChar: gdotaccent
Encoding: 289 289 172
Width: 1147
GlyphClass: 2
Flags: W
LayerCount: 2
Back
Fore
SplineSet
417 1293.5 m 128,-1,1
 360 1338 360 1338 360 1425 c 256,2,3
 360 1512 360 1512 417 1557 c 128,-1,4
 474 1602 474 1602 583 1602 c 0,5,6
 690 1602 690 1602 748 1557 c 128,-1,7
 806 1512 806 1512 806 1425 c 0,8,9
 806 1339 806 1339 748 1294 c 128,-1,10
 690 1249 690 1249 583 1249 c 0,11,0
 474 1249 474 1249 417 1293.5 c 128,-1,1
808 1126 m 0,13,14
 808 1093 808 1093 816 1055 c 1,15,16
 924 1018 924 1018 983.5 945 c 128,-1,17
 1043 872 1043 872 1043 764 c 0,18,19
 1043 655 1043 655 981.5 581.5 c 128,-1,20
 920 508 920 508 812 472 c 128,-1,21
 704 436 704 436 562 436 c 0,22,23
 459 436 459 436 368 456 c 1,24,25
 325 427 325 427 306.5 406 c 128,-1,26
 288 385 288 385 288 354 c 0,27,28
 288 287 288 287 361 287 c 2,29,-1
 826 287 l 2,30,31
 961 287 961 287 1044 230.5 c 128,-1,32
 1127 174 1127 174 1127 47 c 0,33,34
 1127 -62 1127 -62 1059 -161 c 128,-1,35
 991 -260 991 -260 854.5 -322.5 c 128,-1,36
 718 -385 718 -385 521 -385 c 0,37,38
 344 -385 344 -385 236.5 -360.5 c 128,-1,39
 129 -336 129 -336 84.5 -298 c 128,-1,40
 40 -260 40 -260 40 -215 c 0,41,42
 40 -176 40 -176 62 -155 c 128,-1,43
 84 -134 84 -134 116.5 -126.5 c 128,-1,44
 149 -119 149 -119 204 -113 c 0,45,46
 273 -105 273 -105 312.5 -94 c 128,-1,47
 352 -83 352 -83 377 -53 c 1,48,-1
 310 -53 l 2,49,50
 258 -53 258 -53 202.5 -35.5 c 128,-1,51
 147 -18 147 -18 106 29.5 c 128,-1,52
 65 77 65 77 65 160 c 0,53,54
 65 228 65 228 90.5 279 c 128,-1,55
 116 330 116 330 173.5 374.5 c 128,-1,56
 231 419 231 419 330 466 c 1,57,58
 212 502 212 502 146.5 576.5 c 128,-1,59
 81 651 81 651 81 764 c 0,60,61
 81 873 81 873 142.5 946.5 c 128,-1,62
 204 1020 204 1020 312 1056 c 128,-1,63
 420 1092 420 1092 562 1092 c 0,64,65
 674 1092 674 1092 769 1069 c 1,66,67
 765 1105 765 1105 765 1126 c 0,68,69
 765 1201 765 1201 791.5 1262.5 c 128,-1,70
 818 1324 818 1324 870 1360.5 c 128,-1,71
 922 1397 922 1397 996 1397 c 0,72,73
 1071 1397 1071 1397 1122 1354.5 c 128,-1,74
 1173 1312 1173 1312 1173 1239 c 0,75,76
 1173 1195 1173 1195 1150.5 1160 c 128,-1,77
 1128 1125 1128 1125 1090 1105 c 128,-1,78
 1052 1085 1052 1085 1005 1085 c 0,79,80
 935 1085 935 1085 885 1118.5 c 128,-1,81
 835 1152 835 1152 822 1223 c 1,82,12
 808 1182 808 1182 808 1126 c 0,13,14
640.5 539.5 m 128,-1,84
 667 606 667 606 667 764 c 256,85,86
 667 922 667 922 640.5 988.5 c 128,-1,87
 614 1055 614 1055 562 1055 c 0,88,89
 511 1055 511 1055 484.5 988 c 128,-1,90
 458 921 458 921 458 764 c 0,91,92
 458 606 458 606 484.5 539.5 c 128,-1,93
 511 473 511 473 562 473 c 0,94,83
 614 473 614 473 640.5 539.5 c 128,-1,84
821.5 -69.5 m 128,-1,96
 800 -53 800 -53 749 -53 c 2,97,-1
 418 -53 l 1,98,99
 404 -83 404 -83 398 -121.5 c 128,-1,100
 392 -160 392 -160 392 -186 c 0,101,102
 392 -264 392 -264 439 -307 c 128,-1,103
 486 -350 486 -350 577 -350 c 0,104,105
 656 -350 656 -350 716 -321 c 128,-1,106
 776 -292 776 -292 809.5 -239.5 c 128,-1,107
 843 -187 843 -187 843 -119 c 0,108,95
 843 -86 843 -86 821.5 -69.5 c 128,-1,96
EndSplineSet
Substitution2: "'smcp' Lowercase to Small Capitals lookup 24 subtable" gdotaccent.smcp
Substitution2: "'aalt' Access All Alternates lookup 0 subtable" gdotaccent.smcp
EndChar
